<?xml version="1.0" encoding="iso-8859-1"?>
<!-- Generator: Adobe Illustrator 28.0.0, SVG Export Plug-In . SVG Version: 6.00 Build 0)  -->
<svg version="1.1" id="Laag_1" xmlns="http://www.w3.org/2000/svg" xmlns:xlink="http://www.w3.org/1999/xlink" x="0px" y="0px"
	 viewBox="0 0 2009.784 1250.816" style="enable-background:new 0 0 2009.784 1250.816;" xml:space="preserve">
<rect x="0.055" y="-1.265" style="fill:#020203;" width="2020.07" height="1257.024"/>
<g>
	<defs>
		
			<rect id="SVGID_1_" x="0.062" y="-4.182" transform="matrix(-1 -4.558632e-11 4.558632e-11 -1 2019.0059 1579)" width="2018.882" height="1587.364"/>
	</defs>
	<clipPath id="SVGID_00000018210654242751578850000001967947546817235870_">
		<use xlink:href="#SVGID_1_"  style="overflow:visible;"/>
	</clipPath>
	<g style="clip-path:url(#SVGID_00000018210654242751578850000001967947546817235870_);">
		<g>
			<g>
				
					<linearGradient id="SVGID_00000113330525013702787060000008828063659813366186_" gradientUnits="userSpaceOnUse" x1="-651.8236" y1="669.77" x2="2267.7207" y2="669.77">
					<stop  offset="0" style="stop-color:#9FC53B"/>
					<stop  offset="1" style="stop-color:#020203"/>
				</linearGradient>
				<path style="fill:url(#SVGID_00000113330525013702787060000008828063659813366186_);" d="M-651.378,665.656
					c138.941,112.095,303.421,191.491,475.307,238.301c103.159,28.094,210.761,45.497,317.273,54.854
					c125.771,11.049,254.254,6.828,376.779-25.656c101.445-26.895,196.952-72.378,272.145-146.588
					c28.843-28.466,54.907-59.557,82.477-89.222c33.42-35.959,69.332-69.345,108.889-98.498
					c48.005-35.378,100.72-66.905,155.442-90.714c43.587-18.964,89.58-32.593,135.252-45.489
					c62.141-17.545,124.923-32.801,187.821-47.367c68.383-15.837,136.883-33.772,207.309-36.878
					c210.243-9.272,396.366,92.35,562.362,210.389c12.006,8.537,23.986,17.112,36.141,25.438c1.387,0.951,2.693-1.308,1.316-2.251
					c-64.114-43.918-126.292-89.94-194.335-127.861c-92.299-51.439-192.611-90.304-297.88-103.739
					c-59.182-7.553-119.34-6.873-178.255,2.667c-69.982,11.332-139.49,29.755-208.325,46.59
					c-98.805,24.165-200.833,48.009-291.638,95.21c-53.018,27.559-103.818,59.57-149.814,97.812
					c-34.305,28.521-65.252,60.51-95.083,93.608c-26.985,29.941-53.515,60.392-83.562,87.358
					c-35.945,32.259-76.493,58.529-120.007,79.398c-220.44,105.726-476.048,88.223-709.724,44.512
					c-199.734-37.362-393.444-116.792-556.407-239.076c-10.693-8.024-21.235-16.247-31.64-24.642
					C-650.829,662.769-652.684,664.602-651.378,665.656L-651.378,665.656z"/>
			</g>
		</g>
		<g>
			<g>
				
					<linearGradient id="SVGID_00000117639520860103438550000016008247196266706840_" gradientUnits="userSpaceOnUse" x1="-642.5998" y1="678.6223" x2="2272.3823" y2="678.6223">
					<stop  offset="0" style="stop-color:#9FC53B"/>
					<stop  offset="1" style="stop-color:#020203"/>
				</linearGradient>
				<path style="fill:url(#SVGID_00000117639520860103438550000016008247196266706840_);" d="M-642.184,653.148
					c132.267,119.028,301.148,198.966,471.526,245.834c103.443,28.455,211.227,45.437,318.213,53.285
					c127.087,9.323,256.195,2.339,379.725-30.358c102.843-27.221,199.172-71.388,278.139-143.542
					c30.111-27.513,57.811-57.502,87.004-85.959c35.148-34.262,72.685-65.797,113.562-93.049
					c48.771-32.514,101.765-61.373,156.589-82.279c44.97-17.149,91.778-29.564,138.42-41.203
					c62.304-15.548,125.124-29.008,188.023-41.903c66.923-13.72,133.695-29.107,202.306-30.153
					c204.101-3.113,384.132,96.478,544.937,212.242c11.378,8.191,22.731,16.418,34.227,24.445c1.379,0.963,2.683-1.296,1.316-2.251
					c-62.126-43.378-122.695-88.363-188.795-125.743c-90.711-51.297-189.277-90.374-292.884-105.012
					c-56.084-7.924-113.142-8.514-169.318-1.135c-68.746,9.031-137.171,25.665-204.906,40.321
					c-98.836,21.386-201.573,41.815-293.685,84.97c-54.76,25.656-107.481,55.875-155.605,92.604
					c-34.475,26.311-66.028,55.936-96.544,86.685c-28.634,28.853-56.753,58.296-87.984,84.401
					c-37.471,31.321-79.048,57.002-123.385,77.42C436.407,975.136,178.93,966.644-56.54,922.604
					c-198.675-37.158-395.411-117.086-553.262-245.215c-10.396-8.439-20.585-17.128-30.538-26.085
					C-641.585,650.185-643.434,652.023-642.184,653.148L-642.184,653.148z"/>
			</g>
		</g>
		<g>
			<g>
				
					<linearGradient id="SVGID_00000163761890402643222980000005290678613549122988_" gradientUnits="userSpaceOnUse" x1="-633.3789" y1="688.0591" x2="2277.0437" y2="688.0591">
					<stop  offset="0" style="stop-color:#9FC53B"/>
					<stop  offset="1" style="stop-color:#020203"/>
				</linearGradient>
				<path style="fill:url(#SVGID_00000163761890402643222980000005290678613549122988_);" d="M-632.99,640.64
					c130.16,127.92,306.745,210.495,481.21,257.023c221.093,58.964,464.319,72.325,686.64,13.767
					c103.612-27.291,201.353-69.385,283.981-138.447c68.28-57.07,128.859-120.892,205.184-168
					c49.111-30.312,102.078-56.761,156.602-75.804c44.605-15.579,90.81-26.623,136.88-36.872
					c61.511-13.685,123.469-25.332,185.481-36.492c65.703-11.825,131.497-25.761,198.506-26.313
					c202.016-1.666,380.643,96.731,539.327,212.383c11.426,8.327,22.816,16.704,34.334,24.904c1.369,0.975,2.673-1.285,1.316-2.251
					c-61.153-43.537-121.098-88.199-186.458-125.444c-89.585-51.049-186.997-90.07-289.401-105.206
					c-56.143-8.299-113.269-9.31-169.614-2.363c-65.602,8.088-130.99,21.861-195.914,34.173
					c-98.961,18.767-201.417,36.565-294.487,76.497c-53.633,23.011-105.467,50.372-153.349,83.834
					c-36.143,25.258-69.491,53.997-101.939,83.785c-30.456,27.96-60.539,56.382-93.489,81.44
					c-37.951,28.86-79.378,52.669-123.051,71.745c-222.039,96.984-475.098,98.771-710.116,56.561
					c-200.301-35.974-401.418-116.53-556.877-250.504c-11.294-9.734-22.287-19.807-32.922-30.258
					C-632.344,637.62-634.189,639.462-632.99,640.64L-632.99,640.64z"/>
			</g>
		</g>
		<g>
			<g>
				
					<linearGradient id="SVGID_00000072276269864653581000000007117844576277043094_" gradientUnits="userSpaceOnUse" x1="-624.1612" y1="697.2801" x2="2281.7051" y2="697.2801">
					<stop  offset="0" style="stop-color:#9FC53B"/>
					<stop  offset="1" style="stop-color:#020203"/>
				</linearGradient>
				<path style="fill:url(#SVGID_00000072276269864653581000000007117844576277043094_);" d="M-623.796,628.132
					c128.477,135.808,310.708,221.431,489.327,267.716c214.287,55.527,445.498,61.922,660.814,9.028
					c107.549-26.42,210.946-66.066,300.072-132.804c70.329-52.663,133.273-113.428,209.709-157.83
					c49.88-28.976,103.352-53.659,158.197-71.612c44.174-14.46,89.873-24.291,135.42-33.286
					c60.363-11.921,121.128-21.776,181.924-31.199c66.182-10.258,132.771-23.138,199.951-23.17
					c199.945-0.095,377.181,97.15,533.759,212.714c11.475,8.469,22.905,17.001,34.446,25.38c1.359,0.987,2.662-1.274,1.316-2.251
					c-60.181-43.699-119.509-88.058-184.13-125.181c-88.486-50.833-184.721-89.773-285.938-105.499
					c-123.171-19.137-245.308,6.141-366.781,26.116c-101.338,16.664-204.504,33.303-300.029,72.396
					c-92.201,37.733-172.448,90.661-248.617,154.187c-32.784,27.341-65.509,54.796-100.987,78.635
					c-43.263,29.07-89.978,52.396-138.692,70.846c-215.878,81.759-453.203,92.776-679.389,54.577
					C-226.671,882.571-432.54,800.696-586.741,660.73c-12.163-11.04-23.923-22.509-35.211-34.441
					C-623.108,625.067-624.949,626.913-623.796,628.132L-623.796,628.132z"/>
			</g>
		</g>
		<g>
			<g>
				
					<linearGradient id="SVGID_00000129896259287054426240000001236726273003833534_" gradientUnits="userSpaceOnUse" x1="-614.9464" y1="706.0273" x2="2286.366" y2="706.0273">
					<stop  offset="0" style="stop-color:#9FC53B"/>
					<stop  offset="1" style="stop-color:#020203"/>
				</linearGradient>
				<path style="fill:url(#SVGID_00000129896259287054426240000001236726273003833534_);" d="M-614.602,615.624
					c127.329,143.111,313.812,232.154,496.919,278.211c207.183,52.113,427.218,52.358,635.136,4.292
					c110.783-25.61,219.007-62.673,314.178-125.961c74.088-49.268,140.818-108.079,219.503-150.501
					c92.979-50.128,191.514-78.745,295.052-96.453c61.227-10.472,122.819-18.764,184.422-26.67
					c64.084-8.225,128.638-19.06,193.414-18.295c197.525,2.333,372.728,98.645,526.921,213.984
					c11.187,8.368,22.323,16.803,33.548,25.119c1.349,0.999,2.65-1.262,1.316-2.251c-59.212-43.866-117.927-87.94-181.81-124.958
					c-87.395-50.643-182.457-89.535-282.493-105.9c-121.099-19.811-242.819,2.665-363.016,19.267
					c-100.799,13.923-202.824,28.253-298.516,64.215c-50.774,19.082-99.977,42.243-146.348,70.436
					c-37.566,22.84-72.874,48.957-107.966,75.372c-34.278,25.802-68.737,51.382-105.539,73.524
					c-45.991,27.67-95.021,49.759-145.721,67.284c-212.581,73.481-442.603,92.511-664.516,57.001
					c-205.133-32.825-413.755-116.657-565.883-261.566c-12.766-12.161-25.037-24.82-36.757-37.992
					C-613.876,612.524-615.714,614.374-614.602,615.624L-614.602,615.624z"/>
			</g>
		</g>
		<g>
			<g>
				
					<linearGradient id="SVGID_00000163048246218976202860000000416610551230405563_" gradientUnits="userSpaceOnUse" x1="-605.7343" y1="714.7175" x2="2291.0266" y2="714.7175">
					<stop  offset="0" style="stop-color:#9FC53B"/>
					<stop  offset="1" style="stop-color:#020203"/>
				</linearGradient>
				<path style="fill:url(#SVGID_00000163048246218976202860000000416610551230405563_);" d="M-605.407,603.116
					c126.853,150.263,316.924,243.083,505.193,288.797c200.014,48.566,409.635,43.173,609.937-1.014
					c113.391-25.014,225.407-59.651,325.934-118.81c76.865-45.234,146.853-100.964,226.749-141.207
					c93.693-47.192,192.595-74.206,295.916-89.396c60.122-8.839,120.57-15.398,181.014-21.583
					c64.518-6.602,129.757-16.02,194.725-14.638c195.982,4.17,370.009,99.895,522.45,215.514
					c10.897,8.265,21.737,16.603,32.646,24.851c1.338,1.012,2.639-1.251,1.316-2.251c-58.244-44.038-116.35-87.847-179.498-124.78
					c-86.298-50.472-180.212-89.389-279.068-106.417c-120.526-20.761-243.486-0.82-363.807,12.728
					c-100.517,11.319-201.39,23.922-297.285,57.441c-92.911,32.476-175.031,81.163-256.192,135.955
					c-36.842,24.872-74.062,49.181-113.352,70.057c-51.004,27.1-104.794,48.215-159.97,65.131
					c-206.541,63.324-426.263,88.688-640.66,55.812c-206.535-31.67-416.336-117.534-566.151-266.723
					c-13.275-13.22-25.97-26.996-38.055-41.311C-604.648,599.989-606.484,601.841-605.407,603.116L-605.407,603.116z"/>
			</g>
		</g>
		<g>
			<g>
				
					<linearGradient id="SVGID_00000159443593168909188940000000437528736022793097_" gradientUnits="userSpaceOnUse" x1="-596.5244" y1="723.2618" x2="2295.6868" y2="723.2618">
					<stop  offset="0" style="stop-color:#9FC53B"/>
					<stop  offset="1" style="stop-color:#020203"/>
				</linearGradient>
				<path style="fill:url(#SVGID_00000159443593168909188940000000437528736022793097_);" d="M-596.213,590.608
					C-469.964,747.116-278.07,843.854-85.166,889.335c193.213,45.554,393.59,35.283,586.697-5.714
					c115.896-24.605,231.259-57.056,336.803-111.834c80.466-41.762,154.643-94.558,236.994-132.852
					c96.589-44.915,197.895-69.989,303.258-82.58c58.094-6.943,116.435-11.726,174.769-16.125
					c63.228-4.769,127.234-12.226,190.698-10.215c193.967,6.148,366.621,100.902,517.012,216.534
					c10.948,8.418,21.829,16.923,32.761,25.362c1.327,1.024,2.626-1.239,1.316-2.251c-57.277-44.214-114.781-87.784-177.192-124.65
					c-85.234-50.347-177.97-89.257-275.663-107.061c-55.699-10.151-112.071-12.813-168.521-8.933
					c-63.846,4.388-127.702,8.806-191.463,14.304c-100.804,8.692-201.447,19.385-298.159,50.466
					c-93.116,29.925-176.55,76.013-259.947,126.194c-39.595,23.825-79.655,46.845-121.495,66.541
					c-55.089,25.933-112.511,45.708-171.063,62.197c-200.391,56.433-412.628,86.663-620.099,56.52
					c-207.661-30.171-417.614-118.205-565.35-270.607c-14.216-14.665-27.738-29.97-40.561-45.866
					C-595.423,587.458-597.258,589.313-596.213,590.608L-596.213,590.608z"/>
			</g>
		</g>
		<g>
			<g>
				
					<linearGradient id="SVGID_00000135655678625147271480000008736481564278378904_" gradientUnits="userSpaceOnUse" x1="-587.3163" y1="732.081" x2="2300.5249" y2="732.081">
					<stop  offset="0" style="stop-color:#9FC53B"/>
					<stop  offset="1" style="stop-color:#020203"/>
				</linearGradient>
				<path style="fill:url(#SVGID_00000135655678625147271480000008736481564278378904_);" d="M-587.019,578.1
					C-462.317,738.993-271.877,839.923-76.11,885.449c187.161,43.524,379.007,29.878,565.895-8.454
					c117.829-24.168,235.862-54.328,345.765-103.999c83.364-37.677,161.131-86.532,245.054-123.033
					c96.281-41.875,197.156-66.544,301.405-77.108c57.313-5.807,114.86-9.154,172.384-12.021
					c63.781-3.179,128.37-8.676,192.234-6.643c194.682,6.198,368.666,100.871,518.931,218.063
					c10.932,8.526,21.786,17.15,32.673,25.734c1.303,1.028,3.161-0.805,1.843-1.843
					c-133.974-105.626-277.717-200.106-448.256-232.776c-56.356-10.796-112.846-13.233-170.075-10.824
					c-63.393,2.668-126.8,5.262-190.134,9.127c-102.358,6.247-203.581,15.923-302.118,45.664
					c-91.603,27.648-175.039,70.793-259.145,115.533c-43.315,23.042-87.191,44.979-132.61,63.607
					c-57.048,23.397-115.899,41.214-175.502,56.806c-195.099,51.039-401.321,85.784-602.922,57.427
					c-208.519-29.33-416.746-119.274-562.18-274.744c-14.876-15.902-28.969-32.499-42.308-49.709
					C-586.202,574.932-588.035,576.789-587.019,578.1L-587.019,578.1z"/>
			</g>
		</g>
		<g>
			<g>
				
					<linearGradient id="SVGID_00000075140501015716991570000010048655284228895155_" gradientUnits="userSpaceOnUse" x1="-578.2812" y1="734.6819" x2="2305.1873" y2="734.6819">
					<stop  offset="0" style="stop-color:#9FC53B"/>
					<stop  offset="1" style="stop-color:#020203"/>
				</linearGradient>
				<path style="fill:url(#SVGID_00000075140501015716991570000010048655284228895155_);" d="M-578.029,565.328
					c123.083,164.515,310.976,269.6,509.007,315.644c183.057,42.563,368.943,25.244,551.494-11.616
					c121.033-24.439,242.492-53.381,357.326-99.397c86.137-34.516,167.763-79.217,254.161-113.085
					c95.859-37.577,195.093-60.582,297.811-67.171c57.994-3.72,116.13-4.88,174.211-6.473c63.91-1.753,128.269-7.302,192.176-6.301
					c194.523,3.047,365.264,102.376,512.565,221.251c10.746,8.672,21.427,17.423,32.177,26.089c1.294,1.044,3.15-0.79,1.844-1.843
					c-55.323-44.598-110.555-88.942-170.933-126.669c-83.406-52.117-174.887-92.719-271.922-110.878
					c-55.381-10.364-110.333-11.321-166.444-8.737c-63.966,2.946-127.982,4.328-191.984,6.209
					c-53.607,1.576-107.327,3.312-160.71,8.725c-49.022,4.971-96.918,14.998-144.382,28.178
					c-90.431,25.11-174.38,64.553-259.08,104.193c-45.462,21.276-91.42,41.457-138.57,58.728
					c-59.714,21.873-120.888,38.665-182.586,53.896c-190.455,47.016-391.537,86.277-588.237,60.43
					c-209.051-27.469-415.828-119.6-559.483-276.632c-16.321-17.841-31.705-36.495-46.189-55.855
					C-576.771,562.684-579.035,563.983-578.029,565.328L-578.029,565.328z"/>
			</g>
		</g>
		<g>
			<g>
				
					<linearGradient id="SVGID_00000171682999598619365050000006241338081433533878_" gradientUnits="userSpaceOnUse" x1="-569.0789" y1="725.919" x2="2309.8494" y2="725.919">
					<stop  offset="0" style="stop-color:#9FC53B"/>
					<stop  offset="1" style="stop-color:#020203"/>
				</linearGradient>
				<path style="fill:url(#SVGID_00000171682999598619365050000006241338081433533878_);" d="M-568.835,552.82
					C-447.249,720.53-262.09,829.956-61.933,876.493c82.017,19.069,165.224,26.959,249.348,23.69
					c97.295-3.782,193.889-19.607,289.201-38.778c120.95-24.328,242.473-51.414,359.092-92.1
					c88.947-31.032,174.287-71.254,263.006-102.834c95.922-34.144,195.206-56.904,297.044-61.807
					c55.966-2.694,112.045-2.453,168.061-2.411c64.195,0.048,128.452-2.021,192.624-1.579
					c197.221,1.358,370.564,101.503,518.851,223.203c10.788,8.854,21.501,17.797,32.272,26.673c1.285,1.059,3.14-0.775,1.844-1.843
					c-55.796-45.978-111.795-91.356-173.186-129.813c-83.503-52.309-175.236-92.772-272.517-110.606
					c-56.943-10.439-113.285-9.989-170.923-9.182c-63.303,0.886-126.61,0.307-189.916,0.609
					c-51.845,0.248-103.828,0.919-155.492,5.625c-49.997,4.555-99.261,14.663-147.812,27.281
					c-90.396,23.492-175.733,60.171-262.046,95.185c-106.948,43.384-216.023,75.709-328.366,101.945
					c-185.702,43.367-381.448,86.099-573.046,61.924c-209.333-26.413-413.833-121.64-554.958-280.609
					c-16.905-19.042-32.786-38.946-47.731-59.56C-567.559,550.159-569.822,551.458-568.835,552.82L-568.835,552.82z"/>
			</g>
		</g>
		<g>
			<g>
				
					<linearGradient id="SVGID_00000144325641435924146740000010067583966054414479_" gradientUnits="userSpaceOnUse" x1="-559.8774" y1="716.7138" x2="2314.5115" y2="716.7138">
					<stop  offset="0" style="stop-color:#9FC53B"/>
					<stop  offset="1" style="stop-color:#020203"/>
				</linearGradient>
				<path style="fill:url(#SVGID_00000144325641435924146740000010067583966054414479_);" d="M-559.641,540.312
					C-440.294,709.647-259.8,823.369-59.232,870.98c80.382,19.081,161.86,26.969,244.375,23.049
					c91.75-4.359,182.736-20.095,272.684-37.976c121.493-24.152,243.675-49.729,362.423-85.196
					c92.799-27.717,182.779-63.525,274.906-93.221c95.079-30.647,193.443-52.936,293.326-59.139
					c118.771-7.376,238.318-0.37,357.021,5.043c113.024,5.154,221.23,34.781,322.206,85.654
					c75.795,38.187,145.812,86.614,211.49,140.172c11.098,9.05,22.079,18.241,33.034,27.463c1.276,1.074,3.129-0.761,1.843-1.843
					c-133.797-112.644-283.704-208.718-458.18-241.853c-58.314-11.075-117.378-12.627-176.525-15.135
					c-61.121-2.591-122.285-4.843-183.469-4.948c-101.931-0.174-201.309,9.161-300.488,33.323
					c-90.697,22.096-177.715,55.591-265.737,86.179c-112.915,39.238-227.872,68.071-344.503,93.895
					c-177.618,39.329-364.401,83.129-547.353,59.832c-208.169-26.508-408.029-124.31-545.939-284.02
					c-17.484-20.248-33.863-41.4-49.272-63.264C-558.349,537.635-560.61,538.936-559.641,540.312L-559.641,540.312z"/>
			</g>
		</g>
		<g>
			<g>
				
					<linearGradient id="SVGID_00000049223887995312395560000018419933543299167419_" gradientUnits="userSpaceOnUse" x1="-550.6766" y1="714.674" x2="2319.1731" y2="714.674">
					<stop  offset="0" style="stop-color:#9FC53B"/>
					<stop  offset="1" style="stop-color:#020203"/>
				</linearGradient>
				<path style="fill:url(#SVGID_00000049223887995312395560000018419933543299167419_);" d="M-550.447,527.804
					c117.82,171.488,294.772,289.953,496.757,338.32c78.52,18.802,158.053,26.462,238.666,21.807
					c88.157-5.09,175.434-21.35,261.86-38.72c120.858-24.291,242.272-48.758,361.619-79.687
					c97.282-25.211,192.555-57.103,289.273-84.247c94.962-26.651,192.641-47.313,291.324-52.689
					c117.705-6.412,236.093,3.24,353.414,12.106c59.881,4.525,118.468,11.838,176.406,28.191
					c52.521,14.824,103.379,35.209,152.052,59.841c76.398,38.662,146.972,87.737,212.816,142.288
					c11.157,9.243,22.183,18.642,33.161,28.096c1.265,1.09,3.117-0.746,1.843-1.843
					c-133.801-115.236-285.921-211.972-461.823-245.748c-60.032-11.527-121.469-14.164-182.337-18.376
					c-60.202-4.166-120.486-7.725-180.834-8.748c-101.699-1.724-201.313,8.116-300.652,30.076
					c-91.051,20.128-179.603,49.512-268.906,76.017c-116.806,34.668-235.276,60.8-354.346,86.327
					c-100.266,21.496-200.839,43.626-302.636,56.666c-75.01,9.609-150.927,13.156-226.137,3.611
					c-207.738-26.363-403.612-127.212-538.79-288.035c-17.933-21.336-34.698-43.601-50.478-66.569
					C-549.14,525.114-551.4,526.416-550.447,527.804L-550.447,527.804z"/>
			</g>
		</g>
		<g>
			<g>
				
					<linearGradient id="SVGID_00000068664057563494934900000001481697308969070256_" gradientUnits="userSpaceOnUse" x1="-541.4764" y1="721.5608" x2="2323.8345" y2="721.5608">
					<stop  offset="0" style="stop-color:#9FC53B"/>
					<stop  offset="1" style="stop-color:#020203"/>
				</linearGradient>
				<path style="fill:url(#SVGID_00000068664057563494934900000001481697308969070256_);" d="M-541.253,515.296
					c59.085,88.012,132.988,165.577,220.526,225.667c83.648,57.42,178.124,97.961,276.764,121.304
					c77.296,18.293,155.46,25.154,234.69,19.284c86.653-6.419,172.245-23.986,257.187-41.551
					c57.379-11.865,114.668-24.166,172.041-36.062c63.547-13.176,127.17-25.465,189.818-42.566
					c97.552-26.629,191.783-64.037,289.394-90.309c44.334-11.932,89.535-20.773,135.4-23.849
					c48.511-3.254,95.696,2.619,143.954,6.077c116.562,8.353,233.662,2.866,350.283,11.195
					c63.349,4.525,125.97,12.281,187.263,29.389c53.299,14.877,104.946,35.387,154.341,60.288
					c78.417,39.532,150.789,89.974,217.871,146.467c11.218,9.447,22.289,19.064,33.291,28.761c1.254,1.106,3.105-0.731,1.844-1.843
					c-135.035-119.026-291.08-217.175-470.329-251.092c-120.842-22.866-246.002-19.776-368.456-21.767
					c-52.57-0.855-104.576-3.912-156.902-8.786c-45.129-4.204-90.579-3.149-135.47,3.084
					c-92.015,12.777-179.551,46.02-267.397,74.764c-53.941,17.65-108.304,33.996-163.462,47.429
					c-62.831,15.301-126.575,26.922-189.855,40.208c-98.349,20.649-196.615,43.186-296.084,57.898
					c-76.008,11.242-153.014,16.338-229.503,6.828c-207.931-25.851-400.352-130.192-533.283-292.293
					c-18.379-22.412-35.521-45.78-51.673-69.84C-539.932,512.594-542.191,513.897-541.253,515.296L-541.253,515.296z"/>
			</g>
		</g>
		<g>
			<g>
				
					<linearGradient id="SVGID_00000147207828418939074470000005605199190980213426_" gradientUnits="userSpaceOnUse" x1="-532.2767" y1="728.448" x2="2328.4954" y2="728.448">
					<stop  offset="0" style="stop-color:#9FC53B"/>
					<stop  offset="1" style="stop-color:#020203"/>
				</linearGradient>
				<path style="fill:url(#SVGID_00000147207828418939074470000005605199190980213426_);" d="M-532.059,502.788
					c59.407,90.379,133.401,170.927,222.112,233.227c81.24,57.053,173.238,97.678,269.67,120.949
					c76.143,18.375,153.233,25.266,231.32,18.667c83.99-7.098,166.774-25.438,249.067-42.939
					c54.63-11.618,109.236-23.345,163.981-34.417c64.389-13.023,129.14-24.243,193.124-39.201
					c101.772-23.792,201.111-56.76,302.834-80.612c45.033-10.559,90.706-18.718,136.913-21.7
					c47.94-3.095,94.498,1.409,142.064,6.719c115.62,12.906,232.474,9.62,348.33,20.097c64.167,5.802,128.015,14.364,190.108,31.992
					c53.898,15.301,106.122,36.232,156.049,61.619c79.052,40.196,152.031,91.395,219.302,149.023
					c11.279,9.663,22.397,19.51,33.423,29.461c1.243,1.122,3.092-0.716,1.844-1.843
					c-135.75-122.519-295.053-221.826-476.841-256.673c-119.709-22.947-242.662-23.164-363.998-28.56
					c-52.483-2.334-104.159-8.669-156.402-13.335c-45.76-4.087-91.81-2.749-137.352,3.138
					c-93.604,12.098-184.051,41.433-274.694,66.594c-119.321,33.121-240.461,55.073-361.583,80.243
					c-95.231,19.79-190.109,42.472-286.206,57.779c-73.416,11.694-147.749,17.134-221.772,7.92
					c-207.499-25.828-395.779-133.523-526.183-296.387c-18.806-23.487-36.332-47.938-52.855-73.076
					C-530.725,500.076-532.984,501.38-532.059,502.788L-532.059,502.788z"/>
			</g>
		</g>
		<g>
			<g>
				
					<linearGradient id="SVGID_00000183942908076378561170000008649362977137335439_" gradientUnits="userSpaceOnUse" x1="-523.0776" y1="735.3356" x2="2333.156" y2="735.3356">
					<stop  offset="0" style="stop-color:#9FC53B"/>
					<stop  offset="1" style="stop-color:#020203"/>
				</linearGradient>
				<path style="fill:url(#SVGID_00000183942908076378561170000008649362977137335439_);" d="M-522.864,490.279
					c59.438,92.192,133.05,175.296,222.235,239.687c78.358,56.574,167.307,97.435,261.015,120.922
					c75.029,18.805,151.307,26.217,228.408,19.186c80.48-7.339,159.619-26.067,238.381-43.417
					c117.398-25.861,235.519-46.779,353.356-70.333c107.516-21.491,213.358-50.6,320.934-71.707
					c93.667-18.378,186.575-25.34,281.335-11.594c115.229,16.716,232.277,16.086,347.93,29.059
					c64.723,7.26,129.357,17.242,191.911,35.749c53.988,15.973,106.286,37.429,156.275,63.297
					c78.906,40.831,151.806,92.494,218.683,150.845c11.256,9.821,22.338,19.838,33.307,29.98c1.23,1.138,3.078-0.701,1.843-1.843
					c-135.369-125.161-296.415-225.128-479.009-262.123c-120.951-24.506-244.534-27.721-367.208-36.805
					c-51.978-3.849-103.31-12.785-155.19-16.922c-45.193-3.603-90.625-2.19-135.652,2.842
					c-97.096,10.849-191.994,36.48-286.941,58.57c-121.735,28.323-244.996,48.113-367.298,73.63
					c-91.391,19.067-182.189,41.82-274.238,57.586c-72.027,12.337-144.898,17.962-217.631,8.505
					C-156.611,838.584-339.428,727.8-466.929,564.806c-19.098-24.414-36.892-49.795-53.685-75.843
					C-521.519,487.558-523.777,488.864-522.864,490.279L-522.864,490.279z"/>
			</g>
		</g>
		<g>
			<g>
				
					<linearGradient id="SVGID_00000067953699782750243840000017855902193581142148_" gradientUnits="userSpaceOnUse" x1="-513.8789" y1="742.2235" x2="2337.8164" y2="742.2235">
					<stop  offset="0" style="stop-color:#9FC53B"/>
					<stop  offset="1" style="stop-color:#020203"/>
				</linearGradient>
				<path style="fill:url(#SVGID_00000067953699782750243840000017855902193581142148_);" d="M-513.67,477.771
					c59.896,94.57,133.733,180.657,224.112,247.34c76.24,56.252,162.971,97.29,254.77,120.703
					c72.478,18.485,146.472,26.055,221.03,18.899c77.278-7.417,153.062-26.577,228.543-43.945
					c114.339-26.309,229.097-47.836,344.703-67.728c112.937-19.433,224.887-44.531,338.063-62.552
					c94.62-15.067,190.869-23.19,286.134-8.985c113.384,16.906,227.801,22.209,341.427,36.934
					c123.447,15.998,242.178,45.61,353.139,103.188c80.98,42.02,155.766,95.301,223.89,155.863
					c11.317,10.06,22.444,20.331,33.434,30.746c1.218,1.154,3.064-0.686,1.843-1.843
					c-136.456-129.318-300.882-230.226-486.393-269.442c-121.019-25.583-244.1-31.836-366.793-44.59
					c-50.599-5.26-100.655-15.369-151.392-19.087c-45.203-3.312-90.616-2.148-135.732,1.878
					c-101.929,9.097-202.385,31.034-302.708,50.401c-123.544,23.85-248.076,42.135-371.164,68.343
					c-86.897,18.503-173.011,41.249-260.429,57.226c-71.35,13.04-143.424,18.484-215.525,8.341
					c-91.525-12.876-180.8-42.747-261.224-88.336c-96.559-54.736-178.874-131.516-245.728-219.735
					c-18.345-24.208-35.496-49.276-51.746-74.933C-512.315,475.042-514.572,476.348-513.67,477.771L-513.67,477.771z"/>
			</g>
		</g>
		<g>
			<g>
				
					<linearGradient id="SVGID_00000007407424646224419270000004832841366557684381_" gradientUnits="userSpaceOnUse" x1="-504.6805" y1="749.1118" x2="2342.4763" y2="749.1118">
					<stop  offset="0" style="stop-color:#9FC53B"/>
					<stop  offset="1" style="stop-color:#020203"/>
				</linearGradient>
				<path style="fill:url(#SVGID_00000007407424646224419270000004832841366557684381_);" d="M-504.476,465.263
					c108.77,174.596,264.854,318.106,466.526,373.218c70.98,19.397,144.08,28.068,217.493,21.263
					c73.473-6.811,145.317-25.878,216.833-43.181c107.965-26.121,216.44-49.016,326.311-65.626
					c122.234-18.479,244.065-40.488,366.786-55.579c94.422-11.611,190.285-18.33,285.057-6.706
					c53.482,6.559,106.439,16.542,160.03,22.659c61.839,7.058,123.8,13.1,185.389,22.187
					c124.535,18.376,245.435,49.679,357.498,108.162c82.684,43.151,159.073,97.829,228.187,160.353
					c11.737,10.618,23.258,21.471,34.607,32.502c1.204,1.17,3.049-0.672,1.844-1.843
					c-140.214-136.272-309.916-236.592-501.621-279.685c-121.226-27.25-244.913-35.132-367.71-51.93
					c-48.272-6.603-95.859-16.201-144.568-19.298c-45.62-2.901-91.409-2.036-136.996,1.036
					c-107.913,7.272-214.901,25.579-321.596,42.593c-124.475,19.849-249.131,37.532-372.258,64.881
					c-149.897,33.295-301.888,87.254-457.26,62.424c-88.052-14.071-173.296-44.374-250.058-89.809
					c-94.419-55.886-174.275-133.419-239.513-221.199c-18.689-25.146-36.165-51.148-52.729-77.737
					C-503.11,462.527-505.367,463.834-504.476,465.263L-504.476,465.263z"/>
			</g>
		</g>
		<g>
			<g>
				
					<linearGradient id="SVGID_00000114074013139773522420000015690024277091206333_" gradientUnits="userSpaceOnUse" x1="-495.4825" y1="756.0002" x2="2347.136" y2="756.0002">
					<stop  offset="0" style="stop-color:#9FC53B"/>
					<stop  offset="1" style="stop-color:#020203"/>
				</linearGradient>
				<path style="fill:url(#SVGID_00000114074013139773522420000015690024277091206333_);" d="M-495.282,452.755
					C-388.948,626.066-237.873,774.308-38.617,831.78c69.543,20.058,141.923,29.602,214.187,23.044
					c71.797-6.516,141.717-26.292,211.316-44.1c104.215-26.665,209.105-49.57,315.573-65.313
					c126.092-18.645,252.856-35.998,379.87-47.02c96.797-8.4,194.73-12.437,291.488-1.359
					c53.588,6.135,106.552,17.262,159.997,24.62c60.707,8.357,121.57,15.624,182.03,25.682
					c126.395,21.026,249.718,54.999,363.354,115.249c83.517,44.282,160.75,100.087,230.213,164.128
					c12.062,11.121,23.881,22.499,35.498,34.084c1.189,1.186,3.033-0.657,1.844-1.843
					c-57.773-57.617-121.147-109.593-189.777-153.791c-99.519-64.091-208.332-109.021-323.287-136.773
					c-121.52-29.337-245.981-39.449-369.066-59.667c-45.504-7.475-90.42-15.323-136.505-18.42
					c-47.475-3.191-95.129-3.162-142.657-1.248c-114.974,4.628-229.414,19.298-343.378,34.515
					c-121.311,16.198-242.061,33.61-361.356,61.36c-78.435,18.246-155.85,41.526-234.917,56.958
					c-69.702,13.604-139.753,16.553-209.912,4.352c-84.74-14.738-166.205-45.217-239.538-90.22
					c-93.071-57.116-171.189-135.737-235.361-223.599c-19.15-26.219-37.051-53.307-54.028-80.978
					C-493.907,450.012-496.163,451.32-495.282,452.755L-495.282,452.755z"/>
			</g>
		</g>
		<g>
			<g>
				
					<linearGradient id="SVGID_00000104665195603597107780000012051352777162869892_" gradientUnits="userSpaceOnUse" x1="-486.2848" y1="762.8889" x2="2351.7952" y2="762.8889">
					<stop  offset="0" style="stop-color:#9FC53B"/>
					<stop  offset="1" style="stop-color:#020203"/>
				</linearGradient>
				<path style="fill:url(#SVGID_00000104665195603597107780000012051352777162869892_);" d="M-486.088,440.247
					c104.161,172.189,250.817,325.154,447.853,384.998c67.941,20.635,139.409,30.888,210.352,24.717
					c69.281-6.026,136.465-26.014,203.291-44.171c99.883-27.139,200.497-50.242,302.919-65.621
					c129.099-19.385,259.771-30.617,390.253-34.382c100.944-2.912,201.929-0.649,302.712,5.541
					c113.248,6.955,225.828,18.299,336.853,42.453c127.423,27.721,254.841,65.818,370.084,127.76
					c85.687,46.056,164.944,103.828,235.731,170.51c12.122,11.419,23.982,23.11,35.617,35.024c1.174,1.202,3.017-0.642,1.844-1.843
					c-58.69-60.097-123.684-113.992-194.109-159.824c-103.391-67.286-216.066-111.987-334.381-145.511
					c-209.645-59.403-428.332-76.687-645.535-77.964c-237.696-1.398-478.781,20.576-709.939,77.165
					c-75.946,18.592-150.719,42.762-227.41,58.195c-69.345,13.955-138.804,15.443-208.434,2.356
					c-193.228-36.32-349.076-161.309-461.557-318.512c-19.076-26.66-36.926-54.159-53.891-82.205
					C-484.704,437.498-486.96,438.807-486.088,440.247L-486.088,440.247z"/>
			</g>
		</g>
		<g>
			<g>
				
					<linearGradient id="SVGID_00000093892977090878702860000005760433314846280638_" gradientUnits="userSpaceOnUse" x1="-477.0873" y1="769.7778" x2="2356.4541" y2="769.7778">
					<stop  offset="0" style="stop-color:#9FC53B"/>
					<stop  offset="1" style="stop-color:#020203"/>
				</linearGradient>
				<path style="fill:url(#SVGID_00000093892977090878702860000005760433314846280638_);" d="M-476.894,427.739
					c102.226,171.233,244.991,328.874,439.975,391.119c65.785,21.001,135.723,31.851,204.773,26.38
					c67.52-5.35,132.653-25.569,197.387-44.276c94.886-27.421,190.499-50.805,288.164-66.052
					c132.37-20.665,266.795-30.453,400.731-31.461c105.436-0.793,210.768,4.637,315.731,14.413
					c111.618,10.396,223.282,23.035,332.833,47.392c129.271,28.741,257.908,70.814,374.364,134.508
					c87.922,48.088,169.302,108.035,241.45,177.576c12.178,11.738,24.077,23.76,35.729,36.019c1.158,1.219,3-0.627,1.843-1.843
					c-59.619-62.722-126.257-118.683-198.507-166.332c-104.584-68.973-219.627-116.974-339.407-152.638
					c-119.332-35.53-241.752-55.551-365.349-68.879c-94.276-10.166-188.747-18.27-283.545-21.367
					c-240.085-7.844-484.369,11.134-717.257,71.857c-72.415,18.881-143.593,43.53-216.948,58.643
					c-68.235,14.058-136.712,14.305-205.066,0.656c-190.583-38.058-341.647-167.811-450.879-323.649
					c-18.992-27.096-36.812-54.974-53.772-83.382C-475.502,424.984-477.757,426.294-476.894,427.739L-476.894,427.739z"/>
			</g>
		</g>
		<g>
			<g>
				
					<linearGradient id="SVGID_00000040560299850992856060000002683166416167463058_" gradientUnits="userSpaceOnUse" x1="-467.8901" y1="776.6668" x2="2361.1125" y2="776.6668">
					<stop  offset="0" style="stop-color:#9FC53B"/>
					<stop  offset="1" style="stop-color:#020203"/>
				</linearGradient>
				<path style="fill:url(#SVGID_00000040560299850992856060000002683166416167463058_);" d="M-467.7,415.231
					c100.606,170.608,240.114,332.961,433.45,397.557c64.038,21.396,132.715,32.553,200.245,27.543
					c65.305-4.845,127.964-25.076,190.173-44.228c91.036-28.027,182.77-52.025,276.891-67.301
					c134.425-21.819,271.301-30.643,407.423-29.184c110.268,1.181,220.267,9.833,329.654,23.548
					c110.382,13.84,221.253,29.063,329.797,53.684c232.04,52.633,451.867,156.862,622.406,324.987
					c12.487,12.311,24.667,24.926,36.571,37.801c1.141,1.235,2.981-0.612,1.843-1.843
					c-148.226-160.328-339.696-270.078-547.658-333.674c-117.248-35.855-238.172-55.155-359.314-72.312
					c-97.617-13.825-195.55-25.231-294.02-30.773c-240.948-13.56-487.427,2.851-720.568,67.735
					c-69.742,19.41-138.176,44.882-209.13,59.691c-66.641,13.908-133.879,13.014-200.45-1.038
					c-188.472-39.783-335.236-174.65-441.674-329.402c-18.826-27.372-36.516-55.492-53.389-84.105
					C-466.3,412.471-468.555,413.781-467.7,415.231L-467.7,415.231z"/>
			</g>
		</g>
		<g>
			<g>
				
					<linearGradient id="SVGID_00000067918056031193749550000012240522569594520473_" gradientUnits="userSpaceOnUse" x1="-458.6931" y1="783.5559" x2="2365.7708" y2="783.5559">
					<stop  offset="0" style="stop-color:#9FC53B"/>
					<stop  offset="1" style="stop-color:#020203"/>
				</linearGradient>
				<path style="fill:url(#SVGID_00000067918056031193749550000012240522569594520473_);" d="M-458.506,402.723
					c98.96,169.761,235.223,336.475,426.457,403.713c61.915,21.769,128.85,33.283,194.526,29.2
					c64.576-4.015,126.129-24.451,187.191-44.395c87.457-28.566,175.539-53.283,266.345-68.824
					c136.097-23.291,275.026-31.105,412.963-27.406c115.678,3.102,230.913,14.963,345.202,32.861
					c107.343,16.81,215.075,35.43,320.963,59.76c236.108,54.249,459.609,165.466,631.07,338.632
					c12.781,12.908,25.226,26.142,37.367,39.654c1.124,1.251,2.963-0.598,1.844-1.843
					c-148.226-164.956-345.082-283.538-556.327-348.767c-115.406-35.636-235.055-55.666-353.81-76.525
					c-99.961-17.558-200.46-31.907-301.68-39.808c-241.891-18.881-490.317-4.999-723.806,64.246
					c-67.349,19.974-133.344,46.166-202.192,60.731c-66.281,14.022-133.73,12.035-199.694-2.938
					c-183.792-41.718-325.231-179.264-428.328-330.677c-19.709-28.945-38.208-58.68-55.841-88.93
					C-457.099,399.959-459.353,401.269-458.506,402.723L-458.506,402.723z"/>
			</g>
		</g>
		<g>
			<g>
				
					<linearGradient id="SVGID_00000045619947804765674270000000821401684534545052_" gradientUnits="userSpaceOnUse" x1="-459.5025" y1="761.0215" x2="2361.1011" y2="761.0215">
					<stop  offset="0" style="stop-color:#9FC53B"/>
					<stop  offset="1" style="stop-color:#020203"/>
				</linearGradient>
				<path style="fill:url(#SVGID_00000045619947804765674270000000821401684534545052_);" d="M2360.755,1137.36
					c-139.525-156.174-322.922-269.306-520.945-335.433c-117.681-39.297-239.974-59.629-362.118-79.372
					c-118.686-19.184-237.639-35.16-357.841-40.742c-234.955-10.91-473.847,7.287-700.48,72.375
					c-65.798,18.897-131.025,42.365-198.86,53.041c-67.087,10.559-135.231,5.042-200.853-11.769
					c-179.537-45.993-318.978-179.703-422.332-328.104c-19.12-27.454-37.141-55.646-54.382-84.314
					c-0.864-1.436-3.119-0.127-2.251,1.316c99.517,165.475,234.11,325.354,419.709,395.152
					c61.372,23.08,127.838,36.51,193.522,35.937c64.433-0.561,126.506-17.139,187.828-35.448
					c83.588-24.957,167.022-48.98,252.985-64.545c130.568-23.642,264.167-33.117,396.756-33.727
					c130.581-0.601,260.671,9.724,389.854,28.484c116.367,16.899,233.643,34.431,347.887,62.565
					c223.054,54.931,434.021,164.85,595.45,329.788c11.692,11.946,23.09,24.173,34.227,36.638
					C2360.031,1140.457,2361.87,1138.608,2360.755,1137.36L2360.755,1137.36z"/>
			</g>
		</g>
		<g>
			<g>
				
					<linearGradient id="SVGID_00000126292832403009409470000015360384729484207806_" gradientUnits="userSpaceOnUse" x1="-460.3123" y1="738.4875" x2="2356.4312" y2="738.4875">
					<stop  offset="0" style="stop-color:#9FC53B"/>
					<stop  offset="1" style="stop-color:#020203"/>
				</linearGradient>
				<path style="fill:url(#SVGID_00000126292832403009409470000015360384729484207806_);" d="M2356.087,1110.646
					c-133.968-150.838-309.057-260.31-499.026-326.294c-120.109-41.719-245.127-63.106-370.621-81.082
					c-114.54-16.407-229.103-31.522-344.861-35.8c-133.191-4.922-266.456,1.192-399.021,14.427
					c-103.854,10.369-206.297,28.935-307.2,55.561c-69.184,18.256-137.961,41.124-209.144,50.395
					c-68.085,8.868-136.895,2.346-203.123-15.197c-178.766-47.354-319.519-177.081-425.169-324.175
					c-19.583-27.266-38.076-55.283-55.781-83.801c-0.883-1.423-3.139-0.115-2.251,1.316
					C-358.24,530.072-222.006,685.782-37.166,756.026c62.496,23.75,129.837,38.002,196.798,38.561
					c66.226,0.553,130.434-14.761,193.924-32.094c86.828-23.705,173.417-46.802,262.348-61.441
					c130.503-21.482,263.881-30.748,396.055-32.501c126.507-1.678,252.358,7.066,377.725,23.736
					c118.929,15.813,238.748,31.616,355.171,61.203c216.092,54.916,420.056,162.667,576.181,323.233
					c11.344,11.666,22.404,23.601,33.209,35.767C2355.36,1113.746,2357.198,1111.897,2356.087,1110.646L2356.087,1110.646z"/>
			</g>
		</g>
		<g>
			<g>
				
					<linearGradient id="SVGID_00000021121138401111504930000000179307384755684232_" gradientUnits="userSpaceOnUse" x1="-461.1222" y1="715.9539" x2="2351.7615" y2="715.9539">
					<stop  offset="0" style="stop-color:#9FC53B"/>
					<stop  offset="1" style="stop-color:#020203"/>
				</linearGradient>
				<path style="fill:url(#SVGID_00000021121138401111504930000000179307384755684232_);" d="M2351.419,1083.931
					c-129.758-146.975-298.868-253.895-483.053-319.267c-115.381-40.951-235.399-63.298-356.497-79.18
					c-118.192-15.501-236.733-30.19-356.007-33.413c-129.509-3.499-258.977,4.242-387.828,16.876
					c-107.291,10.52-213.042,27.527-317.815,53.005c-71.57,17.405-142.924,39.067-216.412,46.837
					c-70.409,7.445-141.268-0.526-209.367-19.35c-178.116-49.237-319.934-176.249-427.668-322.288
					c-19.403-26.302-37.788-53.325-55.432-80.835c-0.903-1.408-3.16-0.102-2.251,1.316
					c103.86,161.936,241.075,313.352,424.229,384.323c64.158,24.861,133.174,40.263,202.046,42.179
					c68.255,1.898,134.831-12.077,200.709-28.44c89.678-22.274,179.013-44.469,270.484-58.344
					c128.673-19.517,259.952-29.518,390.023-32.715c126.079-3.099,251.314,4.776,376.455,19.831
					c119.101,14.328,238.693,28.635,354.98,59.025c210.582,55.032,408.592,160.91,560.278,318.337
					c10.678,11.083,21.096,22.409,31.281,33.946C2350.688,1087.035,2352.526,1085.185,2351.419,1083.931L2351.419,1083.931z"/>
			</g>
		</g>
		<g>
			<g>
				
					<linearGradient id="SVGID_00000107574272295475520540000002303218488715290005_" gradientUnits="userSpaceOnUse" x1="-461.9324" y1="693.4205" x2="2347.0916" y2="693.4205">
					<stop  offset="0" style="stop-color:#9FC53B"/>
					<stop  offset="1" style="stop-color:#020203"/>
				</linearGradient>
				<path style="fill:url(#SVGID_00000107574272295475520540000002303218488715290005_);" d="M2346.751,1057.217
					c-123.715-140.99-284.252-245.046-459.779-309.709c-114.536-42.194-233.785-66.365-354.682-81.32
					c-116.537-14.415-234.027-27.015-351.474-29.889c-128.739-3.15-257.411,6.452-385.418,19.318
					c-109.828,11.039-218.256,26.015-326.051,50.048c-74.326,16.572-148.529,37.283-224.622,43.987
					c-73.476,6.474-147.089-2.811-217.855-23.067C-150.898,675.701-294.056,551.25-404.102,406.24
					c-19.328-25.469-37.692-51.642-55.359-78.287c-0.923-1.392-3.182-0.088-2.251,1.316
					c106.3,160.325,245.159,308.068,427.617,379.471c65.805,25.752,136.447,42.165,207.132,45.214
					c70.939,3.06,140.465-10.059,209.32-25.683c92.339-20.953,184.33-42.017,278.239-54.931
					c127.765-17.569,257.623-29.057,386.517-33.5c124.119-4.278,247.316,3.219,370.708,16.256
					c120.007,12.68,239.913,26.458,356.661,58.195c203.958,55.443,394.699,159.236,541.225,312.823
					c9.96,10.44,19.685,21.101,29.202,31.947C2346.017,1060.323,2347.854,1058.474,2346.751,1057.217L2346.751,1057.217z"/>
			</g>
		</g>
		<g>
			<g>
				
					<linearGradient id="SVGID_00000109015115693016026860000008770889113145511317_" gradientUnits="userSpaceOnUse" x1="-462.7429" y1="670.8875" x2="2342.4216" y2="670.8875">
					<stop  offset="0" style="stop-color:#9FC53B"/>
					<stop  offset="1" style="stop-color:#020203"/>
				</linearGradient>
				<path style="fill:url(#SVGID_00000109015115693016026860000008770889113145511317_);" d="M2342.084,1030.502
					c-119.165-136.648-273.766-239.096-443.14-302.673c-112.818-42.347-230.309-67.742-349.794-81.975
					c-115.384-13.744-232.316-23.841-348.513-26.103c-125.849-2.45-250.993,8.915-376.008,21.991
					c-112.853,11.804-224.781,25.395-336.019,48.151c-77.489,15.852-154.968,35.712-234.123,41.126
					c-76.483,5.231-152.813-5.646-226.129-27.491c-174.766-52.072-317.6-171.553-429.154-312.86
					c-20.776-26.318-40.501-53.432-59.466-81.08c-0.943-1.375-3.203-0.073-2.251,1.316
					c108.38,158.005,248.188,301.697,428.994,373.873c67.457,26.928,139.761,44.637,212.329,49.161
					c73.62,4.59,146.114-7.32,217.967-22.136c98.375-20.285,196.309-41.038,296.14-53.129
					c123.633-14.973,248.227-28.847,372.679-34.398c122.712-5.473,244.615,1.764,366.817,12.611
					c119.97,10.649,239.349,24.757,355.634,57.351c197.828,55.45,381.943,157.104,523.838,306.883
					c9.67,10.208,19.114,20.626,28.356,31.224C2341.345,1033.612,2343.182,1031.762,2342.084,1030.502L2342.084,1030.502z"/>
			</g>
		</g>
		<g>
			<g>
				
					<linearGradient id="SVGID_00000124150260436725515680000006657412329893173890_" gradientUnits="userSpaceOnUse" x1="-463.5536" y1="648.355" x2="2337.7517" y2="648.355">
					<stop  offset="0" style="stop-color:#9FC53B"/>
					<stop  offset="1" style="stop-color:#020203"/>
				</linearGradient>
				<path style="fill:url(#SVGID_00000124150260436725515680000006657412329893173890_);" d="M2337.416,1003.788
					c-113.611-131.107-260.739-231.427-422.21-294.121c-112.805-43.799-230.846-70.757-350.895-84.798
					c-114.991-13.45-231.986-20.919-347.746-22.34c-121.588-1.492-242.086,10.444-362.671,24.644
					c-113.658,13.384-227.127,25.277-339.709,46.273c-80.802,15.069-161.62,34.24-243.911,38.991
					c-80.24,4.633-159.982-7.407-236.715-30.764C-141.16,628.488-285.76,511.728-399.98,371.72
					c-21.301-26.111-41.574-53.024-61.084-80.495c-0.964-1.357-3.225-0.056-2.251,1.316
					C-351.796,449.567-209.424,590.451-28.01,662.835c69.67,27.798,144.149,46.493,219.053,51.794
					c76.712,5.429,152.51-6.038,227.683-20.239c103.732-19.596,207.014-39.209,312.088-50.45
					c117.944-12.617,235.453-29.729,353.99-36.049c119.955-6.396,239.423,0.264,359.084,8.699
					c121.416,8.559,242.119,23.961,359.29,57.956c191.172,55.465,368.18,155.18,505.068,300.785
					c9.318,9.911,18.418,20.021,27.327,30.301C2336.673,1006.901,2338.51,1005.051,2337.416,1003.788L2337.416,1003.788z"/>
			</g>
		</g>
		<g>
			<g>
				
					<linearGradient id="SVGID_00000023979120680841082190000000716926083771547570_" gradientUnits="userSpaceOnUse" x1="-464.3645" y1="625.8228" x2="2333.0818" y2="625.8228">
					<stop  offset="0" style="stop-color:#9FC53B"/>
					<stop  offset="1" style="stop-color:#020203"/>
				</linearGradient>
				<path style="fill:url(#SVGID_00000023979120680841082190000000716926083771547570_);" d="M2332.748,977.073
					c-109.751-127.469-251.603-225.804-407.62-288.045c-110.341-44.02-226.721-71.481-344.572-85.38
					c-115.39-13.608-233.043-18.537-349.194-18.958c-117.006-0.424-232.702,11.288-348.508,26.901
					c-114.085,15.381-228.665,26.56-342.186,45.906C455.503,672.011,370.247,690.8,283.692,694.5
					c-84.445,3.61-168.038-10.22-248.451-35.666c-174.198-55.124-319.845-169.82-436.336-308.464
					c-21.128-25.145-41.305-51.058-60.771-77.508c-0.984-1.337-3.247-0.038-2.251,1.316
					C-350.405,428.69-207.101,565.797-27.289,639.032c72.788,29.646,150.57,50.053,228.979,56.548
					c79.225,6.562,157.794-3.932,235.751-17.345c47.471-8.168,94.829-16.974,142.393-24.595
					c61.073-9.785,122.408-16.479,183.775-23.995c111.658-13.676,222.839-31.465,335.201-38.562
					c121.452-7.67,243.336-2.404,364.676,4.971c118.889,7.226,236.946,23.705,351.333,57.672
					c185.66,55.131,356.901,153.453,489.536,295.549c9.052,9.698,17.895,19.588,26.551,29.641
					C2332.001,980.19,2333.838,978.339,2332.748,977.073L2332.748,977.073z"/>
			</g>
		</g>
		<g>
			<g>
				
					<linearGradient id="SVGID_00000079456057485850160840000004983366939855011718_" gradientUnits="userSpaceOnUse" x1="-465.1756" y1="603.2911" x2="2328.4116" y2="603.2911">
					<stop  offset="0" style="stop-color:#9FC53B"/>
					<stop  offset="1" style="stop-color:#020203"/>
				</linearGradient>
				<path style="fill:url(#SVGID_00000079456057485850160840000004983366939855011718_);" d="M2328.08,950.359
					c-105.562-123.41-241.638-219.591-391.603-281.402c-220.21-90.764-459.063-104.566-694.518-102.714
					c-115.119,0.906-228.793,12.867-342.452,30.375c-112.184,17.28-225.111,28.669-337.224,46.3
					c-88.333,13.892-176.851,31.82-266.494,34.159c-87.669,2.288-174.153-13.345-257.33-40.517
					c-173.64-56.723-320.483-169.07-439.376-306.004c-21.418-24.668-41.93-50.092-61.749-76.058
					c-1.004-1.316-3.27-0.019-2.251,1.316c116.357,152.441,261.234,286.357,440.325,360.263
					c74.627,30.797,154.135,52.591,234.554,60.576c83.314,8.273,166.2-1.447,248.498-14.385
					c48.197-7.577,96.286-15.818,144.552-22.958c60.54-8.956,121.407-15.042,182.037-23.266
					c109.391-14.838,217.948-34.623,328.205-42.398c119.765-8.446,240.705-5.586,360.526,0.698
					c120.247,6.306,239.477,23.816,354.808,59.075c179.721,54.945,344.917,152.374,472.842,290.853
					c8.451,9.148,16.714,18.467,24.809,27.931C2327.329,953.479,2329.166,951.628,2328.08,950.359L2328.08,950.359z"/>
			</g>
		</g>
		<g>
			<g>
				
					<linearGradient id="SVGID_00000072992468128617743100000018189951876037933232_" gradientUnits="userSpaceOnUse" x1="-465.8206" y1="580.6703" x2="2323.7415" y2="580.6703">
					<stop  offset="0" style="stop-color:#9FC53B"/>
					<stop  offset="1" style="stop-color:#020203"/>
				</linearGradient>
				<path style="fill:url(#SVGID_00000072992468128617743100000018189951876037933232_);" d="M2323.413,923.644
					c-102.503-120.634-234.525-215.311-380.261-276.687c-107.611-45.319-222.623-73.626-338.418-87.577
					c-115.65-13.934-233.327-14.522-349.661-12.227c-115.656,2.281-229.827,14.54-343.713,34.395
					c-50.535,8.81-101.049,17.512-151.873,24.529c-58.128,8.025-116.489,14.051-174.57,22.522
					c-91.554,13.353-183.38,30.477-276.167,31.46c-92.147,0.976-182.764-16.958-269.785-46.593
					c-173.428-59.061-321.481-170.25-442.72-306.142c-20.7-23.202-40.607-47.084-59.917-71.452
					c-1.041-1.314-2.875,0.541-1.843,1.843c119.536,150.844,266.73,281.978,445.998,356.464
					c77.105,32.037,159.078,55.274,242.177,64.334c85.716,9.345,171.196,0.668,256.147-11.539
					c51.08-7.34,102.044-15.457,153.178-22.417c58.848-8.009,117.901-14.037,176.621-23.028
					c106.525-16.311,211.724-37.627,319.389-45.888c120.236-9.225,242.272-9.121,362.693-3.153
					c119.734,5.934,238.216,24.788,352.689,60.837c172.795,54.415,331.364,150.993,454.076,284.82
					c8.214,8.958,16.246,18.08,24.116,27.342C2322.657,926.768,2324.493,924.916,2323.413,923.644L2323.413,923.644z"/>
			</g>
		</g>
		<g>
			<g>
				
					<linearGradient id="SVGID_00000104684251944621599560000006218820590429607850_" gradientUnits="userSpaceOnUse" x1="-466.6356" y1="558.137" x2="2319.0713" y2="558.137">
					<stop  offset="0" style="stop-color:#9FC53B"/>
					<stop  offset="1" style="stop-color:#020203"/>
				</linearGradient>
				<path style="fill:url(#SVGID_00000104684251944621599560000006218820590429607850_);" d="M2318.745,896.929
					c-99.579-117.993-227.76-211.285-369.464-272.234c-105.83-45.519-219.328-73.927-333.54-87.947
					c-115.741-14.208-233.148-13.211-349.51-9.329c-115.156,3.842-229.113,16.165-342.218,38.115
					c-46.29,8.984-92.466,18.433-139.056,25.78c-58.383,9.206-117.206,15.143-175.764,23.115
					c-94.275,12.835-188.896,29.157-284.318,29.059c-96.287-0.099-190.649-19.941-281.305-51.647
					C-130.51,530.96-280.624,421.038-404.952,286.033c-20.502-22.262-40.283-45.165-59.522-68.526
					c-1.067-1.296-2.902,0.557-1.843,1.843c122.552,148.807,271.62,277.207,450.605,352.48
					c80.595,33.895,166.114,58.99,253.068,69.172c89.526,10.483,178.974,2.233,267.913-9.62
					c52.366-6.979,104.626-14.728,157.043-21.338c55.326-6.977,110.538-13.438,165.458-23.291
					c104.792-18.799,208.097-40.649,314.445-49.639c119.556-10.107,241.233-12.74,361.107-7.133
					c120.683,5.645,240.047,25.819,355.026,63.232c166.139,54.06,318.473,150.253,436.029,279.799
					c7.666,8.448,15.166,17.042,22.523,25.76C2317.985,900.057,2319.821,898.205,2318.745,896.929L2318.745,896.929z"/>
			</g>
		</g>
		<g>
			<g>
				
					<linearGradient id="SVGID_00000027602478455710517840000009326071028549258154_" gradientUnits="userSpaceOnUse" x1="-467.4509" y1="535.6041" x2="2314.4011" y2="535.6041">
					<stop  offset="0" style="stop-color:#9FC53B"/>
					<stop  offset="1" style="stop-color:#020203"/>
				</linearGradient>
				<path style="fill:url(#SVGID_00000027602478455710517840000009326071028549258154_);" d="M2314.077,870.215
					c-96.733-115.416-221.113-207.246-358.829-267.868c-103.905-45.739-215.628-74.197-328.118-88.405
					c-114.985-14.523-231.18-12.518-346.719-7.093c-115.434,5.42-230.163,17.842-343.292,41.756
					c-42.708,9.028-85.187,19.145-128.101,27.185c-57.999,10.867-116.513,17.205-174.997,24.727
					c-96.268,12.381-192.944,27.887-290.277,26.935c-101.337-0.991-200.286-22.874-295.402-57.048
					C-125.619,507.901-277.224,399.808-404.4,266.624c-20.927-21.915-41.16-44.471-60.876-67.48
					c-1.093-1.276-2.93,0.575-1.843,1.843C-340.827,348.379-189.01,474.644-9.173,550.724
					c83.353,35.262,171.493,61.906,261.424,73.228c92.742,11.676,185.611,4.097,277.956-7.382
					c105.281-13.086,211.492-23.677,315.413-45.414c103.302-21.607,205.276-43.279,310.618-53.156
					c237.177-22.239,481.585-23.512,709.839,52.689c161.839,54.029,309.971,149.208,424.254,276.136
					c7.453,8.278,14.747,16.696,21.903,25.233C2313.312,873.346,2315.148,871.493,2314.077,870.215L2314.077,870.215z"/>
			</g>
		</g>
		<g>
			<g>
				
					<linearGradient id="SVGID_00000168815926593278956900000014986098331816779689_" gradientUnits="userSpaceOnUse" x1="-468.2664" y1="513.0718" x2="2309.731" y2="513.0718">
					<stop  offset="0" style="stop-color:#9FC53B"/>
					<stop  offset="1" style="stop-color:#020203"/>
				</linearGradient>
				<path style="fill:url(#SVGID_00000168815926593278956900000014986098331816779689_);" d="M2309.409,843.5
					c-94.143-113.121-215.073-203.588-349.173-263.941c-102.36-46.068-212.671-74.633-323.857-88.916
					c-114.539-14.713-229.894-12.094-344.891-4.984c-115.631,7.149-231.079,20.242-344.173,45.884
					c-40.886,9.27-81.412,20.067-122.361,29.064c-54.55,11.986-109.586,19.28-164.97,26.106
					C561.93,598.797,463.422,613.661,364.363,612c-105.95-1.776-209.076-25.456-308.292-61.817
					c-175.002-64.136-329.081-170.969-459.871-303c-21.361-21.564-42.067-43.758-62.278-66.402
					c-1.119-1.254-2.958,0.595-1.843,1.843c130.258,145.942,284.957,270.278,465.82,347.329
					c86.826,36.989,178.426,65.491,272.171,77.779c94.644,12.406,189.535,5.68,283.944-5.36
					c102.218-11.953,204.596-22.945,304.838-46.902c42.471-10.15,84.762-20.987,127.567-29.687
					c60.211-12.237,121.09-20.943,182.179-27.388c235.881-24.888,477.65-28.401,704.66,49.539
					c157.808,54.18,301.921,148.276,413.152,272.847c7.198,8.061,14.244,16.255,21.156,24.562
					C2308.64,846.635,2310.476,844.782,2309.409,843.5L2309.409,843.5z"/>
			</g>
		</g>
		<g>
			<g>
				
					<linearGradient id="SVGID_00000121238888787047441890000013804126896374855843_" gradientUnits="userSpaceOnUse" x1="-469.0822" y1="490.5399" x2="2305.0608" y2="490.5399">
					<stop  offset="0" style="stop-color:#9FC53B"/>
					<stop  offset="1" style="stop-color:#020203"/>
				</linearGradient>
				<path style="fill:url(#SVGID_00000121238888787047441890000013804126896374855843_);" d="M2304.741,816.786
					c-92.575-112.039-211.674-201.951-343.902-262.022c-102.687-46.65-213.462-75.164-325.25-88.913
					c-116.054-14.274-232.73-10.32-348.991-0.851c-115.273,9.389-230.644,24.36-343.018,52.236
					c-39.707,9.85-78.974,21.388-118.724,31.063c-51.77,12.6-104.097,20.517-156.949,26.942
					c-96.074,11.68-192.647,24.663-289.657,21.687c-107.264-3.29-211.556-28.456-311.833-65.799
					c-177.206-65.993-334.742-172.209-469.965-303.809c-21.667-21.087-42.731-42.775-63.33-64.904
					c-1.146-1.231-2.986,0.616-1.843,1.843C-334.247,308.721-176.518,431.355,5.563,509.56
					c90.559,38.895,185.862,69.333,283.727,82.624c92.373,12.546,185.186,7.616,277.533-2.404
					c98.232-10.659,195.993-22.052,291.692-47.384c41.788-11.062,83.404-22.664,125.625-32.01
					c59.544-13.179,119.869-22.717,180.366-30.279c237.764-29.718,481.625-36.353,710.984,43.311
					c155.681,54.073,297.628,147.804,406.964,271.29c6.954,7.854,13.762,15.834,20.444,23.921
					C2303.968,819.924,2305.803,818.07,2304.741,816.786L2304.741,816.786z"/>
			</g>
		</g>
		<g>
			<g>
				
					<linearGradient id="SVGID_00000152240860577135372460000000673972398759392155_" gradientUnits="userSpaceOnUse" x1="-469.8981" y1="468.0085" x2="2300.3904" y2="468.0085">
					<stop  offset="0" style="stop-color:#9FC53B"/>
					<stop  offset="1" style="stop-color:#020203"/>
				</linearGradient>
				<path style="fill:url(#SVGID_00000152240860577135372460000000673972398759392155_);" d="M2300.073,790.071
					c-91.086-111.047-208.413-200.37-338.847-260.256c-102.936-47.261-214.103-75.7-326.423-88.945
					c-115.774-13.652-232.03-8.734-347.749,2.756c-116.151,11.533-232.719,28.487-345.595,58.727
					c-38.245,10.246-75.961,22.337-114.169,32.712c-49.471,13.433-99.669,22.423-150.537,28.606
					c-93.229,11.331-187.003,22.599-281.098,18.747c-105.469-4.317-208.177-29.088-306.928-65.619
					C-94.332,449.08-258.531,342.601-400.974,209.574c-22.784-21.278-44.976-43.17-66.706-65.521
					c-1.172-1.205-3.014,0.639-1.843,1.843c139.533,143.52,301.188,265.067,485.586,344.636
					c93.39,40.299,191.39,72.338,292.338,86.588c89.828,12.68,180.242,9.485,270.235,0.376
					c94.996-9.616,188.611-21.908,280.453-48.731c40.729-11.895,81.336-24.073,122.625-33.929
					c58.16-13.883,117.162-24.205,176.312-32.841c239.354-34.946,485.531-44.973,717.223,35.959
					c154.19,53.86,294.586,147.178,402.551,269.892c6.952,7.902,13.757,15.931,20.432,24.069
					C2299.295,793.213,2301.13,791.359,2300.073,790.071L2300.073,790.071z"/>
			</g>
		</g>
		<g>
			<g>
				
					<linearGradient id="SVGID_00000073684361336372874180000011130880790170654856_" gradientUnits="userSpaceOnUse" x1="-470.7141" y1="445.4775" x2="2295.72" y2="445.4775">
					<stop  offset="0" style="stop-color:#9FC53B"/>
					<stop  offset="1" style="stop-color:#020203"/>
				</linearGradient>
				<path style="fill:url(#SVGID_00000073684361336372874180000011130880790170654856_);" d="M2295.406,763.357
					c-90.357-110.983-207.112-200.328-337.063-260.053c-102.821-47.256-213.887-75.37-326.195-87.816
					c-118.442-13.127-237.248-6.598-355.255,7.643c-114.81,13.855-230.268,32.967-341.455,65.261
					c-37.753,10.965-74.875,23.945-112.575,35.074c-47.439,14.004-95.812,23.531-144.895,29.552
					c-89.929,11.03-180.445,20.247-271.142,15.031c-104.447-6.007-206.171-31.66-303.901-68.275
					c-186.642-69.926-355.501-177.118-503.555-310.168c-23.115-20.773-45.695-42.126-67.853-63.915
					c-1.197-1.177-3.042,0.665-1.843,1.843C-326.243,269.221-161.552,389.464,24.11,470.614
					c94.335,41.232,193.042,74.679,294.985,90.663c88.394,13.86,177.63,12.847,266.51,4.572
					c90.995-8.472,180.141-21.209,267.431-48.954c40.475-12.865,80.81-25.991,121.938-36.671
					c57.198-14.853,115.342-26.103,173.596-35.925c120.737-20.356,243.827-35.276,366.459-33.449
					c121.314,1.808,243.28,20.811,358.006,60.855c153.735,53.66,293.503,147.123,400.639,269.882
					c6.768,7.754,13.391,15.632,19.889,23.614C2294.622,766.502,2296.457,764.648,2295.406,763.357L2295.406,763.357z"/>
			</g>
		</g>
		<g>
			<g>
				
					<linearGradient id="SVGID_00000010998900494579669400000016050996593672674455_" gradientUnits="userSpaceOnUse" x1="-471.5301" y1="422.9471" x2="2291.0496" y2="422.9471">
					<stop  offset="0" style="stop-color:#9FC53B"/>
					<stop  offset="1" style="stop-color:#020203"/>
				</linearGradient>
				<path style="fill:url(#SVGID_00000010998900494579669400000016050996593672674455_);" d="M2290.738,736.642
					c-89.384-110.627-205.176-199.825-334.213-259.42c-102.403-47.295-213.021-75.232-325.036-87.078
					c-117.856-12.464-236.021-5.19-353.14,10.899c-116.163,15.958-233.328,37.516-345.459,72.273
					c-36.173,11.212-71.636,24.481-107.611,36.277c-45.317,14.859-91.881,25.798-139.203,31.89
					c-86.477,11.134-173.757,18.768-260.961,13.007c-103.479-6.837-204.319-32.609-301.216-68.878
					c-191.79-71.788-366.801-180.479-521.741-313.925c-24.29-20.921-48.068-42.421-71.442-64.36
					c-1.223-1.148-3.07,0.692-1.843,1.843C-321.155,249.94-151.979,369.832,36.707,452.872
					c96.244,42.357,196.725,77.115,300.741,94.158c86.71,14.208,174.409,14.542,261.763,6.692
					c48.163-4.328,96.691-9.344,144.042-19.334c38.195-8.058,75.253-19.457,112.089-32.262
					c95.714-33.272,192.531-58.292,292.158-77.075c119.9-22.606,242.101-39.505,364.338-38.829
					c122.201,0.676,245.167,19.195,360.664,59.73c152.348,53.468,290.705,146.71,396.522,268.772
					c6.764,7.803,13.382,15.73,19.872,23.762C2289.949,739.791,2291.783,737.936,2290.738,736.642L2290.738,736.642z"/>
			</g>
		</g>
		<g>
			<g>
				
					<linearGradient id="SVGID_00000174586486257882744150000008844328734010303367_" gradientUnits="userSpaceOnUse" x1="-472.3459" y1="400.4171" x2="2286.3792" y2="400.4171">
					<stop  offset="0" style="stop-color:#9FC53B"/>
					<stop  offset="1" style="stop-color:#020203"/>
				</linearGradient>
				<path style="fill:url(#SVGID_00000174586486257882744150000008844328734010303367_);" d="M2286.07,709.928
					c-88.449-110.323-203.316-199.38-331.48-258.905c-102.43-47.573-213.205-75.455-325.44-86.585
					c-119.323-11.833-238.927-3.227-357.092,15.311c-115.006,18.043-231.184,41.936-341.883,78.373
					c-77.242,25.425-150.406,58.151-231.39,70.931c-85.314,13.464-173.28,18.793-259.446,12.041
					c-102.819-8.057-203.053-34.661-299.272-71.106c-196.061-74.264-376.216-184.952-537.462-318.386
					c-24.646-20.395-48.846-41.314-72.69-62.64c-1.247-1.115-3.097,0.722-1.843,1.843
					c155.305,138.904,328.015,258.34,518.661,343.411c98.061,43.757,200.324,80.126,306.371,98.58
					c84.695,14.739,170.559,16.688,256.103,9.266c47.377-4.111,94.802-9.64,141.121-20.649
					c35.481-8.433,69.716-20.386,103.809-33.214c94.386-35.514,190.738-61.395,289.42-82.123
					c119.779-25.16,241.893-44.09,364.53-44.649c123.203-0.561,247.334,17.502,363.699,58.632
					c151.337,53.49,288.556,146.714,393.211,268.523c6.544,7.617,12.948,15.353,19.23,23.188
					C2285.276,713.08,2287.11,711.225,2286.07,709.928L2286.07,709.928z"/>
			</g>
		</g>
		<g>
			<g>
				
					<linearGradient id="SVGID_00000070109513615775262880000003658590330493972887_" gradientUnits="userSpaceOnUse" x1="-473.1616" y1="377.8877" x2="2281.7085" y2="377.8877">
					<stop  offset="0" style="stop-color:#9FC53B"/>
					<stop  offset="1" style="stop-color:#020203"/>
				</linearGradient>
				<path style="fill:url(#SVGID_00000070109513615775262880000003658590330493972887_);" d="M2281.402,683.213
					c-87.53-110.044-201.527-199.064-328.869-258.498c-214.573-100.148-454.291-107.069-684.253-66.83
					c-114.157,19.975-229.532,46.338-339.144,84.303c-75.137,26.024-145.807,60.816-224.68,75.083
					c-82.895,14.994-169.511,18.399-253.335,10.587c-101.6-9.469-200.623-36.934-295.65-73.442
					c-200.071-76.863-384.88-189.942-552.388-322.936c-25.013-19.859-49.643-40.19-73.97-60.882
					c-1.271-1.081-3.124,0.754-1.843,1.843c160.844,136.813,337.043,256.123,529.714,343.44
					c99.784,45.221,203.779,83.163,311.767,103.106c81.895,15.124,165.181,18.68,248.133,11.721
					c46.706-3.918,93.198-10.113,138.553-22.218c32.791-8.752,64.289-21.059,95.705-33.771
					c94.318-38.163,191.519-65.418,290.589-88.322c119.93-27.727,242.331-48.494,365.684-49.964
					c123.162-1.467,247.247,16.23,363.498,57.599c150.367,53.509,286.524,146.805,390.032,268.387
					c6.333,7.439,12.532,14.991,18.614,22.637C2280.603,686.369,2282.437,684.514,2281.402,683.213L2281.402,683.213z"/>
			</g>
		</g>
		<g>
			<g>
				
					<linearGradient id="SVGID_00000069387785707369859660000014020823289573457061_" gradientUnits="userSpaceOnUse" x1="-473.9768" y1="355.3587" x2="2277.0381" y2="355.3587">
					<stop  offset="0" style="stop-color:#9FC53B"/>
					<stop  offset="1" style="stop-color:#020203"/>
				</linearGradient>
				<path style="fill:url(#SVGID_00000069387785707369859660000014020823289573457061_);" d="M2276.735,656.499
					c-86.644-109.814-199.807-198.799-326.362-258.198c-215.859-101.313-457.781-106.767-688.548-61.979
					c-113.083,21.947-227.329,50.871-335.62,90.412c-70.835,25.864-137.342,61.555-211.563,77.502
					c-182.17,39.14-370.873,2.133-541.851-64.311c-203.354-79.026-391.94-194.169-565.349-325.686
					c-26.701-20.251-53.053-40.954-79.129-62.004c-1.294-1.044-3.15,0.789-1.843,1.843
					c168.169,135.753,349.634,256.315,546.527,346.347c173.275,79.232,359.77,135.124,552.014,118.972
					c44.828-3.766,89.327-10.578,132.525-23.411c30.675-9.112,60.013-21.668,89.331-34.367
					c93.083-40.317,189.818-68.945,288.022-93.947c120.04-30.561,242.766-53.449,366.886-56.346
					c124.006-2.894,248.976,14.175,366.059,55.821c150.266,53.449,286.158,147.131,389.033,269.085
					c6.131,7.268,12.134,14.644,18.024,22.109C2275.93,659.658,2277.763,657.802,2276.735,656.499L2276.735,656.499z"/>
			</g>
		</g>
		<g>
			<g>
				
					<linearGradient id="SVGID_00000036935875326297082090000010167107282112821931_" gradientUnits="userSpaceOnUse" x1="-474.6174" y1="332.7455" x2="2272.3674" y2="332.7455">
					<stop  offset="0" style="stop-color:#9FC53B"/>
					<stop  offset="1" style="stop-color:#020203"/>
				</linearGradient>
				<path style="fill:url(#SVGID_00000036935875326297082090000010167107282112821931_);" d="M2272.067,629.784
					c-86.196-110.15-199.227-199.455-325.773-258.848c-217.618-102.138-461.85-105.433-693.525-55.738
					c-59.409,12.744-118.113,28.53-176.35,45.811c-53.062,15.745-106.12,31.835-157.731,51.916
					c-68.236,26.549-131.986,63.369-203.799,80.056c-177.326,41.204-364.239-3.188-529.654-68.982
					C-21.912,341.606-214.279,223.279-394.039,92.444c-26.477-19.271-52.697-38.889-78.714-58.776
					c-1.332-1.018-2.632,1.245-1.316,2.251C-297.546,170.843-110.227,293.442,91.89,386.65
					c167.887,77.422,352.762,137.765,539.956,121.603c43.925-3.792,87.464-11.609,129.343-25.608
					c28.677-9.586,55.991-22.458,83.405-35.104c91.84-42.367,188.299-72.289,285.621-99.293
					c120.116-33.327,243.213-58.117,368.098-62.228c124.824-4.109,250.581,12.655,368.37,54.861
					c149.119,53.432,283.772,146.994,385.515,268.464c6.135,7.324,12.138,14.757,18.026,22.281
					C2271.256,632.948,2273.09,631.091,2272.067,629.784L2272.067,629.784z"/>
			</g>
		</g>
		<g>
			<g>
				
					<linearGradient id="SVGID_00000101066376616003860250000016938614696750833585_" gradientUnits="userSpaceOnUse" x1="-475.4389" y1="310.2149" x2="2267.6965" y2="310.2149">
					<stop  offset="0" style="stop-color:#9FC53B"/>
					<stop  offset="1" style="stop-color:#020203"/>
				</linearGradient>
				<path style="fill:url(#SVGID_00000101066376616003860250000016938614696750833585_);" d="M2267.399,603.07
					c-107.065-137.974-255.967-242.78-421.507-298.107c-136.67-45.678-282.441-56.63-425.295-41.493
					c-124.347,13.176-245.285,45.478-363.921,84.036c-55.565,18.059-111.052,36.463-164.682,59.772
					c-35.851,15.582-70.225,34.268-105.995,49.987c-48.277,21.215-99.92,33.315-152.396,37.698
					c-133.621,11.161-268.294-23.473-392.478-69.907c-221.172-82.701-425.71-208.637-619.252-342.3
					c-32.054-22.137-63.843-44.652-95.428-67.451c-1.362-0.983-2.665,1.277-1.316,2.251
					C-271.463,164.386-57.556,303.489,174.36,401.258c130.312,54.936,271.32,99.284,414.147,98.31
					c46.371-0.316,92.831-5.826,137.58-18.19c31.63-8.739,61.575-21.453,91.012-35.818c42.577-20.777,85.183-40.863,129.555-57.619
					c112.662-42.545,230.043-78.586,348.123-102.367c145.325-29.267,295.822-36.469,441.755-7.045
					c196.982,39.718,378.071,146.081,507.585,299.849c7.326,8.698,14.466,17.551,21.438,26.535
					C2266.583,606.237,2268.416,604.38,2267.399,603.07L2267.399,603.07z"/>
			</g>
		</g>
		<g>
			<g>
				
					<linearGradient id="SVGID_00000085214159696829609250000015352166599197282748_" gradientUnits="userSpaceOnUse" x1="-494.3969" y1="317.0313" x2="2265.4983" y2="317.0313">
					<stop  offset="0" style="stop-color:#9FC53B"/>
					<stop  offset="1" style="stop-color:#020203"/>
				</linearGradient>
				<path style="fill:url(#SVGID_00000085214159696829609250000015352166599197282748_);" d="M2265.183,593.562
					c-90.907-111.33-206.797-201.991-338.03-261.017c-105.72-47.551-220.2-73.816-335.899-79.432
					c-122.73-5.957-245.398,11.177-364.206,41.294c-60.501,15.337-120.217,33.667-179.401,53.445
					c-52.948,17.695-105.957,35.516-157.433,57.198c-64.109,27.004-124.204,63.746-191.773,81.932
					c-163.63,44.04-340.931,0.9-495.614-56.056C-15.648,350.484-217.973,229.143-408.97,97.396
					c-28.055-19.352-55.885-39.025-83.542-58.94c-1.364-0.982-2.666,1.278-1.316,2.251
					c189.791,136.661,389.38,263.909,604.853,356.347c163.701,70.227,350.024,130.222,530.458,104.224
					c61.806-8.905,117.54-31.152,173.23-58.533c93.649-46.045,192.168-80.029,291.632-111.199
					c118.041-36.991,238.985-66.231,362.74-74.545c126.799-8.518,255.019,5.351,375.667,45.999
					c154.149,51.936,292.554,146.497,399.073,269.197c6.627,7.633,13.122,15.379,19.515,23.208
					C2264.401,596.706,2266.236,594.852,2265.183,593.562L2265.183,593.562z"/>
			</g>
		</g>
		<g>
			<g>
				
					<linearGradient id="SVGID_00000070818102827963214550000008375819965187968178_" gradientUnits="userSpaceOnUse" x1="-513.3549" y1="323.848" x2="2263.2981" y2="323.848">
					<stop  offset="0" style="stop-color:#9FC53B"/>
					<stop  offset="1" style="stop-color:#020203"/>
				</linearGradient>
				<path style="fill:url(#SVGID_00000070818102827963214550000008375819965187968178_);" d="M2262.967,584.055
					c-94.094-110.136-210.632-200.533-343.472-259.156c-104.71-46.209-217.84-71.914-332.121-77.077
					c-123.009-5.557-245.693,12.743-364.503,43.733c-60.726,15.839-120.622,34.815-180.018,55.035
					c-53.506,18.215-107.131,36.613-159.335,58.328c-66.982,27.862-129.857,66.389-199.783,86.773
					c-159.151,46.393-333.67,8.874-486.502-42.913C-27.161,372.742-234.749,252.62-429.488,119.183
					c-27.548-18.876-54.857-38.095-81.981-57.575c-1.365-0.98-2.668,1.28-1.316,2.251
					c191.638,137.626,394.377,263.642,613.855,351.973c163.425,65.772,349.035,120.58,526.833,91.16
					c62.659-10.368,118.814-34.886,175.429-62.644c95.123-46.64,195.504-81.427,296.241-113.806
					c118.705-38.154,240.231-68.994,364.947-78.204c125.368-9.258,252.161,3.998,371.751,43.357
					c155.689,51.239,294.937,145.462,404.458,266.93c6.908,7.661,13.694,15.431,20.394,23.274
					C2262.215,587.176,2264.052,585.325,2262.967,584.055L2262.967,584.055z"/>
			</g>
		</g>
		<g>
			<g>
				
					<linearGradient id="SVGID_00000156551917159216845060000013131181341019445153_" gradientUnits="userSpaceOnUse" x1="-532.3129" y1="330.6651" x2="2261.0959" y2="330.6651">
					<stop  offset="0" style="stop-color:#9FC53B"/>
					<stop  offset="1" style="stop-color:#020203"/>
				</linearGradient>
				<path style="fill:url(#SVGID_00000156551917159216845060000013131181341019445153_);" d="M2260.751,574.548
					c-96.986-109.021-214.432-199.187-348.777-257.343c-103.741-44.908-215.517-70.052-328.428-74.879
					c-123.025-5.259-245.547,13.885-364.109,45.741c-115.685,31.082-230.931,70.668-341.663,116.404
					c-69.619,28.754-135.115,68.634-207.152,91.237c-156.049,48.965-328.022,17.2-480.285-30.121
					C-39.359,394.201-251.886,275.782-449.99,140.98c-27.046-18.404-53.839-37.174-80.436-56.221
					c-1.366-0.978-2.669,1.282-1.316,2.251c194.96,139.614,402.569,264.922,627.898,349.035
					C257.729,496.36,440.6,544.928,613.91,512.563c63.88-11.929,121.048-38.678,179.019-66.92
					c98.418-47.947,202.319-84.429,306.214-118.556c118.107-38.795,239.103-70.366,363.436-79.941
					c123.106-9.481,247.633,3.338,365.322,41.178c157.191,50.54,297.446,144.439,409.801,264.76
					c7.169,7.678,14.224,15.461,21.207,23.309C2260.025,577.648,2261.863,575.799,2260.751,574.548L2260.751,574.548z"/>
			</g>
		</g>
		<g>
			<g>
				
					<linearGradient id="SVGID_00000134210179571815134260000007456649887685881986_" gradientUnits="userSpaceOnUse" x1="-551.2711" y1="337.4825" x2="2258.8923" y2="337.4825">
					<stop  offset="0" style="stop-color:#9FC53B"/>
					<stop  offset="1" style="stop-color:#020203"/>
				</linearGradient>
				<path style="fill:url(#SVGID_00000134210179571815134260000007456649887685881986_);" d="M2258.535,565.041
					c-99.438-107.779-217.654-197.448-353.051-255.195c-103.011-43.934-213.827-68.617-325.707-73.176
					c-122.814-5.005-244.962,14.81-363.083,47.373c-114.951,31.69-228.547,72.509-338.982,117.432
					c-41.351,16.821-81.696,35.719-121.723,55.452c-30.902,15.234-61.928,30.086-94.573,41.268
					c-152.99,52.402-322.071,27.393-474.174-15.287C-48.183,416.846-266.313,300.472-468.233,164.3
					c-27.311-18.418-54.341-37.248-81.15-56.388c-1.368-0.977-2.671,1.283-1.316,2.251
					C-352.452,251.7-139.942,375.84,91.079,455.492c160.128,55.21,340.894,97.893,510.233,62.132
					c65.448-13.821,123.901-43.1,183.641-71.996c99.828-48.287,205.162-85.841,310.152-121.22
					c118.674-39.99,240.418-72.753,365.669-82.705c122.068-9.699,245.594,3.086,362.381,40.294
					c156.985,50.016,296.938,142.884,410.998,260.967c7.612,7.88,15.11,15.868,22.539,23.92
					C2257.832,568.12,2259.672,566.273,2258.535,565.041L2258.535,565.041z"/>
			</g>
		</g>
		<g>
			<g>
				
					<linearGradient id="SVGID_00000169517906033807900460000006704945168802542214_" gradientUnits="userSpaceOnUse" x1="-570.2293" y1="344.3003" x2="2256.6873" y2="344.3003">
					<stop  offset="0" style="stop-color:#9FC53B"/>
					<stop  offset="1" style="stop-color:#020203"/>
				</linearGradient>
				<path style="fill:url(#SVGID_00000169517906033807900460000006704945168802542214_);" d="M2256.319,555.534
					c-101.491-106.436-220.39-195.502-356.485-252.818c-102.254-43.064-212.101-67.419-322.966-71.827
					c-122.171-4.858-243.523,15.246-360.854,48.214c-114.241,32.099-226.129,74.174-336.189,118.378
					c-44.067,17.699-87.224,37.361-129.802,58.371c-32.021,15.801-63.918,31.891-97.445,44.324
					c-149.445,55.418-314.675,37.536-466.141-0.15c-241.52-60.092-466.022-174.314-672.156-311.93
					c-27.834-18.582-55.353-37.628-82.621-57.032c-1.369-0.974-2.673,1.285-1.316,2.251
					c203.64,144.912,423.615,268.555,663.03,343.254c156.803,48.924,333.114,84.507,496.257,45.612
					c68.225-16.265,129.052-48.761,191.857-78.753c101.559-48.498,208.462-87.254,314.798-123.863
					c117.32-40.39,238.014-73.281,362.075-83.469c120.034-9.858,241.591,2.543,356.663,38.38
					c158.059,49.224,299.026,141.477,415.446,258.234c8.102,8.125,16.088,16.364,24.007,24.668
					C2255.636,558.594,2257.477,556.749,2256.319,555.534L2256.319,555.534z"/>
			</g>
		</g>
		<g>
			<g>
				
					<linearGradient id="SVGID_00000013908296698420602620000012749708622124103346_" gradientUnits="userSpaceOnUse" x1="-589.1876" y1="351.1184" x2="2254.481" y2="351.1184">
					<stop  offset="0" style="stop-color:#9FC53B"/>
					<stop  offset="1" style="stop-color:#020203"/>
				</linearGradient>
				<path style="fill:url(#SVGID_00000013908296698420602620000012749708622124103346_);" d="M2254.103,546.027
					c-104.247-106.091-225.126-195.124-363.28-251.952c-102.434-42.135-212.228-65.691-322.937-69.338
					c-122.452-4.034-243.827,17.385-361.055,51.536c-115.003,33.502-227.202,77.265-338.09,122.36
					c-44.916,18.266-88.963,38.408-132.412,59.916c-32.814,16.244-65.447,32.937-99.69,46.029
					c-149.148,57.024-313.697,43.092-466.422,8.225c-242.768-55.425-469.21-165.814-676.053-302.69
					c-27.466-18.175-54.597-36.846-81.462-55.897c-1.371-0.972-2.675,1.287-1.316,2.251
					c203.56,144.353,424.697,264.463,665.057,334.573c156.866,45.756,332.796,77.72,494.505,37.164
					c69.704-17.481,132.018-51.026,196.347-81.888c101.754-48.817,208.45-88.725,314.701-126.561
					c118.76-42.291,241.026-77.401,367.005-88.863c118.84-10.813,239.372,0.489,353.758,34.718
					c160.761,48.106,304.313,140.304,424.009,256.839c8.599,8.372,17.079,16.862,25.49,25.422
					C2253.438,549.069,2255.281,547.225,2254.103,546.027L2254.103,546.027z"/>
			</g>
		</g>
		<g>
			<g>
				
					<linearGradient id="SVGID_00000101072371044013363650000014927607936206847641_" gradientUnits="userSpaceOnUse" x1="-608.1459" y1="366.0606" x2="2252.2739" y2="366.0606">
					<stop  offset="0" style="stop-color:#9FC53B"/>
					<stop  offset="1" style="stop-color:#020203"/>
				</linearGradient>
				<path style="fill:url(#SVGID_00000101072371044013363650000014927607936206847641_);" d="M2251.887,536.52
					c-107.148-106.091-230.458-195.256-371.073-251.562c-102.292-40.96-211.719-63.632-321.886-66.478
					c-122.673-3.169-243.941,19.424-361.028,54.69c-114.518,34.492-225.874,79.313-336.368,124.849
					c-46.837,19.302-92.865,40.291-138.223,62.841c-33.564,16.687-66.896,33.962-101.797,47.747
					c-150.829,59.572-317.278,48.743-473.098,15.682c-243.304-51.622-470.933-158.293-677.957-294.53
					c-25.869-17.024-51.419-34.523-76.711-52.392c-1.373-0.97-2.677,1.289-1.316,2.251
					c202.302,142.929,423.245,258.913,662.856,324.635c158.408,43.449,335.995,72.614,497.942,29.65
					c71.806-19.05,136.094-54.087,202.601-86.084c102.72-49.42,210.051-90.786,317.057-129.905
					c118.561-43.343,240.729-79.829,366.792-92.354c118.885-11.812,239.663-1.286,354.406,32.202
					c162.488,47.422,307.739,139.398,429.949,255.345c8.767,8.318,17.423,16.753,26.01,25.256
					C2251.237,539.545,2253.082,537.702,2251.887,536.52L2251.887,536.52z"/>
			</g>
		</g>
		<g>
			<g>
				
					<linearGradient id="SVGID_00000000181875589037710220000004465405344821635483_" gradientUnits="userSpaceOnUse" x1="-627.1044" y1="381.715" x2="2250.0657" y2="381.715">
					<stop  offset="0" style="stop-color:#9FC53B"/>
					<stop  offset="1" style="stop-color:#020203"/>
				</linearGradient>
				<path style="fill:url(#SVGID_00000000181875589037710220000004465405344821635483_);" d="M2249.671,527.013
					c-110.155-106.351-236.279-195.85-379.683-251.535c-103.37-40.139-213.658-61.843-324.562-63.434
					c-121.709-1.747-241.696,22.1-357.499,58.148c-114.64,35.686-226.115,81.523-336.636,128.212
					c-48.052,20.3-95.432,41.887-142.103,65.191c-35.236,17.594-70.206,35.86-106.818,50.492
					c-150.978,60.339-317.641,52.547-474.626,21.963c-243.3-47.399-471.84-150.056-678.725-285.132
					c-25.045-16.352-49.769-33.186-74.231-50.399c-1.375-0.967-2.679,1.292-1.316,2.251
					C-425.666,344.114-205.06,455.977,33.471,517.349c158.982,40.905,336.194,66.681,497.669,23.335
					c74.47-19.99,141.224-56.616,210.165-90.012c103.941-50.35,212.124-93.396,320.204-133.971
					c118.052-44.319,239.681-82.244,365.46-96.221c118.817-13.203,239.776-3.901,354.941,28.363
					c165.157,46.269,313.131,138.177,438.444,254.013c9.259,8.559,18.402,17.242,27.473,26
					C2249.035,530.022,2250.881,528.181,2249.671,527.013L2249.671,527.013z"/>
			</g>
		</g>
		<g>
			<g>
				
					<linearGradient id="SVGID_00000119798332901571593060000009473815782054092732_" gradientUnits="userSpaceOnUse" x1="-646.0629" y1="388.6147" x2="2247.8569" y2="388.6147">
					<stop  offset="0" style="stop-color:#9FC53B"/>
					<stop  offset="1" style="stop-color:#020203"/>
				</linearGradient>
				<path style="fill:url(#SVGID_00000119798332901571593060000009473815782054092732_);" d="M2247.455,517.505
					c-114.153-107.678-244.505-198.076-392.308-253.037c-104.631-38.908-216.031-59.125-327.692-58.88
					c-119.652,0.262-237.265,25.301-350.75,61.863c-114.939,37.03-226.724,83.933-337.468,131.879
					c-49.1,21.258-97.623,43.567-145.417,67.625c-35.416,17.828-70.571,36.32-107.299,51.356
					c-153.616,62.885-323.257,57.826-484.092,28.74c-241.793-43.726-469.825-142.1-675.456-275.363
					c-24.012-15.562-47.708-31.599-71.142-48.018c-1.377-0.965-2.681,1.294-1.316,2.251
					c198.001,138.73,416.564,245.951,652.022,303.362c161.601,39.402,341.565,62.929,504.709,17.597
					c77.132-21.432,146.26-59.61,217.77-94.491c104.442-50.945,212.739-95.353,321.144-137.088
					c117.278-45.151,238.071-84.369,363.242-99.843c117.529-14.529,237.38-6.879,351.942,23.28
					c169.532,44.63,321.851,137.08,451.316,253.859c9.757,8.801,19.393,17.736,28.952,26.752
					C2246.832,520.5,2248.678,518.66,2247.455,517.505L2247.455,517.505z"/>
			</g>
		</g>
		<g>
			<g>
				
					<linearGradient id="SVGID_00000061446025989713007540000004153135189301319341_" gradientUnits="userSpaceOnUse" x1="-665.0215" y1="389.6717" x2="2245.6475" y2="389.6717">
					<stop  offset="0" style="stop-color:#9FC53B"/>
					<stop  offset="1" style="stop-color:#020203"/>
				</linearGradient>
				<path style="fill:url(#SVGID_00000061446025989713007540000004153135189301319341_);" d="M2245.239,507.998
					c-117.333-108.322-251.012-199.203-402.057-253.428c-104.929-37.669-216.324-56.786-327.843-55.421
					c-118.275,1.448-234.267,27.245-346.19,64.206c-115.273,38.067-227.372,85.979-338.311,135.081
					c-48.522,21.476-96.662,43.643-144.026,67.58c-36.69,18.543-72.991,38.014-110.805,54.216
					c-154.684,66.273-325.75,65.828-489.573,39.524c-243.355-39.074-474.038-133.952-680.885-266.884
					c-23.19-14.903-46.065-30.283-68.675-46.05c-1.379-0.962-2.684,1.297-1.316,2.251
					C-466.409,387.172-246.344,490.834-10.256,543.75c161.943,36.297,341.616,55.857,503.684,8.687
					c80.883-23.541,153.316-64.218,228.559-101.025c104.907-51.319,213.22-97.011,321.896-139.669
					c113.995-44.745,231.295-83.985,352.996-100.933c118.397-16.488,239.538-10.323,355.509,18.826
					c172.563,43.374,328.027,135.84,460.733,252.847c10.203,8.996,20.279,18.132,30.273,27.359
					C2244.627,510.978,2246.475,509.139,2245.239,507.998L2245.239,507.998z"/>
			</g>
		</g>
		<g>
			<g>
				
					<linearGradient id="SVGID_00000106126723470012353530000007927168140285774465_" gradientUnits="userSpaceOnUse" x1="-683.9803" y1="390.738" x2="2243.4373" y2="390.738">
					<stop  offset="0" style="stop-color:#9FC53B"/>
					<stop  offset="1" style="stop-color:#020203"/>
				</linearGradient>
				<path style="fill:url(#SVGID_00000106126723470012353530000007927168140285774465_);" d="M2243.023,498.491
					c-121.266-109.74-259.34-201.525-414.833-254.862c-105.885-36.321-218.011-53.943-329.957-50.84
					c-116.131,3.219-229.725,29.936-339.343,67.195c-116.337,39.543-229.477,88.855-341.342,139.505
					c-48.903,22.142-97.479,44.887-145.295,69.303c-37.867,19.336-75.335,39.622-114.381,56.528
					c-156.257,67.654-329.329,70.084-495.63,45.827c-242.136-35.318-472.746-126.142-678.68-257.442
					c-22.173-14.137-44.039-28.741-65.644-43.73c-1.382-0.959-2.686,1.3-1.316,2.251c195.72,135.786,414.465,235.148,648,284.144
					c163.527,34.308,343.879,50.75,506.676,2.843c84.11-24.752,159.281-67.185,237.425-105.851
					c106.422-52.658,215.999-100.158,326.18-144.327c112.252-45,227.689-84.864,347.635-103.144
					c117.312-17.879,237.598-13.417,353.151,13.751c176.968,41.607,336.911,134.535,473.737,252.573
					c10.709,9.239,21.286,18.63,31.774,28.12C2242.421,501.458,2244.27,499.62,2243.023,498.491L2243.023,498.491z"/>
			</g>
		</g>
		<g>
			<g>
				
					<linearGradient id="SVGID_00000036221302087773435880000010533155571509478041_" gradientUnits="userSpaceOnUse" x1="-702.9393" y1="391.7758" x2="2241.2266" y2="391.7758">
					<stop  offset="0" style="stop-color:#9FC53B"/>
					<stop  offset="1" style="stop-color:#020203"/>
				</linearGradient>
				<path style="fill:url(#SVGID_00000036221302087773435880000010533155571509478041_);" d="M2240.807,488.984
					c-125.193-111.208-267.744-203.884-427.725-256.251c-106.765-34.948-219.535-51.061-331.824-46.232
					c-114.062,4.905-225.36,32.482-332.776,70.017c-116.315,40.645-229.465,90.813-341.245,142.472
					c-48.894,22.596-97.529,45.693-145.418,70.36c-39.333,20.26-78.201,41.6-118.674,59.544
					c-156.971,69.595-331.218,75.871-499.522,54.499c-242.815-30.834-475.453-118.198-682.008-248.818
					c-21.168-13.386-42.04-27.227-62.655-41.449c-1.384-0.955-2.689,1.303-1.316,2.251
					c193.585,133.55,411.232,228.754,642.351,273.88c167.364,32.677,350.028,45.234,515.424-5.166
					c86.625-26.397,164.111-71.066,244.72-111.262c106.431-53.073,215.598-101.632,325.65-146.655
					c110.54-45.224,224.154-85.664,342.361-105.208c116.206-19.214,235.586-16.451,350.68,8.76
					c181.396,39.735,345.903,133.11,486.845,252.214c11.223,9.484,22.305,19.131,33.291,28.889
					C2240.214,491.938,2242.064,490.101,2240.807,488.984L2240.807,488.984z"/>
			</g>
		</g>
		<g>
			<g>
				
					<linearGradient id="SVGID_00000102516432372023569130000002353273914101433745_" gradientUnits="userSpaceOnUse" x1="-721.8984" y1="392.8546" x2="2239.0156" y2="392.8546">
					<stop  offset="0" style="stop-color:#9FC53B"/>
					<stop  offset="1" style="stop-color:#020203"/>
				</linearGradient>
				<path style="fill:url(#SVGID_00000102516432372023569130000002353273914101433745_);" d="M2238.591,479.477
					c-128.282-111.993-274.298-205.067-437.55-256.594c-107.035-33.783-219.82-48.796-331.962-42.862
					c-111.957,5.924-221.037,33.754-326.318,71.221c-117.476,41.807-231.71,93.289-344.453,146.377
					c-49.146,23.142-98.073,46.745-146.26,71.833c-40.881,21.285-81.212,43.813-123.202,62.883
					c-159.067,72.244-336.624,81.952-508.276,62.789c-241.876-27.003-474.868-110.48-680.859-239.639
					c-20.176-12.65-40.067-25.742-59.708-39.207c-1.387-0.951-2.693,1.307-1.316,2.251
					C-529.85,449.797-313.324,540.896-84.715,582.277c171.758,31.091,356.125,39.115,524.666-13.459
					c89.366-27.876,169.231-75.234,252.404-117.094c107.77-54.239,217.975-104.416,329.379-150.694
					c108.664-45.139,220.344-85.641,336.64-105.808c114.941-19.932,233.175-18.246,347.429,5.473
					c184.424,38.286,352.245,131.697,496.318,251.124c11.675,9.677,23.203,19.528,34.626,29.501
					C2238.006,482.419,2239.858,480.583,2238.591,479.477L2238.591,479.477z"/>
			</g>
		</g>
		<g>
			<g>
				
					<linearGradient id="SVGID_00000116919600219682252800000011194007331676840851_" gradientUnits="userSpaceOnUse" x1="-740.8577" y1="394.0803" x2="2236.804" y2="394.0803">
					<stop  offset="0" style="stop-color:#9FC53B"/>
					<stop  offset="1" style="stop-color:#020203"/>
				</linearGradient>
				<path style="fill:url(#SVGID_00000116919600219682252800000011194007331676840851_);" d="M2236.375,469.97
					c-132.773-114.049-284.151-208.313-452.812-258.571c-107.89-32.149-221.248-45.357-333.609-37.438
					c-110.927,7.818-218.695,37.073-322.709,75.378c-117.02,43.095-230.921,95.282-343.264,149.257
					c-49.234,23.654-98.232,47.813-146.542,73.309c-41.074,21.677-81.615,44.543-123.774,64.084
					c-161.598,74.901-343.345,87.844-518.686,70.689c-240.194-23.5-472.767-103.136-677.609-230.541
					c-19.032-11.838-37.798-24.092-56.324-36.707c-1.39-0.947-2.696,1.311-1.316,2.251
					c187.79,127.869,401.251,214.661,625.284,252.816c177.505,30.23,366.381,34.471,539.538-21.057
					c90.723-29.093,171.896-78.106,256.331-121.16C787.068,398.136,895.398,347.716,1005.043,301
					c109.337-46.585,221.652-88.931,338.859-110.757c113.056-21.052,229.498-21.162,342.53,0.204
					c189.777,35.874,363.155,130.032,511.934,251.086c12.197,9.924,24.238,20.034,36.166,30.28
					C2235.798,472.901,2237.65,471.065,2236.375,469.97L2236.375,469.97z"/>
			</g>
		</g>
		<g>
			<g>
				
					<linearGradient id="SVGID_00000068676672415400888400000010161803230619159175_" gradientUnits="userSpaceOnUse" x1="-759.8171" y1="395.4669" x2="2234.5923" y2="395.4669">
					<stop  offset="0" style="stop-color:#9FC53B"/>
					<stop  offset="1" style="stop-color:#020203"/>
				</linearGradient>
				<path style="fill:url(#SVGID_00000068676672415400888400000010161803230619159175_);" d="M2234.159,460.463
					c-137.292-116.149-294.146-211.604-468.279-260.457c-108.851-30.538-222.877-41.879-335.553-31.923
					c-109.177,9.647-215.004,40.015-317.148,78.783c-117.104,44.446-231.187,97.544-343.62,152.614
					c-49.514,24.252-98.759,49.08-147.366,75.108c-42.181,22.587-83.828,46.36-127.199,66.634
					C330.69,618.029,144.323,633.508-34.462,618.07c-237.083-20.472-467.864-96.265-670.414-221.205
					c-17.919-11.053-35.591-22.496-53.036-34.284c-1.394-0.942-2.7,1.316-1.316,2.251
					c183.934,124.287,394.013,206.899,613.163,242.032c180.584,28.95,371.667,29.909,547.315-26.302
					c93.405-29.891,176.634-80.389,263.198-125.333c106.205-55.142,214.501-106.553,324.174-154.406
					c108.79-47.467,220.422-91.159,337.104-114.818c113.081-22.929,229.815-24.97,343.546-5.244
					c194.262,33.694,372.424,128.26,525.32,250.479c12.725,10.172,25.285,20.544,37.722,31.066
					C2233.589,463.383,2235.442,461.548,2234.159,460.463L2234.159,460.463z"/>
			</g>
		</g>
		<g>
			<g>
				
					<linearGradient id="SVGID_00000142172587020188512970000011349782692480524687_" gradientUnits="userSpaceOnUse" x1="-778.7769" y1="396.9514" x2="2232.3799" y2="396.9514">
					<stop  offset="0" style="stop-color:#9FC53B"/>
					<stop  offset="1" style="stop-color:#020203"/>
				</linearGradient>
				<path style="fill:url(#SVGID_00000142172587020188512970000011349782692480524687_);" d="M2231.943,450.956
					c-140.337-117.041-300.788-212.864-478.231-260.714c-109.055-29.408-223.034-39.666-335.511-28.64
					c-107.216,10.51-211.014,41.026-311.214,79.685c-117.888,45.483-232.718,99.705-345.807,155.936
					c-49.523,24.624-98.749,49.892-147.383,76.23c-43.882,23.764-87.141,48.869-132.158,70.466
					C315.214,623.762,124.445,643.064-57.8,630.171c-235.881-16.687-466.903-88.903-668.815-212.25
					c-16.979-10.372-33.725-21.114-50.254-32.187c-1.398-0.936-2.704,1.321-1.316,2.251
					c181.805,121.795,390.542,200.66,606.908,232.408c184.978,27.143,379.255,23.406,558.03-35.561
					c96.333-31.774,182.181-85.295,271.532-132.158C765.16,396.62,873.942,344.063,984.306,295.236
					c106.925-47.306,216.633-90.933,331.383-115.115c111.899-23.581,227.55-26.646,340.469-8.289
					c197.285,32.072,378.907,126.644,534.869,249.284c13.182,10.365,26.194,20.943,39.072,31.684
					C2231.379,453.866,2233.233,452.032,2231.943,450.956L2231.943,450.956z"/>
			</g>
		</g>
		<g>
			<g>
				
					<linearGradient id="SVGID_00000034768719766515727630000014591558373292118198_" gradientUnits="userSpaceOnUse" x1="-797.737" y1="398.6076" x2="2230.1675" y2="398.6076">
					<stop  offset="0" style="stop-color:#9FC53B"/>
					<stop  offset="1" style="stop-color:#020203"/>
				</linearGradient>
				<path style="fill:url(#SVGID_00000034768719766515727630000014591558373292118198_);" d="M2229.727,441.448
					c-144.273-118.715-309.546-215.384-491.64-261.859c-111.03-28.338-226.86-36.923-340.737-23.531
					c-105.59,12.417-207.526,44.057-306.032,83.208C972.46,286.504,856.551,342.122,742.522,399.938
					c-47.985,24.33-95.64,49.344-142.78,75.274c-44.595,24.53-88.565,50.397-134.337,72.713
					C297.322,629.874,102.5,652.641-82.366,642.301c-233.814-13.078-464.161-81.544-664.883-202.643
					c-16.415-9.903-32.603-20.174-48.577-30.772c-1.402-0.93-2.709,1.327-1.316,2.251
					c179.61,119.162,386.704,194.272,600.083,222.855c188.623,25.267,385.632,16.865,566.979-44.18
					c98.598-33.19,186.404-88.929,277.729-137.582c104.77-55.816,211.414-108.123,319.571-157.054
					c106.429-48.15,215.47-93.075,329.695-119.085c111.251-25.333,226.467-30.505,339.453-14.182
					c202.255,29.219,389.239,124.119,549.732,248.032c14.107,10.891,28.021,22.027,41.783,33.351
					C2229.169,444.35,2231.024,442.516,2229.727,441.448L2229.727,441.448z"/>
			</g>
		</g>
		<g>
			<g>
				
					<linearGradient id="SVGID_00000000185083116815514360000001988429740710363023_" gradientUnits="userSpaceOnUse" x1="-816.6974" y1="400.4253" x2="2227.9548" y2="400.4253">
					<stop  offset="0" style="stop-color:#9FC53B"/>
					<stop  offset="1" style="stop-color:#020203"/>
				</linearGradient>
				<path style="fill:url(#SVGID_00000000185083116815514360000001988429740710363023_);" d="M2227.511,431.941
					c-147.914-120.177-317.665-217.522-503.991-262.662c-110.498-26.77-225.436-34.061-338.293-19.713
					c-105.374,13.397-206.909,45.941-305.023,85.809c-119.223,48.445-235.563,105.058-349.94,163.932
					c-47.953,24.683-95.521,50.137-142.611,76.43c-46.555,25.994-92.425,53.453-140.281,77.033
					C276.57,636.928,76.125,662.746-112.251,654.334c-230.466-10.291-458.739-75.337-657.087-193.813
					c-15.351-9.169-30.495-18.675-45.445-28.484c-1.407-0.923-2.714,1.333-1.316,2.251
					c174.27,114.345,375.582,185.487,581.989,212.059c194.537,25.044,397.014,12.852,583.555-50.344
					c100.93-34.193,190.543-91.742,283.665-142.323c106.26-57.717,214.654-111.495,324.507-162.03
					c105.555-48.559,213.641-94.051,326.988-121.028c107.594-25.608,219.098-32.349,328.924-18.822
					c207.826,25.597,400.959,120.76,566.498,246.128c15.425,11.682,30.623,23.656,45.64,35.857
					C2226.958,434.834,2228.814,433,2227.511,431.941L2227.511,431.941z"/>
			</g>
		</g>
		<g>
			<g>
				
					<linearGradient id="SVGID_00000172412609861152009500000007181426069200581272_" gradientUnits="userSpaceOnUse" x1="-835.6583" y1="402.4254" x2="2225.7417" y2="402.4254">
					<stop  offset="0" style="stop-color:#9FC53B"/>
					<stop  offset="1" style="stop-color:#020203"/>
				</linearGradient>
				<path style="fill:url(#SVGID_00000172412609861152009500000007181426069200581272_);" d="M2225.295,422.434
					c-152.501-122.426-328.053-220.939-520.006-264.25c-110.59-24.953-225.17-30.354-337.476-14.449
					c-106.054,15.02-207.978,49.374-306.453,90.662c-119.095,49.934-235.545,107.506-349.894,167.434
					c-95.013,49.795-185.958,107.586-281.862,155.535c-78.897,39.446-164.464,64.871-250.688,82.632
					c-104.62,21.55-211.844,30.128-318.575,26.717c-227.948-7.284-454.966-68.994-651.685-185.263
					c-14.313-8.46-28.443-17.223-42.397-26.263c-1.412-0.915-2.72,1.341-1.316,2.251
					c171.335,110.996,369.614,178.617,571.959,202.59c198.478,23.515,404.296,6.652,593.864-58.467
					c101.267-34.787,191.325-92.917,284.372-144.701c106.55-59.299,215.692-113.922,326.019-165.824
					c104.43-49.128,211.276-95.505,323.403-124.088c108.108-27.559,220.295-36.36,331.301-24.409
					c212.324,22.859,410.537,118.431,580.203,245.012c16.019,11.951,31.801,24.215,47.386,36.726
					C2224.748,425.318,2226.604,423.485,2225.295,422.434L2225.295,422.434z"/>
			</g>
		</g>
		<g>
			<g>
				
					<linearGradient id="SVGID_00000172402599144746628380000015963432078487258757_" gradientUnits="userSpaceOnUse" x1="-854.6196" y1="404.5826" x2="2223.5286" y2="404.5826">
					<stop  offset="0" style="stop-color:#9FC53B"/>
					<stop  offset="1" style="stop-color:#020203"/>
				</linearGradient>
				<path style="fill:url(#SVGID_00000172402599144746628380000015963432078487258757_);" d="M2223.079,412.927
					c-157.798-125.247-340.108-225.184-538.691-266.233c-110.771-22.898-225.213-26.157-336.943-8.194
					c-103.837,16.694-203.452,51.732-299.811,93.095c-120.778,51.845-238.988,111.054-354.938,172.872
					c-94.615,50.443-184.993,109.101-280.625,157.49c-79.628,40.291-166.104,65.975-253.053,85.121
					c-106.088,23.36-214.881,34.154-323.49,32.277c-226.28-3.911-452.926-62.48-648.794-176.906
					c-13.304-7.772-26.443-15.817-39.43-24.107c-1.418-0.905-2.727,1.35-1.316,2.251
					c169.332,108.083,365.417,172.418,564.746,193.65c202.06,21.523,410.897-0.53,603.034-67.703
					c101.098-35.345,190.69-93.979,283.331-146.506c106.756-60.53,216.305-116.041,326.949-169.086
					c104.1-49.908,210.412-97.433,322.089-127.797c106.322-28.907,216.894-39.806,326.755-30.236
					c218.76,19.056,423.942,115.374,599.193,244.253c16.621,12.223,32.992,24.777,49.151,37.603
					C2222.536,415.803,2224.393,413.97,2223.079,412.927L2223.079,412.927z"/>
			</g>
		</g>
		<g>
			<g>
				
					<linearGradient id="SVGID_00000144302546572443773270000001647333319118043819_" gradientUnits="userSpaceOnUse" x1="-873.5817" y1="406.9377" x2="2221.3152" y2="406.9377">
					<stop  offset="0" style="stop-color:#9FC53B"/>
					<stop  offset="1" style="stop-color:#020203"/>
				</linearGradient>
				<path style="fill:url(#SVGID_00000144302546572443773270000001647333319118043819_);" d="M2220.863,403.42
					c-174.624-137.12-379.833-244.03-601.66-275.241c-115.98-16.319-234.133-10.457-347.948,17.042
					c-113.639,27.457-221.593,74.461-326.791,124.631c-122.154,58.256-242.996,119.887-360.34,187.357
					c-66.389,38.172-130.935,80.282-199.592,114.358c-64.118,31.823-132.331,53.238-201.368,71.512
					c-103.829,27.484-210.388,44.157-317.767,48.114c-241.717,8.907-487.744-45.613-698.185-166.35
					c-13.111-7.522-26.062-15.319-38.867-23.35c-1.425-0.894-2.735,1.361-1.316,2.251
					c183.152,114.877,397.376,177.302,612.68,188.979c121.026,6.564,242.752-3.07,361.418-27.591
					c75.467-15.594,151.442-35.653,223.2-63.96c62.571-24.683,120.334-58.634,178.001-92.911
					c98.622-58.62,198.761-114.083,301.157-165.872c217.602-110.055,442.929-222.701,692.594-220.804
					c243.24,1.848,474.73,102.703,669.404,243.308c18.121,13.088,35.954,26.565,53.534,40.37
					C2220.324,406.288,2222.182,404.456,2220.863,403.42L2220.863,403.42z"/>
			</g>
		</g>
	</g>
</g>
</svg>
