

<?xml version="1.0" encoding="iso-8859-1"?>
<!-- Generator: Adobe Illustrator 27.9.0, SVG Export Plug-In . SVG Version: 6.00 Build 0)  -->
<svg version="1.1" id="Laag_1" xmlns="http://www.w3.org/2000/svg" xmlns:xlink="http://www.w3.org/1999/xlink" x="0px" y="0px"
	 viewBox="0 0 255.118 170.079" style="enable-background:new 0 0 255.118 170.079;" xml:space="preserve">
<g>
	<polygon style="fill:#020203;" points="-1236.507,-471.763 -1236.507,779.053 770.311,779.053 770.311,452.513 773.276,452.513 
		773.276,-471.763 	"/>
</g>
<g>
	<defs>
		
			<rect id="SVGID_1_" x="-1236.101" y="-468.763" transform="matrix(-1 -4.561874e-11 4.561874e-11 -1 -465.3562 641.4731)" width="2006.845" height="1579"/>
	</defs>
	<clipPath id="SVGID_00000044135808844730797430000002231453011339147680_">
		<use xlink:href="#SVGID_1_"  style="overflow:visible;"/>
	</clipPath>
	<g style="clip-path:url(#SVGID_00000044135808844730797430000002231453011339147680_);">
		<g>
			<g>
				
					<linearGradient id="SVGID_00000005226103564705346240000003818125831726230704_" gradientUnits="userSpaceOnUse" x1="-1884.1072" y1="201.6373" x2="1018.0449" y2="201.6373">
					<stop  offset="0" style="stop-color:#9FC53B"/>
					<stop  offset="1" style="stop-color:#020203"/>
				</linearGradient>
				<path style="fill:url(#SVGID_00000005226103564705346240000003818125831726230704_);" d="M-1883.662,197.55
					c138.096,111.491,301.596,190.478,472.477,237.048c102.541,27.945,209.505,45.257,315.383,54.566
					c125.022,10.991,252.743,6.791,374.534-25.521c100.856-26.758,195.793-72.009,270.526-145.818
					c28.672-28.317,54.58-59.243,81.986-88.751c33.218-35.767,68.915-68.977,108.238-97.978
					c47.715-35.19,100.116-66.551,154.515-90.236C-62.677,21.996-16.958,8.438,28.442-4.389
					c61.77-17.453,124.178-32.628,186.701-47.118c67.974-15.753,136.064-33.594,206.071-36.684
					c209.015-9.224,394.026,91.882,559.005,209.279c11.934,8.492,23.843,17.022,35.925,25.304c1.387,0.951,2.693-1.307,1.316-2.251
					c-63.731-43.686-125.535-89.464-193.176-127.187C732.542-34.21,632.826-72.875,528.176-86.239
					c-58.829-7.513-118.63-6.837-177.195,2.653c-69.566,11.272-138.659,29.599-207.083,46.345
					C45.679-13.203-55.745,10.519-146.002,57.467c-52.705,27.415-103.203,59.26-148.923,97.297
					c-34.103,28.372-64.864,60.192-94.516,93.115c-26.824,29.783-53.195,60.073-83.064,86.898
					c-35.727,32.086-76.032,58.217-119.29,78.979c-219.108,105.161-473.204,87.758-705.486,44.276
					c-198.563-37.169-391.119-116.192-553.088-237.815c-10.629-7.982-21.107-16.161-31.449-24.511
					C-1883.112,194.662-1884.968,196.495-1883.662,197.55L-1883.662,197.55z"/>
			</g>
		</g>
		<g>
			<g>
				
					<linearGradient id="SVGID_00000088134790687461304020000017734916810246921357_" gradientUnits="userSpaceOnUse" x1="-1874.9381" y1="210.4431" x2="1022.6787" y2="210.4431">
					<stop  offset="0" style="stop-color:#9FC53B"/>
					<stop  offset="1" style="stop-color:#020203"/>
				</linearGradient>
				<path style="fill:url(#SVGID_00000088134790687461304020000017734916810246921357_);" d="M-1874.522,185.108
					c131.459,118.383,299.335,197.914,468.718,244.54c102.824,28.304,209.967,45.197,316.318,53.004
					c126.331,9.274,254.672,2.325,377.463-30.198c102.241-27.08,198-71.025,276.483-142.787
					c29.932-27.368,57.466-57.199,86.485-85.506c34.936-34.08,72.248-65.448,112.883-92.558
					c48.476-32.341,101.154-61.048,155.655-81.845c44.701-17.058,91.23-29.408,137.595-40.986
					C119.01-6.694,181.455-20.083,243.98-32.91c66.522-13.647,132.895-28.953,201.098-29.994
					c202.91-3.097,381.863,95.987,541.684,211.123c11.31,8.148,22.596,16.332,34.023,24.316c1.378,0.963,2.683-1.296,1.316-2.251
					c-61.755-43.149-121.961-87.895-187.67-125.08C744.268-5.82,646.288-44.694,543.29-59.256
					c-55.751-7.882-112.47-8.469-168.313-1.129c-68.337,8.983-136.354,25.529-203.684,40.109
					C73.043,0.998-29.087,21.322-120.643,64.247c-54.438,25.522-106.844,55.584-154.678,92.117
					c-34.272,26.174-65.637,55.643-95.97,86.229c-28.463,28.701-56.412,57.987-87.459,83.956
					c-37.244,31.153-78.572,56.699-122.647,77.011c-220.947,101.821-476.9,93.381-710.966,49.573
					c-197.511-36.966-393.074-116.488-549.96-243.921c-10.334-8.394-20.462-17.038-30.356-25.947
					C-1873.923,182.144-1875.772,183.982-1874.522,185.108L-1874.522,185.108z"/>
			</g>
		</g>
		<g>
			<g>
				
					<linearGradient id="SVGID_00000005248757755888755170000004149346706640665261_" gradientUnits="userSpaceOnUse" x1="-1865.7721" y1="219.8295" x2="1027.3124" y2="219.8295">
					<stop  offset="0" style="stop-color:#9FC53B"/>
					<stop  offset="1" style="stop-color:#020203"/>
				</linearGradient>
				<path style="fill:url(#SVGID_00000005248757755888755170000004149346706640665261_);" d="M-1865.383,172.666
					c129.363,127.225,304.894,209.38,478.344,255.671c219.769,58.652,461.56,71.942,682.55,13.695
					c103.007-27.15,200.165-69.028,282.29-137.719c67.872-56.769,128.082-120.25,203.958-167.114
					c48.815-30.15,101.466-56.461,155.668-75.405c44.338-15.496,90.268-26.482,136.064-36.678
					c61.144-13.613,122.733-25.199,184.376-36.3c65.31-11.762,130.71-25.625,197.32-26.174
					c200.837-1.657,378.395,96.239,536.107,211.263c11.358,8.283,22.68,16.616,34.13,24.773c1.369,0.975,2.672-1.285,1.316-2.251
					c-60.788-43.306-120.373-87.733-185.347-124.783C752.349,20.867,655.517-17.952,553.715-33.01
					C497.907-41.265,441.12-42.27,385.11-35.36c-65.212,8.045-130.211,21.746-194.748,33.994
					C91.989,17.302-9.86,35.009-102.371,74.728c-53.317,22.891-104.842,50.109-152.437,83.393
					c-35.929,25.127-69.079,53.714-101.332,83.344c-30.273,27.811-60.174,56.083-92.929,81.009
					c-37.721,28.706-78.901,52.39-122.316,71.366c-220.698,96.466-472.26,98.25-705.876,56.263
					c-199.128-35.789-399.048-115.937-553.553-249.183c-11.227-9.682-22.155-19.703-32.725-30.098
					C-1864.737,169.645-1866.582,171.487-1865.383,172.666L-1865.383,172.666z"/>
			</g>
		</g>
		<g>
			<g>
				
					<linearGradient id="SVGID_00000168076182416643229430000017930341149247632312_" gradientUnits="userSpaceOnUse" x1="-1856.6091" y1="229.0021" x2="1031.9457" y2="229.0021">
					<stop  offset="0" style="stop-color:#9FC53B"/>
					<stop  offset="1" style="stop-color:#020203"/>
				</linearGradient>
				<path style="fill:url(#SVGID_00000168076182416643229430000017930341149247632312_);" d="M-1856.244,160.224
					c127.687,135.067,308.832,220.26,486.412,266.307c213.005,55.234,442.849,61.594,656.878,8.98
					c106.918-26.283,209.699-65.725,298.283-132.104c69.91-52.386,132.471-112.827,208.457-156.998
					c49.58-28.821,102.734-53.376,157.254-71.235C-5.05,60.79,40.378,51.01,85.654,42.062
					c60.003-11.858,120.406-21.661,180.84-31.035C332.28,0.824,398.471-11.988,465.251-12.02
					c198.778-0.095,374.953,96.656,530.573,211.593c11.407,8.425,22.768,16.911,34.24,25.247c1.359,0.987,2.661-1.273,1.316-2.251
					c-59.821-43.467-118.793-87.592-183.032-124.522C760.396,47.485,664.735,8.747,564.113-6.898
					c-122.44-19.037-243.85,6.109-364.599,25.979C98.777,35.658-3.777,52.211-98.727,91.096
					c-91.663,37.538-171.43,90.19-247.14,153.377c-32.586,27.196-65.115,54.505-100.382,78.219
					c-43.001,28.915-89.437,52.118-137.863,70.472c-214.578,81.323-450.496,92.287-675.334,54.29
					c-202.058-34.148-406.7-115.61-559.953-254.813c-12.091-10.982-23.781-22.39-35.002-34.26
					C-1855.555,157.158-1857.396,159.004-1856.244,160.224L-1856.244,160.224z"/>
			</g>
		</g>
		<g>
			<g>
				
					<linearGradient id="SVGID_00000145029935966403002820000000496625111166281112_" gradientUnits="userSpaceOnUse" x1="-1847.4492" y1="237.7033" x2="1036.5787" y2="237.7033">
					<stop  offset="0" style="stop-color:#9FC53B"/>
					<stop  offset="1" style="stop-color:#020203"/>
				</linearGradient>
				<path style="fill:url(#SVGID_00000145029935966403002820000000496625111166281112_);" d="M-1847.105,147.781
					c126.547,142.331,311.913,230.925,493.96,276.747c205.944,51.837,424.678,52.081,631.354,4.27
					c110.13-25.477,217.711-62.349,312.305-125.297c73.646-49.009,139.971-107.507,218.192-149.708
					c92.418-49.861,190.366-78.329,293.293-95.945c60.862-10.417,122.086-18.666,183.321-26.53
					c63.701-8.181,127.871-18.96,192.261-18.199c196.372,2.321,370.526,98.143,523.775,212.856
					c11.12,8.324,22.19,16.714,33.348,24.986c1.349,1,2.65-1.262,1.316-2.251c-58.857-43.634-117.22-87.474-180.726-124.3
					C768.427,74.039,673.931,35.348,574.483,19.068C454.104-0.639,333.107,21.718,213.627,38.233
					c-100.2,13.85-201.62,28.106-296.737,63.877c-50.476,18.983-99.386,42.023-145.48,70.066
					c-37.344,22.72-72.44,48.699-107.322,74.975c-34.072,25.665-68.325,51.11-104.908,73.136
					c-45.713,27.522-94.45,49.495-144.849,66.928c-211.302,73.09-439.96,92.024-660.549,56.701
					c-203.936-32.656-411.314-116.069-562.505-260.186c-12.691-12.097-24.888-24.69-36.538-37.792
					C-1846.378,144.682-1848.217,146.531-1847.105,147.781L-1847.105,147.781z"/>
			</g>
		</g>
		<g>
			<g>
				
					<linearGradient id="SVGID_00000158713740896694710550000011424234737438972068_" gradientUnits="userSpaceOnUse" x1="-1838.2919" y1="246.3478" x2="1041.2115" y2="246.3478">
					<stop  offset="0" style="stop-color:#9FC53B"/>
					<stop  offset="1" style="stop-color:#020203"/>
				</linearGradient>
				<path style="fill:url(#SVGID_00000158713740896694710550000011424234737438972068_);" d="M-1837.965,135.339
					c126.071,149.441,315.004,241.796,502.185,287.277c198.82,48.309,407.199,42.945,606.305-1.009
					c112.722-24.884,224.072-59.341,323.991-118.184c76.407-44.996,145.971-100.43,225.395-140.463
					c93.13-46.941,191.441-73.814,294.152-88.925c59.763-8.792,119.851-15.317,179.934-21.47
					c64.133-6.567,128.983-15.935,193.565-14.561c194.839,4.148,367.825,99.386,519.331,214.378
					c10.832,8.221,21.608,16.515,32.452,24.72c1.338,1.012,2.638-1.25,1.316-2.251c-57.895-43.804-115.653-87.383-178.427-124.122
					c-85.777-50.202-179.131-88.917-277.406-105.857c-119.808-20.652-242.037-0.816-361.64,12.661
					C123.265,68.794,22.991,81.332-72.33,114.673c-92.366,32.307-173.996,80.74-254.668,135.24
					c-36.621,24.741-73.617,48.92-112.674,69.687c-50.696,26.955-104.165,47.959-159.014,64.787
					c-205.299,62.987-423.717,88.22-636.836,55.518c-205.333-31.508-413.881-116.943-562.772-265.316
					c-13.196-13.15-25.815-26.854-37.828-41.094C-1837.205,132.212-1839.041,134.064-1837.965,135.339L-1837.965,135.339z"/>
			</g>
		</g>
		<g>
			<g>
				
					<linearGradient id="SVGID_00000018198433623282407700000002836751648065302918_" gradientUnits="userSpaceOnUse" x1="-1829.1368" y1="254.7863" x2="1045.844" y2="254.7863">
					<stop  offset="0" style="stop-color:#9FC53B"/>
					<stop  offset="1" style="stop-color:#020203"/>
				</linearGradient>
				<path style="fill:url(#SVGID_00000018198433623282407700000002836751648065302918_);" d="M-1828.826,122.897
					c125.995,156.302,317.773,252.712,510.44,297.73c191.304,44.7,389.658,34.341,580.766-6.259
					c115.861-24.614,231.118-57.151,336.518-112.144c80.547-42.026,154.861-94.919,237.567-132.97
					c95.625-43.994,195.754-68.344,299.875-80.683c58.775-6.965,117.797-11.755,176.81-16.177
					c62.56-4.688,125.841-12.032,188.633-9.618c191.319,7.354,361.448,101.199,509.835,215.396
					c10.815,8.323,21.565,16.731,32.365,25.074c1.327,1.025,2.626-1.239,1.316-2.251c-56.541-43.676-113.297-86.734-174.858-123.237
					c-84.69-50.216-176.842-89.094-273.97-107.006c-53.806-9.923-108.584-13.145-163.177-9.529
					c-64.545,4.276-129.095,8.889-193.547,14.415C139.608,84.224,39.47,94.636-56.673,125.28
					c-92.89,29.607-176.177,75.304-259.282,125.377c-39.268,23.66-78.963,46.596-120.428,66.231
					c-55.334,26.201-113.036,46.158-171.908,62.748c-199.187,56.132-410.164,86.207-616.398,56.222
					c-206.455-30.016-415.151-117.612-561.975-269.18c-14.131-14.588-27.573-29.813-40.319-45.624
					C-1828.036,119.747-1829.87,121.602-1828.826,122.897L-1828.826,122.897z"/>
			</g>
		</g>
		<g>
			<g>
				
					<linearGradient id="SVGID_00000057832118852503431270000010303978743158454420_" gradientUnits="userSpaceOnUse" x1="-1819.9835" y1="263.6074" x2="1050.6544" y2="263.6074">
					<stop  offset="0" style="stop-color:#9FC53B"/>
					<stop  offset="1" style="stop-color:#020203"/>
				</linearGradient>
				<path style="fill:url(#SVGID_00000057832118852503431270000010303978743158454420_);" d="M-1819.687,110.455
					c123.52,159.484,312.012,259.784,505.944,305.28c185.851,43.6,376.327,30.421,562.036-7.466
					c117.274-23.925,234.818-53.857,344.255-103.106c83.563-37.605,161.403-86.642,245.45-123.221
					c95.703-41.652,195.974-66.191,299.607-76.701c56.118-5.691,112.464-9,168.789-11.83c64.249-3.228,129.322-8.785,193.656-6.736
					c193.546,6.165,366.489,100.358,515.831,216.912c10.867,8.481,21.656,17.06,32.478,25.598c1.303,1.028,3.16-0.804,1.843-1.843
					C916.459,221.824,772.861,127.485,602.429,95.378c-55.317-10.421-110.735-12.72-166.875-10.355
					c-63.822,2.688-127.657,5.301-191.418,9.228C142.352,100.52,41.879,110.423-56.04,140.217
					c-90.812,27.632-173.497,70.718-256.938,115.089c-43.165,22.954-86.917,44.76-132.21,63.238
					c-57.794,23.578-117.435,41.401-177.797,57.078c-193.2,50.178-397.514,84.105-596.976,55.303
					c-206.435-29.809-412.181-119.021-556.11-273.17c-14.684-15.726-28.599-32.134-41.772-49.144
					C-1818.869,107.287-1820.702,109.144-1819.687,110.455L-1819.687,110.455z"/>
			</g>
		</g>
		<g>
			<g>
				
					<linearGradient id="SVGID_00000036215462418093687420000007339666602254887299_" gradientUnits="userSpaceOnUse" x1="-1811.0033" y1="266.2073" x2="1055.2888" y2="266.2073">
					<stop  offset="0" style="stop-color:#9FC53B"/>
					<stop  offset="1" style="stop-color:#020203"/>
				</linearGradient>
				<path style="fill:url(#SVGID_00000036215462418093687420000007339666602254887299_);" d="M-1810.751,97.749
					c122.322,163.611,309.084,268.173,505.977,313.984c181.966,42.339,366.748,25.111,548.21-11.555
					c120.314-24.311,241.051-53.102,355.194-98.873c85.625-34.335,166.759-78.799,252.643-112.489
					c95.283-37.377,193.926-60.262,296.037-66.817c57.649-3.701,115.438-4.854,173.173-6.439
					c63.529-1.744,127.505-7.264,191.03-6.268c193.39,3.031,363.108,101.856,509.503,220.083
					c10.681,8.626,21.299,17.331,31.985,25.952c1.294,1.044,3.15-0.789,1.843-1.843c-54.992-44.363-109.894-88.472-169.916-126.003
					c-82.901-51.838-173.837-92.229-270.302-110.295c-55.052-10.31-109.675-11.261-165.453-8.691
					c-63.584,2.93-127.219,4.305-190.84,6.177c-53.288,1.568-106.687,3.295-159.752,8.679c-48.732,4.945-96.343,14.92-143.525,28.03
					c-89.898,24.979-173.344,64.214-257.538,103.645c-45.189,21.164-90.871,41.237-137.74,58.418
					c-59.356,21.758-120.166,38.461-181.497,53.611c-189.311,46.766-389.2,85.822-584.727,60.112
					c-207.84-27.33-413.375-119.003-556.141-275.173c-16.224-17.747-31.516-36.303-45.913-55.56
					C-1809.493,95.105-1811.757,96.403-1810.751,97.749L-1810.751,97.749z"/>
			</g>
		</g>
		<g>
			<g>
				
					<linearGradient id="SVGID_00000109009471245113644860000009744703932274541698_" gradientUnits="userSpaceOnUse" x1="-1801.8558" y1="257.4907" x2="1059.9232" y2="257.4907">
					<stop  offset="0" style="stop-color:#9FC53B"/>
					<stop  offset="1" style="stop-color:#020203"/>
				</linearGradient>
				<path style="fill:url(#SVGID_00000109009471245113644860000009744703932274541698_);" d="M-1801.612,85.307
					c120.833,166.788,304.875,275.669,503.884,321.971c81.527,18.968,164.239,26.818,247.863,23.565
					c96.716-3.762,192.735-19.504,287.479-38.574c120.23-24.2,241.031-51.144,356.95-91.614
					c88.417-30.869,173.245-70.878,261.435-102.292c95.346-33.963,194.039-56.604,295.273-61.481
					c55.633-2.68,111.378-2.44,167.059-2.398c63.812,0.048,127.687-2.01,191.476-1.571
					c196.072,1.351,368.378,100.989,515.751,222.025c10.724,8.807,21.373,17.704,32.079,26.532c1.285,1.059,3.139-0.775,1.843-1.843
					c-55.462-45.735-111.126-90.873-172.154-129.13c-82.997-52.028-174.185-92.282-270.895-110.024
					c-56.604-10.384-112.61-9.936-169.906-9.134c-62.926,0.881-125.856,0.305-188.784,0.606
					c-51.535,0.246-103.209,0.914-154.565,5.596c-49.701,4.531-98.673,14.586-146.934,27.137
					c-89.861,23.369-174.686,59.854-260.484,94.683c-106.306,43.155-214.73,75.309-326.406,101.407
					c-184.587,43.136-379.171,85.645-569.627,61.597c-208.122-26.278-411.392-121.034-551.644-279.128
					c-16.804-18.942-32.59-38.741-47.445-59.245C-1800.336,82.645-1802.599,83.945-1801.612,85.307L-1801.612,85.307z"/>
			</g>
		</g>
		<g>
			<g>
				
					<linearGradient id="SVGID_00000089534184365529917330000010774869370344845701_" gradientUnits="userSpaceOnUse" x1="-1792.7091" y1="248.3339" x2="1064.5575" y2="248.3339">
					<stop  offset="0" style="stop-color:#9FC53B"/>
					<stop  offset="1" style="stop-color:#020203"/>
				</linearGradient>
				<path style="fill:url(#SVGID_00000089534184365529917330000010774869370344845701_);" d="M-1792.473,72.865
					c118.608,168.404,298.012,281.558,497.43,328.929c79.901,18.98,160.895,26.827,242.92,22.927
					c91.205-4.336,181.649-19.989,271.061-37.776c120.77-24.025,242.225-49.467,360.261-84.747
					c92.246-27.571,181.687-63.19,273.264-92.73c94.509-30.485,192.287-52.657,291.577-58.827
					c118.063-7.337,236.898-0.368,354.893,5.016c112.356,5.127,219.916,34.601,320.281,85.202
					c75.348,37.988,144.946,86.16,210.228,139.432c11.032,9.002,21.948,18.145,32.837,27.319c1.275,1.074,3.129-0.761,1.843-1.843
					c-132.982-112.035-281.99-207.615-455.452-240.581c-57.966-11.016-116.679-12.561-175.475-15.055
					c-60.756-2.577-121.557-4.817-182.375-4.921c-101.326-0.173-200.112,9.113-298.7,33.148
					c-90.159,21.98-176.655,55.299-264.152,85.725c-112.238,39.03-226.51,67.711-342.447,93.4
					c-176.552,39.12-362.227,82.691-544.088,59.517c-206.965-26.373-405.624-123.69-542.679-282.522
					c-17.38-20.141-33.66-41.182-48.977-62.93C-1791.18,70.188-1793.442,71.489-1792.473,72.865L-1792.473,72.865z"/>
			</g>
		</g>
		<g>
			<g>
				
					<linearGradient id="SVGID_00000096022493990574394150000007058833006836461445_" gradientUnits="userSpaceOnUse" x1="-1783.5631" y1="246.3049" x2="1069.1912" y2="246.3049">
					<stop  offset="0" style="stop-color:#9FC53B"/>
					<stop  offset="1" style="stop-color:#020203"/>
				</linearGradient>
				<path style="fill:url(#SVGID_00000096022493990574394150000007058833006836461445_);" d="M-1783.333,60.422
					c117.09,170.544,292.972,288.417,493.799,336.54c78.051,18.703,157.111,26.323,237.245,21.692
					c87.633-5.064,174.39-21.237,260.301-38.516c120.138-24.163,240.829-48.501,359.463-79.267
					c96.703-25.078,191.405-56.802,287.546-83.803c94.392-26.51,191.491-47.063,289.587-52.411
					c117.003-6.379,234.686,3.223,351.307,12.042c59.525,4.501,117.761,11.776,175.352,28.043
					c52.209,14.747,102.763,35.024,151.143,59.525c75.948,38.461,146.1,87.278,211.546,141.538
					c11.09,9.195,22.051,18.543,32.963,27.948c1.265,1.09,3.117-0.746,1.843-1.843C935.779,317.298,784.57,221.058,609.69,187.455
					c-59.674-11.467-120.746-14.09-181.252-18.28c-59.843-4.144-119.768-7.684-179.756-8.702
					c-101.098-1.715-200.113,8.073-298.863,29.918c-90.51,20.022-178.532,49.251-267.302,75.616
					c-116.108,34.485-233.871,60.479-352.232,85.872c-99.667,21.383-199.639,43.396-300.83,56.367
					c-74.563,9.558-150.027,13.087-224.789,3.592c-206.539-26.23-401.233-126.579-535.572-286.515
					c-17.827-21.223-34.49-43.371-50.176-66.217C-1782.026,57.732-1784.286,59.035-1783.333,60.422L-1783.333,60.422z"/>
			</g>
		</g>
		<g>
			<g>
				
					<linearGradient id="SVGID_00000114068386040517692600000013127515835711555468_" gradientUnits="userSpaceOnUse" x1="-1774.4177" y1="253.1553" x2="1073.8247" y2="253.1553">
					<stop  offset="0" style="stop-color:#9FC53B"/>
					<stop  offset="1" style="stop-color:#020203"/>
				</linearGradient>
				<path style="fill:url(#SVGID_00000114068386040517692600000013127515835711555468_);" d="M-1774.194,47.98
					c58.726,87.538,132.185,164.698,219.214,224.48c83.141,57.112,177.055,97.443,275.115,120.666
					c76.835,18.196,154.533,25.022,233.292,19.183c86.138-6.386,171.221-23.86,255.656-41.332
					c57.037-11.803,113.984-24.039,171.015-35.872c63.168-13.107,126.413-25.331,188.686-42.342
					c96.971-26.489,190.637-63.7,287.666-89.833c44.068-11.869,88.999-20.663,134.591-23.723
					c48.223-3.236,95.126,2.605,143.097,6.045c115.866,8.308,232.269,2.85,348.194,11.136
					c62.972,4.501,125.219,12.217,186.145,29.234c52.983,14.799,104.321,35.201,153.419,59.97
					c77.955,39.326,149.894,89.503,216.571,145.695c11.151,9.397,22.156,18.964,33.092,28.61c1.254,1.106,3.105-0.731,1.843-1.843
					c-134.21-118.381-289.32-216.027-467.528-249.771c-120.12-22.745-244.537-19.672-366.262-21.653
					c-52.256-0.85-103.952-3.891-155.966-8.74c-44.861-4.182-90.042-3.133-134.666,3.068
					c-91.469,12.71-178.482,45.778-265.802,74.37c-53.618,17.557-107.657,33.817-162.487,47.179
					c-62.456,15.22-125.82,26.78-188.723,39.996c-97.762,20.54-195.442,42.959-294.318,57.593
					c-75.554,11.182-152.1,16.251-228.133,6.792c-206.732-25.72-397.992-129.544-530.098-290.751
					c-18.27-22.294-35.309-45.539-51.363-69.47C-1772.873,45.278-1775.132,46.582-1774.194,47.98L-1774.194,47.98z"/>
			</g>
		</g>
		<g>
			<g>
				
					<linearGradient id="SVGID_00000088836837093398472740000017659493846790109333_" gradientUnits="userSpaceOnUse" x1="-1765.2729" y1="260.0063" x2="1078.4578" y2="260.0063">
					<stop  offset="0" style="stop-color:#9FC53B"/>
					<stop  offset="1" style="stop-color:#020203"/>
				</linearGradient>
				<path style="fill:url(#SVGID_00000088836837093398472740000017659493846790109333_);" d="M-1765.055,35.538
					c59.046,89.892,132.595,170.02,220.79,232c80.747,56.746,172.198,97.162,268.064,120.313
					c75.688,18.278,152.319,25.133,229.943,18.569c83.491-7.061,165.782-25.304,247.584-42.713
					c54.304-11.557,108.585-23.222,163.003-34.236c64.005-12.954,128.371-24.115,191.972-38.995
					c101.166-23.667,199.91-56.461,301.028-80.187c44.763-10.503,90.163-18.619,136.095-21.586
					c47.655-3.078,93.935,1.402,141.217,6.683c114.93,12.838,231.088,9.57,346.253,19.991
					c63.785,5.772,127.252,14.289,188.972,31.823c53.579,15.221,105.49,36.042,155.116,61.294
					c78.587,39.987,151.129,90.917,217.993,148.237c11.212,9.612,22.264,19.407,33.223,29.306c1.242,1.122,3.092-0.716,1.843-1.843
					C943.123,362.34,784.774,263.541,604.041,228.873c-118.994-22.825-241.217-23.042-361.831-28.41
					c-52.17-2.322-103.537-8.623-155.469-13.265c-45.488-4.066-91.263-2.734-136.534,3.121
					c-93.05,12.035-182.956,41.215-273.058,66.243c-118.608,32.947-239.026,54.783-359.427,79.82
					c-94.663,19.685-188.974,42.248-284.5,57.475c-72.977,11.633-146.866,17.044-220.448,7.878
					c-206.304-25.698-393.446-132.859-523.04-294.823c-18.694-23.363-36.115-47.685-52.539-72.69
					C-1763.721,32.826-1765.98,34.13-1765.055,35.538L-1765.055,35.538z"/>
			</g>
		</g>
		<g>
			<g>
				
					<linearGradient id="SVGID_00000014621554720324188850000008530715487473028521_" gradientUnits="userSpaceOnUse" x1="-1756.1287" y1="266.8576" x2="1083.0906" y2="266.8576">
					<stop  offset="0" style="stop-color:#9FC53B"/>
					<stop  offset="1" style="stop-color:#020203"/>
				</linearGradient>
				<path style="fill:url(#SVGID_00000014621554720324188850000008530715487473028521_);" d="M-1755.916,23.096
					c59.077,91.696,132.246,174.365,220.913,238.426c77.883,56.27,166.302,96.92,259.46,120.285
					c74.581,18.706,150.405,26.079,227.049,19.085c80.003-7.301,158.67-25.93,236.962-43.189
					c116.697-25.725,234.115-46.533,351.249-69.963c106.876-21.378,212.085-50.333,319.021-71.329
					c93.106-18.281,185.459-25.207,279.653-11.533c114.541,16.628,230.894,16.001,345.857,28.906
					c64.337,7.222,128.587,17.152,190.765,35.561c53.668,15.889,105.653,37.233,155.341,62.963
					c78.441,40.619,150.906,92.01,217.378,150.049c11.189,9.77,22.205,19.734,33.108,29.822c1.23,1.138,3.078-0.701,1.843-1.843
					C948.142,385.855,788.06,286.399,606.527,249.593c-120.229-24.376-243.078-27.575-365.022-36.612
					c-51.668-3.829-102.693-12.718-154.264-16.832c-44.924-3.584-90.084-2.178-134.843,2.827
					c-96.52,10.793-190.851,36.288-285.232,58.262c-121.009,28.173-243.536,47.86-365.108,73.242
					c-90.846,18.967-181.102,41.599-272.603,57.283c-71.596,12.272-144.032,17.867-216.332,8.46
					c-205.004-26.673-386.717-136.907-513.424-299c-18.984-24.286-36.671-49.533-53.364-75.442
					C-1754.57,20.375-1756.828,21.68-1755.916,23.096L-1755.916,23.096z"/>
			</g>
		</g>
		<g>
			<g>
				
					<linearGradient id="SVGID_00000105405253317216634860000009709996971683688608_" gradientUnits="userSpaceOnUse" x1="-1746.9847" y1="273.7092" x2="1087.723" y2="273.7092">
					<stop  offset="0" style="stop-color:#9FC53B"/>
					<stop  offset="1" style="stop-color:#020203"/>
				</linearGradient>
				<path style="fill:url(#SVGID_00000105405253317216634860000009709996971683688608_);" d="M-1746.776,10.654
					c59.575,94.132,133.042,179.836,222.985,246.195c74.864,55.235,159.923,95.733,249.964,119.118
					c72.746,18.893,147.11,26.764,222.04,19.665c76.276-7.227,151.089-26.084,225.576-43.242
					c112.675-25.953,225.723-47.511,339.679-67c113.41-19.396,225.795-44.606,339.403-62.82
					c93.497-14.99,188.529-23.251,282.745-9.789c52.776,7.541,105.285,14.436,158.424,19.115
					c60.748,5.349,121.56,10.076,182.065,17.832C599.7,265.57,718.622,295.024,829.691,352.698
					c80.09,41.588,154.091,94.259,221.517,154.12c11.605,10.303,23.011,20.826,34.271,31.504c1.217,1.154,3.064-0.686,1.843-1.843
					C950.926,407.128,786.626,306.697,601.069,267.873C481.65,242.887,360.244,236.689,239.217,224.1
					c-50.896-5.294-101.249-15.503-152.298-19.114c-44.961-3.181-90.112-1.912-134.972,2.166
					c-102.275,9.297-203.063,31.459-303.748,50.874c-122.388,23.599-245.734,41.733-367.648,67.801
					c-153.861,32.899-312.097,87.015-471.224,64.283c-90.542-12.935-178.835-42.62-258.389-87.787
					c-96.049-54.532-177.894-131.02-244.341-218.863c-18.118-23.952-35.062-48.747-51.121-74.12
					C-1745.42,7.924-1747.677,9.231-1746.776,10.654L-1746.776,10.654z"/>
			</g>
		</g>
		<g>
			<g>
				
					<linearGradient id="SVGID_00000173883806257001546240000012312038596119436439_" gradientUnits="userSpaceOnUse" x1="-1737.8412" y1="280.5612" x2="1092.3552" y2="280.5612">
					<stop  offset="0" style="stop-color:#9FC53B"/>
					<stop  offset="1" style="stop-color:#020203"/>
				</linearGradient>
				<path style="fill:url(#SVGID_00000173883806257001546240000012312038596119436439_);" d="M-1737.637-1.788
					c108.094,173.632,263.228,316.419,463.749,371.255c70.555,19.295,143.221,27.921,216.198,21.151
					c73.038-6.775,144.453-25.742,215.542-42.954c107.32-25.983,215.147-48.758,324.366-65.28
					c121.505-18.381,242.609-40.275,364.598-55.286c93.858-11.55,189.15-18.233,283.357-6.671
					c53.162,6.525,105.803,16.455,159.074,22.539c61.469,7.021,123.061,13.03,184.281,22.07
					c123.8,18.28,243.979,49.421,355.365,107.591c82.197,42.927,158.13,97.318,226.825,159.507
					c11.667,10.562,23.119,21.358,34.401,32.331c1.203,1.17,3.049-0.671,1.843-1.843
					C952.608,427.09,783.922,327.281,593.329,284.408c-120.501-27.106-243.453-34.947-365.518-51.656
					c-47.984-6.569-95.287-16.115-143.706-19.196c-45.348-2.885-90.864-2.025-136.179,1.031
					c-107.271,7.234-213.623,25.444-319.682,42.368c-123.734,19.745-247.647,37.335-370.038,64.539
					c-148.997,33.118-300.083,86.795-454.529,62.096c-87.533-13.998-172.269-44.144-248.565-89.335
					c-93.869-55.599-173.243-132.726-238.082-220.031c-18.578-25.015-35.95-50.879-52.415-77.327
					C-1736.271-4.525-1738.527-3.218-1737.637-1.788L-1737.637-1.788z"/>
			</g>
		</g>
		<g>
			<g>
				
					<linearGradient id="SVGID_00000086668865050706022360000008494287246387497398_" gradientUnits="userSpaceOnUse" x1="-1728.698" y1="287.4134" x2="1096.9869" y2="287.4134">
					<stop  offset="0" style="stop-color:#9FC53B"/>
					<stop  offset="1" style="stop-color:#020203"/>
				</linearGradient>
				<path style="fill:url(#SVGID_00000086668865050706022360000008494287246387497398_);" d="M-1728.498-14.23
					c105.674,172.355,255.828,319.847,453.947,377.03c69.127,19.952,141.077,29.447,212.912,22.922
					c71.371-6.482,140.874-26.154,210.058-43.867c103.593-26.524,207.857-49.309,313.691-64.969
					c125.339-18.546,251.347-35.808,377.604-46.772c96.219-8.355,193.569-12.371,289.749-1.352
					c53.267,6.103,105.914,17.171,159.039,24.49c60.345,8.313,120.845,15.542,180.945,25.547
					c125.648,20.916,248.237,54.713,361.186,114.641c83.026,44.052,159.797,99.565,228.84,163.262
					c11.99,11.062,23.739,22.381,35.286,33.905c1.189,1.187,3.033-0.656,1.843-1.843c-57.425-57.31-120.421-109.013-188.648-152.982
					c-98.918-63.748-207.081-108.445-321.361-136.053c-120.793-29.182-244.515-39.241-366.865-59.353
					c-45.233-7.435-89.88-15.243-135.691-18.323c-47.192-3.174-94.561-3.145-141.806-1.242
					c-114.289,4.604-228.048,19.197-341.332,34.333c-120.589,16.113-240.62,33.433-359.204,61.037
					c-77.967,18.149-154.92,41.307-233.517,56.658c-69.284,13.532-138.917,16.466-208.656,4.329
					c-84.241-14.661-165.22-44.983-238.108-89.744c-92.528-56.822-170.175-135.032-233.955-222.419
					c-19.036-26.082-36.831-53.027-53.706-80.551C-1727.122-16.974-1729.378-15.666-1728.498-14.23L-1728.498-14.23z"/>
			</g>
		</g>
		<g>
			<g>
				
					<linearGradient id="SVGID_00000165951273327144811170000017584057984666962066_" gradientUnits="userSpaceOnUse" x1="-1719.5551" y1="294.2658" x2="1101.6184" y2="294.2658">
					<stop  offset="0" style="stop-color:#9FC53B"/>
					<stop  offset="1" style="stop-color:#020203"/>
				</linearGradient>
				<path style="fill:url(#SVGID_00000165951273327144811170000017584057984666962066_);" d="M-1719.359-26.673
					c103.514,171.24,249.277,323.429,445.187,382.972c67.534,20.526,138.578,30.725,209.099,24.587
					c68.87-5.994,135.654-25.877,202.081-43.938c99.286-26.996,199.299-49.977,301.113-65.275
					c128.327-19.282,258.22-30.456,387.924-34.2c100.342-2.897,200.725-0.646,300.907,5.511
					c112.573,6.919,224.481,18.203,334.842,42.229c126.668,27.576,253.329,65.476,367.875,127.086
					c85.182,45.817,163.966,103.286,234.324,169.611c12.05,11.359,23.839,22.988,35.405,34.839c1.174,1.203,3.016-0.641,1.843-1.843
					C1042.907,555.13,978.3,501.517,908.289,455.923c-102.767-66.927-214.77-111.395-332.389-144.745
					c-208.389-59.088-425.776-76.283-641.687-77.554c-236.281-1.391-475.935,20.469-705.709,76.758
					c-75.493,18.494-149.819,42.537-226.054,57.889c-68.93,13.881-137.974,15.362-207.187,2.343
					c-192.119-36.136-347.02-160.498-458.801-316.831c-18.962-26.52-36.706-53.875-53.57-81.772
					C-1717.974-29.422-1720.229-28.113-1719.359-26.673L-1719.359-26.673z"/>
			</g>
		</g>
		<g>
			<g>
				
					<linearGradient id="SVGID_00000025404988916393533160000004992760296825484695_" gradientUnits="userSpaceOnUse" x1="-1710.4125" y1="301.1184" x2="1106.2495" y2="301.1184">
					<stop  offset="0" style="stop-color:#9FC53B"/>
					<stop  offset="1" style="stop-color:#020203"/>
				</linearGradient>
				<path style="fill:url(#SVGID_00000025404988916393533160000004992760296825484695_);" d="M-1710.219-39.115
					c101.432,170.026,243.04,326.667,436.495,388.787c65.245,20.951,134.643,31.852,203.176,26.61
					c66.566-5.091,130.798-24.849,194.595-43.312c94.495-27.347,189.653-50.838,286.911-66.157
					c132.344-20.844,266.797-30.66,400.732-31.669c104.224-0.785,208.35,4.548,312.111,14.176
					c110.718,10.274,221.501,22.753,330.193,46.771c129.34,28.581,258.042,70.61,374.521,134.331
					c87.409,47.818,168.304,107.477,240.009,176.64c12.106,11.676,23.933,23.635,35.516,35.829c1.158,1.219,2.999-0.627,1.843-1.843
					c-59.256-62.384-125.495-118.07-197.326-165.456c-104.691-69.064-219.9-117.025-339.861-152.568
					c-117.838-34.914-238.694-54.618-360.697-67.783c-94.412-10.188-189.023-18.293-283.962-21.321
					c-239.154-7.629-482.365,11.552-714.245,72.428c-71.228,18.699-141.289,42.959-213.505,57.704
					c-68.287,13.943-136.78,13.834-205.093-0.099c-188.579-38.463-337.94-167.442-445.999-321.851
					c-18.772-26.824-36.392-54.418-53.164-82.533C-1708.827-41.87-1711.082-40.56-1710.219-39.115L-1710.219-39.115z"/>
			</g>
		</g>
		<g>
			<g>
				
					<linearGradient id="SVGID_00000182501384186694716400000014866521277462699710_" gradientUnits="userSpaceOnUse" x1="-1701.27" y1="307.9711" x2="1110.8801" y2="307.9711">
					<stop  offset="0" style="stop-color:#9FC53B"/>
					<stop  offset="1" style="stop-color:#020203"/>
				</linearGradient>
				<path style="fill:url(#SVGID_00000182501384186694716400000014866521277462699710_);" d="M-1701.08-51.557
					c99.982,169.668,238.639,331.194,430.87,395.466c63.653,21.282,131.924,32.382,199.054,27.398
					c64.919-4.82,127.204-24.945,189.041-43.996c90.491-27.879,181.678-51.75,275.24-66.947
					c133.621-21.703,269.681-30.481,404.992-29.03c109.611,1.175,218.955,9.781,327.689,23.424
					c109.724,13.767,219.934,28.91,327.828,53.401c230.689,52.363,449.2,156.064,618.692,323.273
					c12.413,12.246,24.52,24.794,36.353,37.602c1.141,1.235,2.981-0.612,1.843-1.843
					c-147.318-159.456-337.64-268.646-544.397-331.918c-116.546-35.665-236.75-54.864-357.172-71.931
					c-97.035-13.753-194.384-25.098-292.268-30.611c-239.513-13.489-484.532,2.838-716.274,67.378
					c-69.326,19.307-137.351,44.646-207.883,59.376c-66.242,13.835-133.078,12.945-199.25-1.032
					c-187.39-39.582-333.262-173.769-439.036-327.663c-18.714-27.228-36.299-55.2-53.071-83.662
					C-1699.68-54.317-1701.934-53.007-1701.08-51.557L-1701.08-51.557z"/>
			</g>
		</g>
		<g>
			<g>
				
					<linearGradient id="SVGID_00000129896508869160285900000000803463990249271686_" gradientUnits="userSpaceOnUse" x1="-1692.1279" y1="314.8239" x2="1115.5105" y2="314.8239">
					<stop  offset="0" style="stop-color:#9FC53B"/>
					<stop  offset="1" style="stop-color:#020203"/>
				</linearGradient>
				<path style="fill:url(#SVGID_00000129896508869160285900000000803463990249271686_);" d="M-1691.941-63.999
					c98.347,168.826,233.778,334.689,423.919,401.589c61.543,21.654,128.082,33.108,193.368,29.046
					c64.195-3.994,125.38-24.322,186.077-44.162c86.934-28.415,174.49-53.002,264.757-68.461
					c135.283-23.168,273.385-30.941,410.499-27.262c114.989,3.086,229.536,14.885,343.142,32.688
					c106.704,16.721,213.794,35.244,319.049,59.445c234.735,53.972,456.896,164.625,627.304,336.846
					c12.705,12.841,25.075,26.005,37.144,39.445c1.123,1.251,2.962-0.598,1.843-1.843
					C967.846,529.275,772.169,411.298,562.149,346.402c-114.714-35.447-233.653-55.373-351.7-76.122
					c-99.365-17.465-199.265-31.739-299.883-39.599c-240.451-18.782-487.405-4.97-719.493,63.908
					c-66.948,19.868-132.547,45.923-200.987,60.411c-65.884,13.948-132.93,11.971-198.499-2.922
					c-182.737-41.508-323.316-178.358-425.769-328.932c-19.592-28.793-37.98-58.372-55.508-88.461
					C-1690.534-66.764-1692.788-65.453-1691.941-63.999L-1691.941-63.999z"/>
			</g>
		</g>
		<g>
			<g>
				
					<linearGradient id="SVGID_00000038385796246690437330000018396295368249701535_" gradientUnits="userSpaceOnUse" x1="-1692.9325" y1="292.4084" x2="1110.8685" y2="292.4084">
					<stop  offset="0" style="stop-color:#9FC53B"/>
					<stop  offset="1" style="stop-color:#020203"/>
				</linearGradient>
				<path style="fill:url(#SVGID_00000038385796246690437330000018396295368249701535_);" d="M1110.523,666.759
					C971.853,511.434,789.554,398.881,592.68,333.092c-116.975-39.089-238.542-59.314-359.96-78.953
					c-117.978-19.083-236.223-34.975-355.711-40.527c-233.556-10.853-471.03,7.252-696.301,71.995
					c-65.405,18.797-130.242,42.142-197.674,52.762c-66.686,10.503-134.423,5.015-199.651-11.706
					c-178.506-45.761-317.099-178.792-419.811-326.373c-19.007-27.31-36.92-55.353-54.058-83.87
					c-0.863-1.436-3.118-0.127-2.251,1.316c98.902,164.566,232.676,323.627,417.213,393.074
					c61.003,22.957,127.075,36.318,192.37,35.748c64.052-0.559,125.755-17.05,186.71-35.262
					c83.089-24.826,166.023-48.721,251.476-64.205c129.781-23.516,262.578-32.942,394.372-33.549
					c129.807-0.598,259.126,9.672,387.543,28.334c115.674,16.811,232.252,34.25,345.813,62.235
					c221.756,54.649,431.46,164.01,591.897,328.049c11.622,11.883,22.953,24.046,34.022,36.445
					C1109.799,669.857,1111.637,668.008,1110.523,666.759L1110.523,666.759z"/>
			</g>
		</g>
		<g>
			<g>
				
					<linearGradient id="SVGID_00000135677527225558379120000005731735057738831291_" gradientUnits="userSpaceOnUse" x1="-1693.7374" y1="269.9931" x2="1106.2266" y2="269.9931">
					<stop  offset="0" style="stop-color:#9FC53B"/>
					<stop  offset="1" style="stop-color:#020203"/>
				</linearGradient>
				<path style="fill:url(#SVGID_00000135677527225558379120000005731735057738831291_);" d="M1105.883,640.185
					c-133.147-150.019-307.187-258.93-496.055-324.577c-119.389-41.497-243.664-62.773-368.412-80.655
					c-113.857-16.321-227.736-31.356-342.805-35.612c-132.396-4.897-264.866,1.185-396.639,14.351
					c-103.238,10.315-205.07,28.784-305.369,55.27c-68.77,18.16-137.135,40.907-207.894,50.131
					c-67.679,8.822-136.079,2.334-201.91-15.116c-177.739-47.115-317.638-176.183-422.633-322.466
					c-19.467-27.123-37.849-54.993-55.449-83.36c-0.883-1.423-3.139-0.115-2.251,1.316
					c101.241,163.178,236.647,318.09,420.43,387.981c62.121,23.624,129.062,37.802,195.628,38.358
					c65.834,0.55,129.66-14.684,192.769-31.927c86.309-23.581,172.38-46.556,260.783-61.118
					c129.717-21.368,262.296-30.586,393.676-32.33c125.757-1.669,250.861,7.029,375.484,23.611
					c118.22,15.73,237.326,31.45,353.051,60.879c214.836,54.634,417.577,161.837,572.742,321.528
					c11.276,11.605,22.27,23.477,33.011,35.578C1105.155,643.286,1106.993,641.437,1105.883,640.185L1105.883,640.185z"/>
			</g>
		</g>
		<g>
			<g>
				
					<linearGradient id="SVGID_00000042708586353521365940000011099713527037173902_" gradientUnits="userSpaceOnUse" x1="-1694.5426" y1="247.5781" x2="1101.5846" y2="247.5781">
					<stop  offset="0" style="stop-color:#9FC53B"/>
					<stop  offset="1" style="stop-color:#020203"/>
				</linearGradient>
				<path style="fill:url(#SVGID_00000042708586353521365940000011099713527037173902_);" d="M1101.243,613.612
					C972.28,467.435,804.182,361.062,621.065,296.025c-114.69-40.734-233.994-62.964-354.375-78.763
					C149.205,201.843,31.372,187.231-87.19,184.025c-128.739-3.481-257.438,4.219-385.523,16.787
					c-106.65,10.465-211.767,27.383-315.91,52.727c-71.142,17.313-142.068,38.861-215.118,46.592
					c-69.99,7.406-140.426-0.523-208.117-19.247c-177.092-48.988-318.051-175.353-425.119-320.589
					c-19.289-26.165-37.564-53.045-55.103-80.41c-0.903-1.408-3.16-0.102-2.251,1.316
					c103.221,161.051,239.604,311.691,421.71,382.305c63.772,24.729,132.379,40.051,200.844,41.956
					c67.851,1.888,134.03-12.015,199.514-28.292c89.142-22.157,177.943-44.236,268.871-58.038
					c127.899-19.414,258.391-29.363,387.682-32.543c125.33-3.082,249.821,4.751,374.218,19.727
					c118.391,14.253,237.271,28.484,352.862,58.713c209.358,54.749,406.181,160.089,556.935,316.658
					c10.615,11.024,20.971,22.292,31.095,33.767C1100.511,616.715,1102.349,614.866,1101.243,613.612L1101.243,613.612z"/>
			</g>
		</g>
		<g>
			<g>
				
					<linearGradient id="SVGID_00000057133739104372828530000015666154576873936310_" gradientUnits="userSpaceOnUse" x1="-1695.3481" y1="225.1635" x2="1096.9426" y2="225.1635">
					<stop  offset="0" style="stop-color:#9FC53B"/>
					<stop  offset="1" style="stop-color:#020203"/>
				</linearGradient>
				<path style="fill:url(#SVGID_00000057133739104372828530000015666154576873936310_);" d="M1096.603,587.038
					C973.645,446.814,814.07,343.291,639.561,278.958c-113.85-41.971-232.39-66.015-352.571-80.891
					c-115.84-14.338-232.629-26.872-349.375-29.731c-127.977-3.134-255.89,6.416-383.138,19.217
					c-109.167,10.982-216.94,25.879-324.083,49.785c-73.881,16.485-147.639,37.087-223.28,43.757
					c-73.038,6.441-146.213-2.796-216.554-22.944c-176.745-50.626-319.039-174.443-428.406-318.658
					c-19.214-25.336-37.469-51.371-55.03-77.875c-0.923-1.392-3.181-0.088-2.251,1.316
					c105.647,159.451,243.667,306.436,425.08,377.479c65.41,25.615,135.633,41.943,205.9,44.975
					c70.518,3.043,139.629-10.007,208.073-25.549c91.787-20.843,183.229-41.797,276.579-54.644
					c126.997-17.477,256.077-28.904,384.198-33.323c123.381-4.255,245.844,3.203,368.501,16.172
					c119.293,12.613,238.485,26.319,354.533,57.887c202.773,55.159,392.37,158.423,537.996,311.173
					c9.901,10.386,19.568,20.99,29.028,31.778C1095.868,590.145,1097.705,588.295,1096.603,587.038L1096.603,587.038z"/>
			</g>
		</g>
		<g>
			<g>
				
					<linearGradient id="SVGID_00000021799087521726505580000000247358957209565327_" gradientUnits="userSpaceOnUse" x1="-1696.1538" y1="202.7493" x2="1092.3005" y2="202.7493">
					<stop  offset="0" style="stop-color:#9FC53B"/>
					<stop  offset="1" style="stop-color:#020203"/>
				</linearGradient>
				<path style="fill:url(#SVGID_00000021799087521726505580000000247358957209565327_);" d="M1091.963,560.464
					c-118.435-135.906-272.11-237.829-440.501-301.08c-112.142-42.123-228.935-67.385-347.713-81.542
					c-114.694-13.671-230.929-23.715-346.432-25.965c-125.107-2.438-249.514,8.867-373.792,21.876
					c-112.171,11.742-223.42,25.263-333.983,47.898c-77.025,15.769-154.04,35.525-232.723,40.912
					c-76.027,5.205-151.903-5.616-224.779-27.344c-173.761-51.808-315.733-170.681-426.601-311.215
					c-20.653-26.179-40.26-53.151-59.111-80.652c-0.943-1.375-3.203-0.073-2.251,1.316
					c107.716,157.145,246.68,300.1,426.451,371.912c67.052,26.785,138.928,44.402,211.067,48.902
					c73.183,4.565,145.245-7.283,216.669-22.022c97.787-20.179,195.135-40.824,294.37-52.852
					c122.891-14.895,246.738-28.695,370.446-34.216c121.981-5.444,243.156,1.756,364.63,12.545
					c119.256,10.593,237.925,24.627,353.513,57.048c196.679,55.166,379.688,156.301,520.712,305.264
					c9.613,10.154,19,20.518,28.187,31.059C1091.224,563.575,1093.061,561.724,1091.963,560.464L1091.963,560.464z"/>
			</g>
		</g>
		<g>
			<g>
				
					<linearGradient id="SVGID_00000109736483859263796900000010460854686193387675_" gradientUnits="userSpaceOnUse" x1="-1696.9597" y1="180.3355" x2="1087.6583" y2="180.3355">
					<stop  offset="0" style="stop-color:#9FC53B"/>
					<stop  offset="1" style="stop-color:#020203"/>
				</linearGradient>
				<path style="fill:url(#SVGID_00000109736483859263796900000010460854686193387675_);" d="M1087.323,533.89
					c-112.916-130.395-259.162-230.2-419.696-292.573c-112.129-43.567-229.469-70.384-348.809-84.351
					c-114.303-13.378-230.601-20.808-345.669-22.222c-120.871-1.485-240.657,10.388-360.529,24.514
					c-112.971,13.313-225.754,25.145-337.654,46.03c-80.318,14.991-160.652,34.061-242.453,38.789
					c-79.763,4.61-159.029-7.367-235.301-30.6c-173.714-52.913-317.443-169.078-430.962-308.322
					c-21.175-25.974-41.327-52.745-60.721-80.071c-0.963-1.357-3.225-0.056-2.251,1.316
					c110.837,156.172,252.352,296.333,432.726,368.352c69.252,27.651,143.289,46.248,217.75,51.52
					c76.256,5.4,151.602-6.009,226.326-20.136c103.112-19.494,205.775-39.005,310.223-50.188
					c117.237-12.552,234.041-29.572,351.868-35.858c119.239-6.362,237.993,0.264,356.94,8.654
					c120.694,8.513,240.679,23.834,357.149,57.649c190.061,55.181,366.007,154.387,502.054,299.198
					c9.262,9.859,18.309,19.916,27.164,30.141C1086.58,537.004,1088.417,535.154,1087.323,533.89L1087.323,533.89z"/>
			</g>
		</g>
		<g>
			<g>
				
					<linearGradient id="SVGID_00000129172839077180352610000011161506163696635314_" gradientUnits="userSpaceOnUse" x1="-1697.7659" y1="157.9221" x2="1083.0162" y2="157.9221">
					<stop  offset="0" style="stop-color:#9FC53B"/>
					<stop  offset="1" style="stop-color:#020203"/>
				</linearGradient>
				<path style="fill:url(#SVGID_00000129172839077180352610000011161506163696635314_);" d="M1082.683,507.316
					C973.603,380.539,832.601,282.71,677.49,220.787c-109.68-43.786-225.368-71.104-342.524-84.93
					c-114.7-13.536-231.652-18.439-347.109-18.858c-116.315-0.422-231.326,11.228-346.447,26.759
					c-113.395,15.298-227.283,26.421-340.117,45.666c-84.655,14.438-169.401,33.131-255.44,36.812
					c-83.942,3.592-167.037-10.165-246.967-35.475c-173.195-54.844-317.966-168.954-433.744-306.844
					c-21.002-25.013-41.06-50.79-60.41-77.1c-0.984-1.337-3.247-0.038-2.251,1.316c113.018,153.674,255.461,290.078,434.242,362.943
					c72.351,29.488,149.672,49.789,227.617,56.249c78.754,6.527,156.854-3.914,234.345-17.257
					c47.188-8.125,94.262-16.886,141.543-24.468c60.702-9.734,121.665-16.392,182.66-23.869
					c110.994-13.606,221.513-31.3,333.208-38.358c120.726-7.629,241.882-2.389,362.496,4.946
					c118.183,7.187,235.538,23.58,349.24,57.367c184.581,54.849,354.795,152.669,486.615,293.99
					c8.999,9.647,17.788,19.485,26.393,29.485C1081.935,510.434,1083.772,508.583,1082.683,507.316L1082.683,507.316z"/>
			</g>
		</g>
		<g>
			<g>
				
					<linearGradient id="SVGID_00000034089743397382269470000003015417435339084442_" gradientUnits="userSpaceOnUse" x1="-1698.5721" y1="135.5091" x2="1078.374" y2="135.5091">
					<stop  offset="0" style="stop-color:#9FC53B"/>
					<stop  offset="1" style="stop-color:#020203"/>
				</linearGradient>
				<path style="fill:url(#SVGID_00000034089743397382269470000003015417435339084442_);" d="M1078.043,480.743
					c-104.916-122.74-240.177-218.427-389.271-279.921C469.886,110.541,232.45,96.808-1.61,98.649
					c-114.439,0.9-227.439,12.799-340.424,30.214c-111.506,17.187-223.751,28.518-335.186,46.057
					c-87.804,13.82-175.792,31.655-264.9,33.984c-87.148,2.277-173.116-13.273-255.793-40.3
					c-172.639-56.434-318.601-168.207-436.768-304.397c-21.291-24.538-41.681-49.829-61.383-75.658
					c-1.004-1.316-3.269-0.019-2.251,1.316c115.649,151.616,259.657,284.845,437.72,358.377
					c74.179,30.633,153.215,52.313,233.159,60.256c82.818,8.228,165.209-1.443,247.016-14.314
					c47.909-7.538,95.711-15.737,143.688-22.84c60.169-8.908,120.664-14.963,180.923-23.143
					c108.743-14.762,216.656-34.441,326.261-42.175c119.049-8.4,239.266-5.555,358.371,0.695
					c119.533,6.272,238.054,23.69,352.695,58.762c178.676,54.663,342.881,151.595,470.02,289.319
					c8.401,9.1,16.614,18.369,24.661,27.784C1077.291,483.863,1079.128,482.012,1078.043,480.743L1078.043,480.743z"/>
			</g>
		</g>
		<g>
			<g>
				
					<linearGradient id="SVGID_00000143578632573344087300000012849122127901408675_" gradientUnits="userSpaceOnUse" x1="-1699.2124" y1="113.0071" x2="1073.7317" y2="113.0071">
					<stop  offset="0" style="stop-color:#9FC53B"/>
					<stop  offset="1" style="stop-color:#020203"/>
				</linearGradient>
				<path style="fill:url(#SVGID_00000143578632573344087300000012849122127901408675_);" d="M1073.403,454.169
					C971.539,334.202,840.296,239.965,695.405,178.938c-107.738-45.378-222.867-73.608-338.82-87.403
					C241.559,77.851,124.482,77.318,8.795,79.712c-113.963,2.358-226.476,14.524-338.693,34.1
					c-49.51,8.637-98.997,17.148-148.778,24.106c-58.605,8.191-117.472,14.211-176.043,22.759
					c-90.419,13.196-181.098,30.109-272.727,31.281c-92.214,1.179-182.879-16.649-269.961-46.325
					c-172.428-58.76-319.594-169.381-440.094-304.536c-20.578-23.08-40.367-46.838-59.563-71.077
					c-1.041-1.315-2.875,0.541-1.843,1.843c118.809,150.029,265.122,280.489,443.361,354.598
					c77.223,32.108,159.348,55.317,242.606,64.192c85.245,9.088,170.249,0.223,254.702-11.964
					c50.12-7.232,100.132-15.193,150.311-22.021c59.14-8.047,118.483-14.108,177.485-23.206
					c105.231-16.227,209.18-37.167,315.551-45.346c118.726-9.129,239.189-9.002,358.105-3.256
					c119.836,5.791,238.452,24.515,353.009,60.635c171.793,54.167,329.397,150.207,451.365,283.317
					c8.165,8.911,16.149,17.985,23.972,27.198C1072.647,457.293,1074.483,455.441,1073.403,454.169L1073.403,454.169z"/>
			</g>
		</g>
		<g>
			<g>
				
					<linearGradient id="SVGID_00000114766221128596841200000003718417358064409254_" gradientUnits="userSpaceOnUse" x1="-1700.0225" y1="90.5926" x2="1069.0895" y2="90.5926">
					<stop  offset="0" style="stop-color:#9FC53B"/>
					<stop  offset="1" style="stop-color:#020203"/>
				</linearGradient>
				<path style="fill:url(#SVGID_00000114766221128596841200000003718417358064409254_);" d="M1068.763,427.595
					C969.793,310.243,842.38,217.431,701.5,156.794C596.305,111.517,483.48,83.256,369.94,69.31
					c-115.05-14.132-231.757-13.14-347.425-9.278c-114.474,3.822-227.752,16.08-340.185,37.913
					c-46.017,8.936-91.92,18.336-138.234,25.645c-58.024,9.156-116.485,15.062-174.683,22.992
					c-93.71,12.769-187.765,29.008-282.617,28.912c-95.715-0.096-189.513-19.834-279.624-51.369
					c-173.074-60.57-322.292-169.93-445.864-304.204c-20.381-22.146-40.045-44.929-59.17-68.167
					c-1.067-1.296-2.902,0.557-1.843,1.843c121.808,148.004,269.986,275.746,447.943,350.636
					c80.111,33.713,165.122,58.678,251.563,68.806c88.992,10.426,177.906,2.217,266.313-9.576
					c52.054-6.943,104.001-14.653,156.104-21.229c54.987-6.94,109.859-13.368,164.442-23.167
					c104.173-18.701,206.861-40.435,312.583-49.377c118.84-10.052,239.791-12.671,358.948-7.095
					c119.968,5.614,238.623,25.683,352.913,62.898c165.173,53.783,316.592,149.483,433.426,278.323
					c7.62,8.403,15.076,16.953,22.389,25.624C1068.003,430.723,1069.839,428.871,1068.763,427.595L1068.763,427.595z"/>
			</g>
		</g>
		<g>
			<g>
				
					<linearGradient id="SVGID_00000088121581736293047560000006813157775604395953_" gradientUnits="userSpaceOnUse" x1="-1700.833" y1="68.1785" x2="1064.4471" y2="68.1785">
					<stop  offset="0" style="stop-color:#9FC53B"/>
					<stop  offset="1" style="stop-color:#020203"/>
				</linearGradient>
				<path style="fill:url(#SVGID_00000088121581736293047560000006813157775604395953_);" d="M1064.123,401.021
					c-96.142-114.79-219.776-206.146-356.692-266.458C604.15,89.067,493.089,60.757,381.262,46.624
					C266.963,32.178,151.46,34.173,36.61,39.569C-78.138,44.96-192.186,57.317-304.64,81.104
					c-42.457,8.98-84.684,19.044-127.345,27.043c-57.641,10.807-115.794,17.113-173.918,24.595
					c-95.692,12.318-191.79,27.745-288.541,26.8c-100.735-0.983-199.093-22.751-293.637-56.742
					c-172.956-62.182-323.656-169.721-450.061-302.187c-20.803-21.801-40.918-44.238-60.516-67.127
					c-1.093-1.276-2.93,0.575-1.843,1.843c125.527,146.597,276.438,272.215,455.24,347.907
					c82.853,35.074,170.47,61.578,259.87,72.84c92.188,11.613,184.502,4.07,276.295-7.35
					c104.643-13.019,210.212-23.557,313.502-45.176C-292.906,82.057-191.538,60.5-86.819,50.675
					c235.764-22.12,478.723-23.386,705.606,52.411c160.898,53.752,308.14,148.443,421.721,274.679
					c7.409,8.235,14.66,16.609,21.772,25.101C1063.358,404.152,1065.194,402.3,1064.123,401.021L1064.123,401.021z"/>
			</g>
		</g>
		<g>
			<g>
				
					<linearGradient id="SVGID_00000085950072517663832800000015745856802219043487_" gradientUnits="userSpaceOnUse" x1="-1701.6438" y1="45.7648" x2="1059.8047" y2="45.7648">
					<stop  offset="0" style="stop-color:#9FC53B"/>
					<stop  offset="1" style="stop-color:#020203"/>
				</linearGradient>
				<path style="fill:url(#SVGID_00000085950072517663832800000015745856802219043487_);" d="M1059.483,374.448
					c-93.576-112.518-213.774-202.48-347.093-262.552c-101.747-45.846-211.406-74.2-321.934-88.448
					C274.873,8.549,158.37,11.464,42.339,18.822c-113.834,7.219-227.44,20.375-338.754,45.745
					c-41.179,9.385-82.002,20.289-123.278,29.254c-53.849,11.695-108.182,18.735-162.821,25.488
					c-97.988,12.112-196.439,26.86-295.44,24.788c-104.885-2.196-207.028-26.161-305.151-62.406
					c-173.075-63.93-325.443-170.018-454.821-300.802c-21.101-21.331-41.558-43.279-61.529-65.67
					c-1.119-1.255-2.957,0.594-1.843,1.843c128.847,144.461,281.787,267.739,460.561,344.441
					c85.768,36.798,176.251,65.209,268.873,77.877c95.441,13.054,191.179,6.366,286.435-4.778
					c100.999-11.816,202.217-22.624,301.275-46.246c42.799-10.206,85.4-21.165,128.528-29.941
					c58.974-12,118.601-20.581,178.432-26.959C158.065,6.379,399.495,2.608,625.924,80.45
					c156.892,53.937,300.126,147.502,410.686,271.408c7.155,8.019,14.159,16.17,21.03,24.432
					C1058.714,377.582,1060.549,375.729,1059.483,374.448L1059.483,374.448z"/>
			</g>
		</g>
		<g>
			<g>
				
					<linearGradient id="SVGID_00000034055909187903471920000018001665793674825632_" gradientUnits="userSpaceOnUse" x1="-1702.4547" y1="23.3517" x2="1055.1622" y2="23.3517">
					<stop  offset="0" style="stop-color:#9FC53B"/>
					<stop  offset="1" style="stop-color:#020203"/>
				</linearGradient>
				<path style="fill:url(#SVGID_00000034055909187903471920000018001665793674825632_);" d="M1054.843,347.874
					C962.834,236.442,844.45,146.995,712.989,87.232C610.919,40.829,500.799,12.463,389.67-1.214
					C274.308-15.411,158.327-11.477,42.759-2.058c-114.587,9.34-229.271,24.232-340.974,51.959
					c-39.472,9.798-78.507,21.276-118.022,30.9c-51.45,12.53-103.453,20.406-155.979,26.798
					c-95.498,11.621-191.494,24.539-287.924,21.582c-106.626-3.27-210.296-28.301-309.968-65.444
					c-176.181-65.654-332.78-171.325-467.185-302.218c-21.54-20.977-42.479-42.552-62.957-64.565
					c-1.145-1.231-2.985,0.616-1.843,1.843c133.664,143.686,290.455,265.69,471.487,343.496
					c90.014,38.687,184.751,68.965,282.037,82.185c91.822,12.477,184.08,7.571,275.876-2.4
					c97.638-10.606,194.806-21.941,289.923-47.136c41.54-11.004,82.91-22.545,124.882-31.841
					c59.187-13.109,119.153-22.596,179.289-30.118c236.349-29.56,478.762-36.16,706.745,43.082
					c154.775,53.796,295.87,147.046,404.534,269.859c6.913,7.813,13.68,15.751,20.322,23.795
					C1054.069,351.012,1055.904,349.159,1054.843,347.874L1054.843,347.874z"/>
			</g>
		</g>
		<g>
			<g>
				
					<linearGradient id="SVGID_00000168074679134677709820000015636695728187745932_" gradientUnits="userSpaceOnUse" x1="-1703.2659" y1="0.939" x2="1050.5198" y2="0.939">
					<stop  offset="0" style="stop-color:#9FC53B"/>
					<stop  offset="1" style="stop-color:#020203"/>
				</linearGradient>
				<path style="fill:url(#SVGID_00000168074679134677709820000015636695728187745932_);" d="M1050.203,321.3
					C959.674,210.855,843.051,121.994,713.374,62.414c-102.318-47.01-212.826-75.302-324.485-88.477
					C273.804-39.643,158.24-34.75,43.211-23.32C-72.248-11.848-188.123,5.017-300.323,35.096
					c-38.019,10.192-75.512,22.219-113.493,32.539c-49.164,13.359-99.052,22.302-149.606,28.452
					c-92.67,11.274-185.883,22.486-279.416,18.658c-104.842-4.291-206.936-28.93-305.092-65.264
					c-181.999-67.37-345.222-173.303-486.805-305.616c-22.65-21.167-44.712-42.945-66.314-65.179
					c-1.171-1.205-3.014,0.639-1.843,1.843c138.693,142.752,299.389,263.675,482.722,342.837
					c92.829,40.083,190.245,71.954,290.596,86.126c89.291,12.611,179.166,9.429,268.621,0.365
					c94.421-9.568,187.468-21.798,278.75-48.475c40.488-11.833,80.854-23.946,121.899-33.751
					C-202.49,13.822-143.84,3.555-85.043-5.035C152.886-39.796,397.6-49.77,627.902,30.732
					c153.294,53.584,292.846,146.423,400.147,268.469c6.911,7.861,13.676,15.847,20.311,23.942
					C1049.424,324.442,1051.259,322.588,1050.203,321.3L1050.203,321.3z"/>
			</g>
		</g>
		<g>
			<g>
				
					<linearGradient id="SVGID_00000124140844911462578210000000483260599437993638_" gradientUnits="userSpaceOnUse" x1="-1704.0771" y1="-21.4732" x2="1045.8772" y2="-21.4732">
					<stop  offset="0" style="stop-color:#9FC53B"/>
					<stop  offset="1" style="stop-color:#020203"/>
				</linearGradient>
				<path style="fill:url(#SVGID_00000124140844911462578210000000483260599437993638_);" d="M1045.563,294.726
					C955.759,184.345,839.704,95.462,710.508,36.042C608.304-10.963,497.896-38.931,386.249-51.312
					C268.513-64.369,150.414-57.873,33.11-43.707C-81.016-29.924-195.787-10.913-306.306,21.209
					c-37.529,10.908-74.431,23.819-111.908,34.889c-47.144,13.926-95.218,23.403-143.997,29.393
					c-89.39,10.975-179.364,20.147-269.519,14.962c-103.826-5.971-204.942-31.488-302.082-67.906
					c-185.56-69.566-353.417-176.206-500.578-308.545c-22.98-20.665-45.426-41.906-67.453-63.582
					c-1.197-1.178-3.042,0.664-1.843,1.843c143.216,140.932,306.932,260.557,491.522,341.291
					c93.768,41.012,191.886,74.281,293.227,90.179c87.866,13.784,176.569,12.773,264.917,4.538
					c90.444-8.43,179.048-21.103,265.806-48.696c40.235-12.797,80.33-25.854,121.215-36.478
					c56.856-14.774,114.654-25.965,172.56-35.734C25.571-42.885,147.926-57.727,269.826-55.911
					c120.596,1.797,241.839,20.701,355.877,60.533c152.841,53.385,291.77,146.369,398.247,268.459
					c6.727,7.714,13.311,15.55,19.77,23.489C1044.779,297.872,1046.614,296.017,1045.563,294.726L1045.563,294.726z"/>
			</g>
		</g>
		<g>
			<g>
				
					<linearGradient id="SVGID_00000001655315988105128380000009201563065100438709_" gradientUnits="userSpaceOnUse" x1="-1704.8883" y1="-43.8849" x2="1041.2346" y2="-43.8849">
					<stop  offset="0" style="stop-color:#9FC53B"/>
					<stop  offset="1" style="stop-color:#020203"/>
				</linearGradient>
				<path style="fill:url(#SVGID_00000001655315988105128380000009201563065100438709_);" d="M1040.923,268.152
					C951.639,157.572,835.853,68.54,706.8,9.219C604.795-37.669,494.585-65.234,383.078-76.783
					c-117.22-12.141-234.704-4.662-351.146,11.469C-82.659-49.44-198.214-28.1-308.838,6.212
					c-36.424,11.298-72.121,24.708-108.363,36.542c-45.209,14.762-91.638,25.464-138.828,31.501
					c-86.587,11.077-173.915,18.556-261.204,12.46c-103.268-7.212-203.882-33.479-300.461-70.037
					c-189.047-71.559-361.524-179.073-514.391-310.9c-23.987-20.686-47.471-41.94-70.557-63.625
					c-1.222-1.148-3.069,0.692-1.843,1.843c148.704,139.677,316.431,258.751,503.496,341.318
					c95.477,42.141,195.154,76.78,298.348,93.924c86.215,14.323,173.443,14.858,260.34,7.131
					c46.846-4.166,94.108-8.946,140.212-18.403c38.635-7.925,76.135-19.189,113.361-32.106
					C-293.392,2.777-197.21-22.504-97.995-41.314c119.993-22.75,242.292-39.733,364.648-39.095
					c121.454,0.633,243.747,19.08,358.519,59.414c151.464,53.228,288.976,145.944,394.155,267.354
					c6.724,7.762,13.302,15.647,19.753,23.637C1040.134,271.301,1041.968,269.447,1040.923,268.152L1040.923,268.152z"/>
			</g>
		</g>
		<g>
			<g>
				
					<linearGradient id="SVGID_00000051371380337067424800000017818390312346271924_" gradientUnits="userSpaceOnUse" x1="-1705.6995" y1="-66.296" x2="1036.5919" y2="-66.296">
					<stop  offset="0" style="stop-color:#9FC53B"/>
					<stop  offset="1" style="stop-color:#020203"/>
				</linearGradient>
				<path style="fill:url(#SVGID_00000051371380337067424800000017818390312346271924_);" d="M1036.283,241.579
					C948.375,131.854,834.198,43.257,706.778-15.964c-101.815-47.321-211.934-75.059-323.508-86.13
					C264.656-113.864,145.761-105.301,28.3-86.86C-86.019-68.912-201.504-45.145-311.537-8.902
					c-76.774,25.288-149.492,57.838-229.988,70.554c-84.799,13.396-172.236,18.7-257.883,11.988
					c-102.207-8.01-201.842-34.472-297.481-70.72c-194.923-73.879-374.01-183.997-534.287-316.719
					c-24.501-20.289-48.56-41.1-72.263-62.314c-1.247-1.116-3.097,0.722-1.843,1.843
					c154.376,138.167,326.065,256.988,515.609,341.623c97.471,43.523,199.123,79.698,304.543,98.052
					c84.188,14.658,169.539,16.593,254.572,9.206c47.084-4.09,94.217-9.591,140.248-20.54
					c35.271-8.389,69.301-20.279,103.189-33.038c93.821-35.325,189.598-61.069,287.694-81.689
					c119.061-25.027,240.445-43.857,362.35-44.414c122.474-0.559,245.869,17.411,361.537,58.322
					C774.919,6.467,911.313,99.213,1015.325,220.357c6.505,7.577,12.871,15.272,19.115,23.065
					C1035.489,244.731,1037.323,242.876,1036.283,241.579L1036.283,241.579z"/>
			</g>
		</g>
		<g>
			<g>
				
					<linearGradient id="SVGID_00000021798250421612396240000005517927086044074885_" gradientUnits="userSpaceOnUse" x1="-1706.5103" y1="-88.7067" x2="1031.9492" y2="-88.7067">
					<stop  offset="0" style="stop-color:#9FC53B"/>
					<stop  offset="1" style="stop-color:#020203"/>
				</linearGradient>
				<path style="fill:url(#SVGID_00000021798250421612396240000005517927086044074885_);" d="M1031.643,215.005
					C944.649,105.557,831.336,16.998,704.734-42.132c-213.285-99.616-451.587-106.506-680.189-66.476
					c-113.475,19.87-228.162,46.095-337.114,83.857c-74.683,25.884-144.922,60.49-223.322,74.683
					c-82.391,14.916-168.487,18.308-251.803,10.541C-888.69,51.058-987.121,23.74-1081.574-12.57
					c-198.908-76.465-382.622-188.959-549.125-321.246c-24.866-19.756-49.352-39.981-73.536-60.566
					c-1.271-1.082-3.123,0.754-1.843,1.843c159.884,136.089,335.043,254.784,526.599,341.652
					c99.183,44.978,202.557,82.718,309.906,102.552c81.405,15.041,164.193,18.574,246.649,11.648
					c46.417-3.899,92.621-10.061,137.694-22.1c32.597-8.706,63.907-20.949,95.136-33.593
					c93.752-37.96,190.373-65.071,288.855-87.855c119.211-27.579,240.88-48.238,363.498-49.701
					c122.432-1.461,245.784,16.145,361.337,57.295c149.494,53.236,284.831,146.053,387.703,266.971
					c6.296,7.4,12.458,14.912,18.503,22.518C1030.844,218.161,1032.677,216.306,1031.643,215.005L1031.643,215.005z"/>
			</g>
		</g>
		<g>
			<g>
				
					<linearGradient id="SVGID_00000032612907708324558280000014340861727268554929_" gradientUnits="userSpaceOnUse" x1="-1707.3208" y1="-111.117" x2="1027.3065" y2="-111.117">
					<stop  offset="0" style="stop-color:#9FC53B"/>
					<stop  offset="1" style="stop-color:#020203"/>
				</linearGradient>
				<path style="fill:url(#SVGID_00000032612907708324558280000014340861727268554929_);" d="M1027.003,188.431
					C940.889,79.213,828.406-9.313,702.585-68.407c-214.563-100.775-455.058-106.206-684.46-61.651
					c-112.408,21.832-225.971,50.604-333.609,89.933c-70.409,25.726-136.512,61.226-210.29,77.091
					c-181.074,38.937-368.647,2.13-538.584-63.951c-202.172-78.615-389.641-193.163-562.011-323.982
					c-26.545-20.146-52.741-40.741-78.663-61.681c-1.294-1.045-3.149,0.788-1.843,1.843
					c167.167,135.037,347.562,254.977,543.315,344.544c172.227,78.803,357.61,134.4,548.715,118.322
					c44.551-3.748,88.773-10.525,131.702-23.286c30.494-9.065,59.657-21.555,88.801-34.187
					c92.523-40.102,188.68-68.579,286.3-93.449c119.319-30.399,241.312-53.167,364.692-56.05
					c123.272-2.88,247.502,14.101,363.884,55.526c149.394,53.175,284.468,146.377,386.711,267.665
					c6.095,7.23,12.061,14.567,17.916,21.992C1026.198,191.591,1028.031,189.735,1027.003,188.431L1027.003,188.431z"/>
			</g>
		</g>
		<g>
			<g>
				
					<linearGradient id="SVGID_00000165939667838377655280000012202443164772496058_" gradientUnits="userSpaceOnUse" x1="-1707.9565" y1="-133.6114" x2="1022.6636" y2="-133.6114">
					<stop  offset="0" style="stop-color:#9FC53B"/>
					<stop  offset="1" style="stop-color:#020203"/>
				</linearGradient>
				<path style="fill:url(#SVGID_00000165939667838377655280000012202443164772496058_);" d="M1022.363,161.857
					C936.695,52.305,824.343-36.538,698.531-95.628C482.219-197.224,239.428-200.508,9.125-151.071
					c-59.053,12.676-117.403,28.379-175.29,45.568c-52.745,15.662-105.487,31.668-156.788,51.642
					C-390.78-27.453-454.142,9.169-525.527,25.77c-176.257,40.989-362.051-3.164-526.457-68.597
					c-205.941-81.964-397.17-199.677-575.856-329.821c-26.322-19.171-52.388-38.688-78.253-58.472
					c-1.332-1.019-2.632,1.244-1.316,2.251c175.473,134.214,361.687,256.18,562.631,348.905
					C-977.909-2.961-794.133,57.064-608.049,40.977c43.654-3.774,86.922-11.55,128.539-25.471
					c28.508-9.536,55.659-22.341,82.91-34.92c91.286-42.14,187.169-71.906,283.912-98.767
					c119.394-33.15,241.756-57.811,365.898-61.901c124.085-4.089,249.098,12.589,366.181,54.571
					C767.642-72.352,901.485,20.73,1002.602,141.537c6.098,7.286,12.065,14.679,17.918,22.164
					C1021.553,165.021,1023.386,163.165,1022.363,161.857L1022.363,161.857z"/>
			</g>
		</g>
		<g>
			<g>
				
					<linearGradient id="SVGID_00000103982883245855355830000001008071388697787009_" gradientUnits="userSpaceOnUse" x1="-1708.7732" y1="-156.0232" x2="1018.0208" y2="-156.0232">
					<stop  offset="0" style="stop-color:#9FC53B"/>
					<stop  offset="1" style="stop-color:#020203"/>
				</linearGradient>
				<path style="fill:url(#SVGID_00000103982883245855355830000001008071388697787009_);" d="M1017.724,135.284
					C911.317-1.937,763.311-106.208,598.726-161.254c-135.85-45.436-280.757-56.333-422.762-41.275
					c-123.61,13.107-243.827,45.239-361.753,83.594c-55.235,17.965-110.393,36.272-163.702,59.458
					c-35.638,15.5-69.805,34.087-105.363,49.724c-47.985,21.102-99.32,33.138-151.483,37.498
					C-739.164,38.847-873.038,4.393-996.472-41.794c-219.87-82.272-423.184-207.546-615.558-340.495
					c-31.863-22.02-63.463-44.417-94.859-67.096c-1.362-0.984-2.665,1.277-1.316,2.251
					c202.182,146.048,414.809,284.421,645.361,381.681c129.527,54.642,269.697,98.761,411.68,97.793
					c46.096-0.314,92.281-5.796,136.762-18.094c31.443-8.694,61.21-21.341,90.472-35.63c42.322-20.667,84.672-40.647,128.78-57.315
					c111.987-42.319,228.668-78.171,346.048-101.827c144.455-29.112,294.057-36.277,439.117-7.008
					C685.858-148.02,865.857-42.192,994.57,110.732c7.283,8.653,14.38,17.458,21.31,26.395
					C1016.907,138.451,1018.74,136.594,1017.724,135.284L1017.724,135.284z"/>
			</g>
		</g>
		<g>
			<g>
				
					<linearGradient id="SVGID_00000154394934589824781020000008232886602259236512_" gradientUnits="userSpaceOnUse" x1="-1727.6182" y1="-149.2428" x2="1015.8357" y2="-149.2428">
					<stop  offset="0" style="stop-color:#9FC53B"/>
					<stop  offset="1" style="stop-color:#020203"/>
				</linearGradient>
				<path style="fill:url(#SVGID_00000154394934589824781020000008232886602259236512_);" d="M1015.521,125.827
					C925.169,15.1,809.975-75.092,679.505-133.816c-105.084-47.298-218.885-73.427-333.901-79.014
					c-122.009-5.927-243.932,11.134-362.038,41.077c-60.142,15.248-119.5,33.49-178.33,53.163
					c-52.633,17.602-105.33,35.324-156.496,56.897c-63.719,26.867-123.458,63.426-190.628,81.5
					c-163.446,43.978-340.513,0.546-494.895-56.586c-216.547-80.138-417.104-200.582-606.477-331.341
					c-27.695-19.123-55.169-38.561-82.474-58.236c-1.363-0.982-2.666,1.278-1.316,2.251
					C-1539.82-289.193-1343-163.499-1130.642-71.721C-966.93-0.968-780.478,59.838-599.731,34.214
					c60.958-8.642,116.163-30.208,171.082-57.244c93.15-45.857,190.903-79.89,289.836-111.015
					c118.084-37.149,239.124-66.606,362.976-74.905c126.057-8.447,253.49,5.32,373.426,45.757
					c153.254,51.67,290.826,145.746,396.69,267.777c6.587,7.593,13.043,15.298,19.398,23.086
					C1014.739,128.97,1016.573,127.116,1015.521,125.827L1015.521,125.827z"/>
			</g>
		</g>
		<g>
			<g>
				
					<linearGradient id="SVGID_00000116919281378194394140000006887365087947154573_" gradientUnits="userSpaceOnUse" x1="-1746.4631" y1="-142.462" x2="1013.6486" y2="-142.462">
					<stop  offset="0" style="stop-color:#9FC53B"/>
					<stop  offset="1" style="stop-color:#020203"/>
				</linearGradient>
				<path style="fill:url(#SVGID_00000116919281378194394140000006887365087947154573_);" d="M1013.318,116.37
					C919.799,6.83,803.961-83.099,671.892-141.422c-104.08-45.963-216.539-71.536-330.145-76.672
					c-122.279-5.528-244.234,12.677-362.334,43.503c-60.364,15.756-119.903,34.631-178.943,54.744
					c-53.188,18.119-106.493,36.421-158.384,58.021C-424.496-34.11-486.992,4.213-556.506,24.491
					c-158.204,46.149-331.698,8.821-483.611-42.693c-223.069-75.643-429.412-195.134-622.972-327.856
					c-27.382-18.776-54.527-37.893-81.488-57.269c-1.365-0.981-2.667,1.28-1.316,2.251
					c190.478,136.888,391.999,262.239,610.179,350.111C-973.272,14.459-788.752,68.99-612.002,39.724
					C-549.71,29.41-493.891,5.02-437.615-22.592c94.551-46.392,194.334-80.997,294.472-113.205
					c117.992-37.951,238.793-68.63,362.769-77.792c124.622-9.21,250.662,3.979,369.533,43.128
					C743.943-119.484,882.354-25.745,991.202,95.062c6.867,7.621,13.612,15.35,20.273,23.151
					C1012.566,119.491,1014.402,117.639,1013.318,116.37L1013.318,116.37z"/>
			</g>
		</g>
		<g>
			<g>
				
					<linearGradient id="SVGID_00000053535923409167437920000012414466810645208963_" gradientUnits="userSpaceOnUse" x1="-1765.3082" y1="-135.6809" x2="1011.4597" y2="-135.6809">
					<stop  offset="0" style="stop-color:#9FC53B"/>
					<stop  offset="1" style="stop-color:#020203"/>
				</linearGradient>
				<path style="fill:url(#SVGID_00000053535923409167437920000012414466810645208963_);" d="M1011.115,106.913
					C915.38-0.778,799.607-89.959,667.168-147.878c-103.08-45.079-214.27-70.452-326.627-75.565
					c-122.34-5.568-244.229,13.212-362.183,44.751c-115.129,30.785-229.726,70.219-339.944,115.582
					c-69.458,28.587-134.766,68.389-206.511,91.138c-155.508,49.31-327.039,17.732-478.874-29.51
					c-228.342-71.046-439.583-188.808-636.497-322.893c-26.884-18.306-53.516-36.977-79.953-55.922
					c-1.366-0.979-2.669,1.281-1.316,2.251c193.779,138.866,400.142,263.511,624.14,347.19
					C-979.326,29.391-796.47,77.96-623.535,44.816c63.13-12.099,119.587-38.866,176.935-66.78
					c97.394-47.405,200.239-83.482,303.028-117.269c118.196-38.851,239.32-70.418,363.787-79.714
					c122.772-9.17,246.921,4.053,364.106,42.283C739.267-126.116,877.465-33.128,988.312,85.699
					c7.085,7.595,14.058,15.294,20.96,23.057C1010.389,110.012,1012.227,108.163,1011.115,106.913L1011.115,106.913z"/>
			</g>
		</g>
		<g>
			<g>
				
					<linearGradient id="SVGID_00000052789090313444820470000013215423969744668809_" gradientUnits="userSpaceOnUse" x1="-1784.1533" y1="-128.8994" x2="1009.2692" y2="-128.8994">
					<stop  offset="0" style="stop-color:#9FC53B"/>
					<stop  offset="1" style="stop-color:#020203"/>
				</linearGradient>
				<path style="fill:url(#SVGID_00000052789090313444820470000013215423969744668809_);" d="M1008.912,97.455
					C910.081-9.741,792.574-98.946,657.965-156.396c-102.392-43.7-212.549-68.257-323.769-72.792
					c-122.085-4.978-243.508,14.733-360.922,47.124c-114.267,31.523-227.185,72.127-336.958,116.812
					c-41.106,16.733-81.211,35.532-121,55.161c-30.717,15.153-61.557,29.927-94.008,41.05
					c-152.076,52.125-320.161,27.245-471.353-15.211c-234.038-65.72-450.861-181.484-651.558-316.925
					c-27.148-18.321-54.015-37.05-80.663-56.089c-1.367-0.977-2.671,1.283-1.316,2.251
					c197.046,140.778,408.281,264.265,637.939,343.505c159.168,54.918,338.872,97.386,507.209,61.812
					c65.064-13.75,123.167-42.875,182.549-71.618c99.228-48.03,203.934-85.387,308.298-120.58
					c117.962-39.778,238.979-72.37,363.487-82.269c121.342-9.648,244.134,3.071,360.219,40.082
					c156.071,49.76,295.183,142.149,408.544,259.59c7.566,7.839,15.02,15.784,22.404,23.794
					C1008.209,100.535,1010.049,98.688,1008.912,97.455L1008.912,97.455z"/>
			</g>
		</g>
		<g>
			<g>
				
					<linearGradient id="SVGID_00000175280835588226981580000005156860556685930407_" gradientUnits="userSpaceOnUse" x1="-1802.9985" y1="-122.1176" x2="1007.0775" y2="-122.1176">
					<stop  offset="0" style="stop-color:#9FC53B"/>
					<stop  offset="1" style="stop-color:#020203"/>
				</linearGradient>
				<path style="fill:url(#SVGID_00000175280835588226981580000005156860556685930407_);" d="M1006.709,87.998
					C905.836-17.863,787.65-106.468,652.346-163.489c-101.639-42.834-210.833-67.064-321.043-71.449
					c-121.447-4.832-242.077,15.168-358.706,47.96c-113.562,31.93-224.78,73.783-334.181,117.753
					C-405.39-51.619-448.29-32.06-490.615-11.16c-31.829,15.717-63.535,31.723-96.863,44.09
					c-148.551,55.124-312.805,37.336-463.367-0.153c-240.099-59.782-463.257-173.408-668.14-310.285
					c-27.668-18.484-55.021-37.429-82.125-56.729c-1.369-0.975-2.672,1.285-1.316,2.251
					c202.405,144.133,421.061,267.127,659.066,341.441c155.863,48.666,331.139,84.068,493.314,45.378
					c67.824-16.181,128.286-48.506,190.716-78.34c100.948-48.24,207.214-86.792,312.916-123.208
					c116.616-40.176,236.59-72.895,359.915-83.03c119.32-9.806,240.155,2.531,354.535,38.177
					C725.175-142.595,865.295-50.818,981.003,65.304c8.054,8.083,15.993,16.277,23.864,24.538
					C1006.026,91.059,1007.867,89.213,1006.709,87.998L1006.709,87.998z"/>
			</g>
		</g>
		<g>
			<g>
				
					<linearGradient id="SVGID_00000052085477002450840220000017657256498035847561_" gradientUnits="userSpaceOnUse" x1="-1821.8438" y1="-115.3354" x2="1004.8845" y2="-115.3354">
					<stop  offset="0" style="stop-color:#9FC53B"/>
					<stop  offset="1" style="stop-color:#020203"/>
				</linearGradient>
				<path style="fill:url(#SVGID_00000052085477002450840220000017657256498035847561_);" d="M1004.507,78.541
					c-103.613-105.52-223.768-194.09-361.118-250.627c-101.818-41.911-210.96-65.345-321.013-68.973
					C200.65-245.071,79.996-223.764-36.53-189.794c-114.319,33.326-225.847,76.857-336.07,121.713
					c-44.65,18.171-88.436,38.207-131.626,59.602c-32.617,16.158-65.055,32.763-99.095,45.786
					c-148.254,56.722-311.832,42.864-463.645,8.178c-241.339-55.14-466.427-164.953-672.015-301.093
					c-27.301-18.079-54.27-36.65-80.973-55.6c-1.371-0.973-2.674,1.287-1.316,2.251
					c202.325,143.577,422.137,263.058,661.083,332.806c155.926,45.515,330.824,77.316,491.572,36.973
					c69.294-17.391,131.235-50.759,195.18-81.459c101.142-48.558,207.202-88.255,312.82-125.892
					C-42.569-188.593,78.968-223.52,204.2-234.922c118.133-10.756,237.948,0.488,351.648,34.535
					C715.673-152.528,858.362-60.806,977.325,55.097c8.547,8.327,16.977,16.774,25.338,25.288
					C1003.841,81.584,1005.684,79.74,1004.507,78.541L1004.507,78.541z"/>
			</g>
		</g>
		<g>
			<g>
				
					<linearGradient id="SVGID_00000164486996461431601670000004992065164804823988_" gradientUnits="userSpaceOnUse" x1="-1840.6891" y1="-100.4726" x2="1002.6905" y2="-100.4726">
					<stop  offset="0" style="stop-color:#9FC53B"/>
					<stop  offset="1" style="stop-color:#020203"/>
				</linearGradient>
				<path style="fill:url(#SVGID_00000164486996461431601670000004992065164804823988_);" d="M1002.304,69.084
					C895.807-36.435,773.235-125.137,633.44-181.154c-101.677-40.743-210.454-63.297-319.969-66.128
					c-121.946-3.153-242.492,19.323-358.878,54.402c-113.837,34.311-224.527,78.895-334.358,124.189
					c-46.559,19.201-92.314,40.08-137.403,62.512c-33.363,16.598-66.495,33.783-101.189,47.495
					c-149.924,59.256-315.39,48.485-470.281,15.597c-241.872-51.357-468.14-157.472-673.908-292.976
					c-25.714-16.934-51.111-34.339-76.251-52.114c-1.373-0.97-2.676,1.289-1.316,2.251
					c201.074,142.161,420.694,257.537,658.895,322.921c157.46,43.221,334.004,72.237,494.987,29.499
					c71.384-18.951,135.287-53.804,201.397-85.632c102.102-49.157,208.793-90.305,315.161-129.218
					c117.849-43.113,239.288-79.408,364.604-91.868c118.177-11.75,238.237-1.278,352.292,32.032
					c161.54,47.179,305.919,138.68,427.382,253.998c8.715,8.274,17.319,16.664,25.855,25.123
					C1001.654,72.11,1003.498,70.267,1002.304,69.084L1002.304,69.084z"/>
			</g>
		</g>
		<g>
			<g>
				
					<linearGradient id="SVGID_00000065048562334833525070000011154896428885014658_" gradientUnits="userSpaceOnUse" x1="-1859.5345" y1="-84.9008" x2="1000.4957" y2="-84.9008">
					<stop  offset="0" style="stop-color:#9FC53B"/>
					<stop  offset="1" style="stop-color:#020203"/>
				</linearGradient>
				<path style="fill:url(#SVGID_00000065048562334833525070000011154896428885014658_);" d="M1000.101,59.627
					C890.616-46.151,765.247-135.185,622.678-190.584c-102.748-39.926-212.382-61.517-322.629-63.1
					c-120.987-1.737-240.262,21.985-355.37,57.842c-113.958,35.498-224.765,81.095-334.626,127.535
					c-47.768,20.192-94.865,41.667-141.258,64.848c-35.026,17.501-69.786,35.671-106.18,50.226
					c-150.072,60.019-315.748,52.269-471.8,21.845c-241.869-47.156-469.043-149.278-674.672-283.628
					c-24.896-16.266-49.471-33.01-73.786-50.131c-1.375-0.968-2.678,1.291-1.316,2.251
					c199.642,140.584,418.928,251.862,656.056,312.918c158.031,40.69,334.202,66.334,494.715,23.217
					c74.033-19.887,140.386-56.32,208.917-89.54c103.317-50.083,210.853-92.901,318.289-133.263
					c117.344-44.083,238.246-81.81,363.28-95.714c118.109-13.134,238.349-3.879,352.823,28.214
					C699.315-171.033,846.402-79.6,970.948,35.607c9.204,8.514,18.293,17.152,27.31,25.863
					C999.465,62.637,1001.31,60.796,1000.101,59.627L1000.101,59.627z"/>
			</g>
		</g>
		<g>
			<g>
				
					<linearGradient id="SVGID_00000098201339132582330660000005774405387519202464_" gradientUnits="userSpaceOnUse" x1="-1878.38" y1="-78.0373" x2="998.3" y2="-78.0373">
					<stop  offset="0" style="stop-color:#9FC53B"/>
					<stop  offset="1" style="stop-color:#020203"/>
				</linearGradient>
				<path style="fill:url(#SVGID_00000098201339132582330660000005774405387519202464_);" d="M997.898,50.17
					C884.439-56.928,754.867-146.856,607.926-201.535c-104.002-38.701-214.741-58.813-325.74-58.571
					c-118.943,0.26-235.856,25.17-348.661,61.538c-114.255,36.835-225.372,83.49-335.453,131.182
					c-48.809,21.146-97.043,43.338-144.552,67.27c-35.204,17.734-70.148,36.129-106.659,51.086
					c-152.693,62.552-321.331,57.521-481.208,28.586c-240.37-43.502-467.041-141.364-671.423-273.91
					c-23.869-15.479-47.423-31.432-70.716-47.764c-1.377-0.965-2.681,1.294-1.316,2.251
					c196.798,137.983,414.054,244.645,648.127,301.76c160.634,39.195,339.542,62.602,501.713,17.509
					c76.679-21.321,145.393-59.299,216.477-93.996c103.815-50.674,211.465-94.848,319.223-136.363
					c116.574-44.911,236.646-83.924,361.075-99.317c116.829-14.453,235.967-6.842,349.842,23.157
					c168.543,44.401,319.949,136.374,448.622,252.52c9.699,8.755,19.277,17.642,28.779,26.611
					C997.274,53.165,999.121,51.325,997.898,50.17L997.898,50.17z"/>
			</g>
		</g>
		<g>
			<g>
				
					<linearGradient id="SVGID_00000181086267032064630890000003430942820598824125_" gradientUnits="userSpaceOnUse" x1="-1897.2256" y1="-76.9859" x2="996.1037" y2="-76.9859">
					<stop  offset="0" style="stop-color:#9FC53B"/>
					<stop  offset="1" style="stop-color:#020203"/>
				</linearGradient>
				<path style="fill:url(#SVGID_00000181086267032064630890000003430942820598824125_);" d="M995.695,40.713
					C879.076-67.025,746.197-157.434,596.032-211.381C491.733-248.85,381-267.868,270.142-266.51
					c-117.575,1.44-232.877,27.104-344.128,63.869c-114.588,37.868-226.016,85.526-336.29,134.367
					C-458.51-46.911-506.365-24.86-553.446-1.049c-36.471,18.445-72.555,37.814-110.146,53.931
					c-153.752,65.921-323.806,65.48-486.655,39.313c-241.923-38.874-471.229-133.26-676.82-265.476
					c-23.051-14.824-45.789-30.123-68.263-45.806c-1.379-0.962-2.683,1.297-1.316,2.251
					c196.829,137.355,415.579,240.477,650.279,293.121c160.975,36.107,339.593,55.566,500.694,8.645
					c80.408-23.419,152.407-63.882,227.202-100.496c104.277-51.046,211.943-96.497,319.971-138.93
					C-85.19-199.004,31.41-238.038,152.391-254.898c117.69-16.401,238.11-10.268,353.385,18.727
					c171.556,43.151,326.088,135.14,457.983,251.513c10.142,8.948,20.158,18.037,30.093,27.215
					C995.083,43.694,996.931,41.855,995.695,40.713L995.695,40.713z"/>
			</g>
		</g>
		<g>
			<g>
				
					<linearGradient id="SVGID_00000103981749912379591570000006715963870653448330_" gradientUnits="userSpaceOnUse" x1="-1916.0714" y1="-75.9253" x2="993.9068" y2="-75.9253">
					<stop  offset="0" style="stop-color:#9FC53B"/>
					<stop  offset="1" style="stop-color:#020203"/>
				</linearGradient>
				<path style="fill:url(#SVGID_00000103981749912379591570000006715963870653448330_);" d="M993.493,31.256
					C872.964-77.893,735.717-169.202,581.129-222.265c-105.25-36.128-216.709-53.659-327.992-50.573
					c-115.444,3.202-228.362,29.78-337.322,66.841c-115.645,39.335-228.109,88.386-339.303,138.768
					c-48.613,22.026-96.899,44.651-144.43,68.939c-37.641,19.234-74.886,39.414-113.701,56.232
					c-155.315,67.294-327.362,69.714-492.676,45.583c-240.711-35.136-469.945-125.491-674.629-256.084
					c-22.04-14.062-43.776-28.589-65.251-43.498c-1.381-0.959-2.686,1.3-1.316,2.251c194.53,135.054,411.969,233.9,644.131,282.644
					c162.55,34.128,341.842,50.486,503.666,2.832c83.617-24.624,158.337-66.834,236.015-105.296
					c105.783-52.378,214.706-99.627,324.228-143.563c111.578-44.761,226.326-84.416,345.563-102.601
					c116.611-17.784,236.181-13.345,351.042,13.678C665.091-204.72,824.075-112.271,960.065,5.128
					c10.646,9.191,21.16,18.532,31.584,27.972C992.89,34.223,994.739,32.385,993.493,31.256L993.493,31.256z"/>
			</g>
		</g>
		<g>
			<g>
				
					<linearGradient id="SVGID_00000078023792947795449950000002099376544109404548_" gradientUnits="userSpaceOnUse" x1="-1934.9172" y1="-74.893" x2="991.7094" y2="-74.893">
					<stop  offset="0" style="stop-color:#9FC53B"/>
					<stop  offset="1" style="stop-color:#020203"/>
				</linearGradient>
				<path style="fill:url(#SVGID_00000078023792947795449950000002099376544109404548_);" d="M991.29,21.799
					C866.858-88.81,725.16-181.005,566.112-233.104c-106.124-34.762-218.225-50.792-329.848-45.989
					C122.877-274.214,12.242-246.78-94.53-209.444c-115.624,40.431-228.097,90.334-339.206,141.719
					c-48.603,22.478-96.949,45.453-144.552,69.99c-39.099,20.153-77.735,41.381-117.969,59.232
					c-156.025,69.225-329.24,75.471-496.546,54.209c-241.385-30.675-472.635-117.589-677.935-247.505
					c-21.042-13.315-41.789-27.083-62.28-41.23c-1.384-0.955-2.689,1.303-1.316,2.251
					c192.408,132.83,408.755,227.541,638.516,272.434c166.365,32.506,347.955,44.998,512.362-5.136
					c86.117-26.26,163.138-70.694,243.267-110.68c105.791-52.791,214.306-101.093,323.701-145.879
					c109.877-44.984,222.812-85.212,340.32-104.654c115.511-19.112,234.181-16.363,348.585,8.714
					c180.337,39.53,343.858,132.425,483.939,250.884c11.156,9.434,22.173,19.03,33.092,28.737
					C990.697,24.754,992.547,22.917,991.29,21.799L991.29,21.799z"/>
			</g>
		</g>
		<g>
			<g>
				
					<linearGradient id="SVGID_00000018929689380796608590000001336560246042862215_" gradientUnits="userSpaceOnUse" x1="-1953.7633" y1="-73.8199" x2="989.5115" y2="-73.8199">
					<stop  offset="0" style="stop-color:#9FC53B"/>
					<stop  offset="1" style="stop-color:#020203"/>
				</linearGradient>
				<path style="fill:url(#SVGID_00000018929689380796608590000001336560246042862215_);" d="M989.087,12.342
					C861.585-99.048,716.443-191.64,554.142-242.902c-106.393-33.604-218.509-48.539-329.985-42.637
					c-111.294,5.893-219.725,33.578-324.375,70.846c-116.778,41.587-230.328,92.798-342.396,145.604
					c-48.854,23.02-97.489,46.499-145.388,71.455c-40.638,21.173-80.729,43.582-122.47,62.554
					c-158.108,71.859-334.613,81.52-505.247,62.456c-240.452-26.864-472.054-109.912-676.793-238.374
					c-20.055-12.584-39.828-25.606-59.35-39c-1.387-0.951-2.692,1.307-1.316,2.251c190.299,130.56,405.533,221.188,632.798,262.356
					c170.734,30.928,354.015,38.911,521.548-13.385c88.841-27.732,168.228-74.841,250.906-116.481
					c107.123-53.95,216.668-103.862,327.407-149.896c108.012-44.9,219.025-85.19,334.634-105.251
					c114.253-19.826,231.784-18.149,345.353,5.444C642.815-226.87,809.631-133.941,952.824-15.16
					c11.605,9.627,23.065,19.426,34.419,29.346C988.502,15.285,990.353,13.448,989.087,12.342L989.087,12.342z"/>
			</g>
		</g>
		<g>
			<g>
				
					<linearGradient id="SVGID_00000014635107737150232750000018091867301455577533_" gradientUnits="userSpaceOnUse" x1="-1972.6096" y1="-72.6006" x2="987.3132" y2="-72.6006">
					<stop  offset="0" style="stop-color:#9FC53B"/>
					<stop  offset="1" style="stop-color:#020203"/>
				</linearGradient>
				<path style="fill:url(#SVGID_00000014635107737150232750000018091867301455577533_);" d="M986.884,2.885
					c-131.966-113.434-282.438-207.21-450.116-257.21c-107.243-31.979-219.928-45.119-331.622-37.241
					c-110.271,7.777-217.397,36.879-320.787,74.981c-116.324,42.869-229.544,94.78-341.213,148.468
					c-48.941,23.53-97.648,47.561-145.668,72.922c-40.83,21.563-81.129,44.309-123.039,63.748
					c-160.623,74.502-341.293,87.382-515.595,70.315c-238.78-23.38-469.966-102.606-673.563-229.324
					c-18.919-11.775-37.572-23.965-55.987-36.513c-1.39-0.947-2.696,1.311-1.316,2.251
					c186.648,127.179,398.836,213.524,621.552,251.481c176.448,30.072,364.21,34.291,536.332-20.944
					c90.191-28.943,170.877-77.698,254.81-120.525c105.547-53.856,213.229-104.009,322.22-150.479
					c108.68-46.338,220.324-88.461,336.837-110.173c112.379-20.941,228.129-21.05,340.484,0.203
					C628.88-239.465,801.22-145.79,949.091-25.392c12.124,9.872,24.094,19.929,35.95,30.12
					C986.307,5.817,988.159,3.981,986.884,2.885L986.884,2.885z"/>
			</g>
		</g>
		<g>
			<g>
				
					<linearGradient id="SVGID_00000052061688071301506710000013105346256724860567_" gradientUnits="userSpaceOnUse" x1="-1991.4561" y1="-71.2212" x2="985.1146" y2="-71.2212">
					<stop  offset="0" style="stop-color:#9FC53B"/>
					<stop  offset="1" style="stop-color:#020203"/>
				</linearGradient>
				<path style="fill:url(#SVGID_00000052061688071301506710000013105346256724860567_);" d="M984.681-6.572
					c-136.456-115.523-292.373-210.484-465.49-259.086c-108.199-30.376-221.548-41.659-333.555-31.755
					c-108.531,9.596-213.728,39.806-315.259,78.368c-116.407,44.212-229.808,97.03-341.567,151.808
					c-49.219,24.125-98.171,48.821-146.487,74.712c-41.93,22.468-83.329,46.117-126.443,66.285
					c-163.313,76.397-348.576,91.799-526.302,76.441c-235.686-20.367-465.092-95.771-666.41-220.038
					c-17.812-10.995-35.378-22.377-52.718-34.102c-1.394-0.942-2.699,1.315-1.316,2.251
					c182.815,123.617,391.642,205.803,609.504,240.755c179.51,28.799,369.465,29.753,544.062-26.161
					C-744.443,83.17-661.713,32.938-575.664-11.77c105.567-54.849,213.215-105.988,322.234-153.589
					c108.136-47.215,219.101-90.677,335.092-114.213c112.404-22.808,228.443-24.838,341.493-5.216
					c193.126,33.52,370.223,127.6,522.185,249.157c12.649,10.118,25.135,20.436,37.497,30.902
					C984.111-3.651,985.964-5.486,984.681-6.572L984.681-6.572z"/>
			</g>
		</g>
		<g>
			<g>
				
					<linearGradient id="SVGID_00000168085430891823406390000005075734330818450321_" gradientUnits="userSpaceOnUse" x1="-2010.3029" y1="-69.7516" x2="982.9156" y2="-69.7516">
					<stop  offset="0" style="stop-color:#9FC53B"/>
					<stop  offset="1" style="stop-color:#020203"/>
				</linearGradient>
				<path style="fill:url(#SVGID_00000168085430891823406390000005075734330818450321_);" d="M982.479-16.029
					c-139.498-116.423-298.971-211.7-475.383-259.342c-108.368-29.266-221.735-39.499-333.513-28.489
					c-107.429,10.581-211.337,41.293-311.685,80.166c-117.809,45.637-232.584,99.94-345.594,156.292
					c-48.564,24.216-96.836,49.057-144.532,74.944c-43.424,23.567-86.259,48.424-130.872,69.718
					c-166.544,79.493-357.51,98.148-539.64,84.607c-232.894-17.315-460.785-89.063-660.115-211.011
					c-16.736-10.239-33.244-20.84-49.541-31.765c-1.397-0.937-2.704,1.32-1.316,2.251
					c179.902,120.607,386.391,198.93,600.482,230.765c184.742,27.47,378.915,23.997,557.517-34.954
					c95.765-31.609,181.108-84.845,269.922-131.467c105.419-55.339,212.72-107.218,321.555-155.491
					c106.41-47.197,215.563-90.824,329.75-115.164c111.088-23.68,225.979-27.073,338.184-9.096
					c197.052,31.57,378.43,125.87,534.097,248.363c13.103,10.311,26.038,20.833,38.839,31.517
					C981.915-13.118,983.769-14.952,982.479-16.029L982.479-16.029z"/>
			</g>
		</g>
		<g>
			<g>
				
					<linearGradient id="SVGID_00000142876005718243501560000010614117602938416828_" gradientUnits="userSpaceOnUse" x1="-2029.1499" y1="-68.097" x2="980.7163" y2="-68.097">
					<stop  offset="0" style="stop-color:#9FC53B"/>
					<stop  offset="1" style="stop-color:#020203"/>
				</linearGradient>
				<path style="fill:url(#SVGID_00000142876005718243501560000010614117602938416828_);" d="M980.276-25.486
					C836.88-143.562,672.596-239.731,491.564-285.968c-110.365-28.188-225.508-36.729-338.707-23.408
					c-104.966,12.353-206.295,43.827-304.21,82.769C-269.504-179.615-384.72-124.291-498.065-66.781
					c-47.699,24.202-95.069,49.083-141.928,74.876c-44.33,24.401-88.039,50.133-133.54,72.332
					c-167.067,81.511-360.736,104.165-544.507,93.878c-232.436-13.011-461.412-81.127-660.913-201.574
					c-16.317-9.851-32.408-20.067-48.287-30.609c-1.402-0.931-2.709,1.326-1.316,2.251
					c178.517,118.519,384.379,193.244,596.504,221.68c187.502,25.135,383.347,16.776,563.607-43.946
					c98.02-33.019,185.3-88.465,276.083-136.862c104.141-55.519,210.146-107.548,317.657-156.222
					c105.79-47.894,214.178-92.583,327.728-118.457c110.584-25.198,225.114-30.344,337.425-14.107
					C591.52-274.473,777.388-180.06,936.9-56.817c14.022,10.834,27.853,21.911,41.533,33.175
					C979.718-22.584,981.572-24.418,980.276-25.486L980.276-25.486z"/>
			</g>
		</g>
		<g>
			<g>
				
					<linearGradient id="SVGID_00000078733494974328103930000015244295934430239129_" gradientUnits="userSpaceOnUse" x1="-2047.9973" y1="-66.2889" x2="978.5168" y2="-66.2889">
					<stop  offset="0" style="stop-color:#9FC53B"/>
					<stop  offset="1" style="stop-color:#020203"/>
				</linearGradient>
				<path style="fill:url(#SVGID_00000078733494974328103930000015244295934430239129_);" d="M978.073-34.943
					c-147.014-119.529-315.75-216.372-500.989-261.28c-109.837-26.628-224.093-33.882-336.279-19.609
					c-104.751,13.327-205.681,45.701-303.206,85.357C-280.915-182.284-396.559-125.971-510.25-67.41
					c-47.667,24.553-94.95,49.873-141.759,76.026c-46.279,25.858-91.876,53.173-139.449,76.63
					c-169.768,83.708-369.028,109.397-556.288,101.029c-229.108-10.238-456.022-74.953-653.164-192.791
					c-15.259-9.121-30.313-18.576-45.173-28.333c-1.406-0.923-2.714,1.333-1.316,2.251
					c173.21,113.729,373.326,184.507,578.52,210.941c193.381,24.912,394.66,12.783,580.082-50.078
					c100.339-34.016,189.415-91.264,281.984-141.579c105.621-57.41,213.366-110.903,322.563-161.171
					c104.921-48.3,212.361-93.554,325.037-120.39c106.948-25.472,217.79-32.178,326.961-18.723
					c206.611,25.465,398.59,120.142,563.116,244.83c15.332,11.62,30.44,23.531,45.366,35.667
					C977.521-32.05,979.376-33.884,978.073-34.943L978.073-34.943z"/>
			</g>
		</g>
		<g>
			<g>
				
					<linearGradient id="SVGID_00000173876216580486872280000016733779802684949635_" gradientUnits="userSpaceOnUse" x1="-2066.845" y1="-64.2989" x2="976.317" y2="-64.2989">
					<stop  offset="0" style="stop-color:#9FC53B"/>
					<stop  offset="1" style="stop-color:#020203"/>
				</linearGradient>
				<path style="fill:url(#SVGID_00000173876216580486872280000016733779802684949635_);" d="M975.87-44.4
					C824.297-166.166,649.794-264.171,458.961-307.26c-109.929-24.821-223.83-30.194-335.468-14.373
					c-105.427,14.941-206.742,49.116-304.626,90.185C-299.52-181.776-415.274-124.509-528.937-64.899
					C-623.386-15.366-713.786,42.12-809.12,89.818c-78.422,39.236-163.481,64.529-249.195,82.197
					c-103.994,21.436-210.58,29.969-316.674,26.576c-226.604-7.247-452.272-68.643-647.795-184.286
					c-14.228-8.415-28.273-17.132-42.143-26.124c-1.412-0.915-2.72,1.341-1.316,2.251
					c170.294,110.398,367.395,177.674,568.551,201.523c197.299,23.392,401.899,6.615,590.329-58.159
					c100.674-34.607,190.193-92.433,282.687-143.945c105.909-58.983,214.398-113.317,324.066-164.945
					c103.802-48.867,210.009-94.999,321.473-123.434c107.46-27.413,218.98-36.168,329.324-24.28
					c211.082,22.741,408.111,117.825,576.74,243.72c15.923,11.888,31.61,24.086,47.102,36.532
					C975.323-41.516,977.179-43.349,975.87-44.4L975.87-44.4z"/>
			</g>
		</g>
		<g>
			<g>
				
					<linearGradient id="SVGID_00000176013843029515153250000000826547698646117762_" gradientUnits="userSpaceOnUse" x1="-2085.6934" y1="-62.153" x2="974.1171" y2="-62.153">
					<stop  offset="0" style="stop-color:#9FC53B"/>
					<stop  offset="1" style="stop-color:#020203"/>
				</linearGradient>
				<path style="fill:url(#SVGID_00000176013843029515153250000000826547698646117762_);" d="M973.667-53.857
					C816.831-178.429,635.609-277.851,438.185-318.69c-110.11-22.777-223.874-26.02-334.939-8.151
					C0.023-310.234-98.998-275.379-194.779-234.236C-314.838-182.664-432.34-123.767-547.595-62.278
					C-641.648-12.1-731.484,46.248-826.549,94.384c-79.149,40.077-165.111,65.628-251.546,84.673
					c-105.453,23.236-213.597,33.973-321.56,32.106c-224.945-3.891-450.244-62.164-644.921-175.972
					c-13.224-7.731-26.286-15.734-39.195-23.98c-1.418-0.906-2.727,1.35-1.316,2.251
					c168.304,107.501,363.224,171.508,561.382,192.63c200.86,21.411,408.46-0.53,599.443-67.346
					c100.506-35.163,189.562-93.49,281.652-145.74c106.114-60.207,215.007-115.425,324.99-168.19
					c103.475-49.643,209.151-96.918,320.167-127.123c105.684-28.754,215.598-39.596,324.805-30.077
					C544.83-313.426,748.788-217.599,922.968-89.418c16.521,12.158,32.794,24.646,48.856,37.404
					C973.125-50.981,974.981-52.814,973.667-53.857L973.667-53.857z"/>
			</g>
		</g>
		<g>
			<g>
				
					<linearGradient id="SVGID_00000174597337994829028180000004065846632016777352_" gradientUnits="userSpaceOnUse" x1="-2104.5425" y1="-59.81" x2="971.9169" y2="-59.81">
					<stop  offset="0" style="stop-color:#9FC53B"/>
					<stop  offset="1" style="stop-color:#020203"/>
				</linearGradient>
				<path style="fill:url(#SVGID_00000174597337994829028180000004065846632016777352_);" d="M971.465-63.314
					C797.907-199.692,593.921-306.056,373.388-337.107c-115.29-16.233-232.742-10.402-345.877,16.952
					c-112.968,27.314-220.278,74.072-324.845,123.975C-418.762-138.23-538.884-76.923-655.525-9.81
					c-65.993,37.971-130.152,79.858-198.402,113.755c-63.732,31.653-131.539,52.956-200.165,71.135
					c-103.206,27.338-209.13,43.924-315.87,47.86c-240.29,8.861-484.856-45.386-694.018-165.472
					c-13.033-7.483-25.906-15.238-38.635-23.227c-1.425-0.894-2.735,1.36-1.316,2.251
					c182.04,114.258,394.992,176.368,609.031,187.984c120.306,6.529,241.308-3.054,359.265-27.445
					c75.019-15.513,150.542-35.466,221.869-63.623c62.202-24.555,119.619-58.326,176.942-92.422
					c98.033-58.31,197.573-113.481,299.362-164.998c216.285-109.465,440.264-221.527,688.461-219.64
					c241.816,1.838,471.926,102.183,665.409,242.025c18.012,13.019,35.739,26.425,53.214,40.156
					C970.926-60.446,972.783-62.278,971.465-63.314L971.465-63.314z"/>
			</g>
		</g>
	</g>
</g>
</svg>
