<?xml version="1.0" encoding="UTF-8"?>
<!DOCTYPE svg PUBLIC "-//W3C//DTD SVG 1.1//EN" "http://www.w3.org/Graphics/SVG/1.1/DTD/svg11.dtd">
<!-- Creator: CorelDRAW -->
<svg xmlns="http://www.w3.org/2000/svg" xml:space="preserve" width="99.836mm" height="24.6944mm" version="1.1" style="shape-rendering:geometricPrecision; text-rendering:geometricPrecision; image-rendering:optimizeQuality; fill-rule:evenodd; clip-rule:evenodd"
viewBox="0 0 9983.6 2469.44"
 xmlns:xlink="http://www.w3.org/1999/xlink"
 xmlns:xodm="http://www.corel.com/coreldraw/odm/2003">
 <defs>
  <style type="text/css">
   <![CDATA[
    .str1 {stroke:#8FD400;stroke-width:52.92;stroke-miterlimit:10}
    .str0 {stroke:#8FD400;stroke-width:22.61;stroke-miterlimit:10}
    .fil0 {fill:none;fill-rule:nonzero}
    .fil1 {fill:#FEFEFE;fill-rule:nonzero}
   ]]>
  </style>
 </defs>
 <g id="Laag_x0020_1">
  <metadata id="CorelCorpID_0Corel-Layer"/>
  <path class="fil0 str0" d="M238.41 1717.54c205.11,128.8 429.75,235.43 689.4,298.63 214.29,52.15 373.69,55.58 500.48,-25.03 207.38,-131.84 160.09,-382.05 367.03,-650.62 148.71,-193.04 334.2,-272.82 533.84,-358.69 116.66,-50.18 236.1,-84.65 355.21,-106.96"/>
  <path class="fil0 str0" d="M238.41 1635.39c205.11,128.8 429.75,235.43 689.4,298.63 214.29,52.15 373.69,55.58 500.48,-25.02 207.38,-131.85 160.09,-382.06 367.03,-650.63 148.71,-193.04 334.2,-272.82 533.84,-358.68 116.66,-50.18 236.1,-84.67 355.21,-106.97"/>
  <path class="fil0 str0" d="M238.41 1553.24c205.11,128.8 429.75,235.43 689.4,298.63 214.29,52.16 373.69,55.58 500.48,-25.02 207.38,-131.85 160.09,-382.05 367.03,-650.63 148.71,-193.04 334.2,-272.82 533.84,-358.68 116.66,-50.18 236.1,-84.66 355.21,-106.97"/>
  <path class="fil0 str0" d="M238.41 1471.1c205.11,128.79 429.75,235.42 689.4,298.62 214.29,52.16 373.69,55.58 500.48,-25.02 207.38,-131.85 160.09,-382.05 367.03,-650.63 148.71,-193.03 334.2,-272.81 533.84,-358.68 116.66,-50.18 236.1,-84.66 355.21,-106.97"/>
  <path class="fil0 str0" d="M238.41 1388.95c205.11,128.8 429.75,235.42 689.4,298.62 214.29,52.16 373.69,55.58 500.48,-25.02 207.38,-131.83 160.09,-382.05 367.03,-650.63 148.71,-193.03 334.2,-272.81 533.84,-358.68 116.66,-50.18 236.1,-84.66 355.21,-106.97"/>
  <path class="fil0 str0" d="M238.41 1306.81c205.11,128.79 429.75,235.42 689.4,298.61 214.29,52.15 373.69,55.58 500.48,-25.02 207.38,-131.83 160.09,-382.05 367.03,-650.63 148.71,-193.03 334.2,-272.8 533.84,-358.68 116.66,-50.18 236.1,-84.66 355.21,-106.97"/>
  <path class="fil0 str0" d="M238.41 1224.66c205.11,128.8 429.75,235.43 689.4,298.62 214.29,52.15 373.69,55.57 500.48,-25.02 207.38,-131.84 160.09,-382.06 367.03,-650.63 148.71,-193.04 334.2,-272.81 533.84,-358.69 116.66,-50.18 236.1,-84.66 355.21,-106.97"/>
  <path class="fil0 str0" d="M238.41 1142.51c205.11,128.79 429.75,235.43 689.4,298.62 214.29,52.15 373.69,55.58 500.48,-25.02 207.38,-131.84 160.09,-382.06 367.03,-650.63 148.71,-193.04 334.2,-272.81 533.84,-358.69 116.66,-50.18 236.1,-84.66 355.21,-106.96"/>
  <path class="fil0 str0" d="M238.41 1060.36c205.11,128.79 429.75,235.43 689.4,298.62 214.29,52.15 373.69,55.58 500.48,-25.02 207.38,-131.84 160.09,-382.06 367.03,-650.63 148.71,-193.03 334.2,-272.81 533.84,-358.69 116.66,-50.17 236.1,-84.65 355.21,-106.96"/>
  <polygon class="fil0 str1" points="2684.37,2438.64 238.41,2438.64 238.41,-7.32 2684.37,-7.32 "/>
  <path class="fil1" d="M2499.27 2139.46c-30.62,0 -48.5,-6.38 -61.26,-29.35l-104.64 -188.89c-17.89,-33.19 -44.68,-47.23 -44.68,-47.23l0 -2.55c104.66,-35.74 171.02,-125.08 171.02,-251.42 0,-127.64 -66.36,-209.32 -167.2,-242.5 -51.05,-15.31 -105.92,-19.15 -172.29,-19.15l-29.4 0 0 134.01 28.12 0c42.12,0 76.59,5.11 102.11,16.59 49.78,20.43 71.46,66.37 71.46,125.08 0,97 -57.42,149.33 -145.5,149.33l-150.6 0 0 -134.63 -167.17 0 0 490.71 -108.49 0 0 125.07 380.34 0 0 -125.07 -104.68 0 0 -222.08 82.97 0c52.32,0 68.92,11.49 88.05,45.95l128.92 233.57c28.08,52.32 51.05,67.63 126.35,67.63l105.94 0 0 -125.07 -29.37 0z"/>
  <path class="fil1" d="M5583.55 2096.27c-0.97,-34.15 -21.95,-54.64 -48.31,-54.64 -31.71,0 -54.14,21.95 -60,54.64l108.31 0zm-46.85 -102.45c71.71,0 110.73,52.2 110.73,118.04 0,7.34 -1.45,20.98 -1.45,20.98l-172.19 0c3.92,45.88 37.06,69.27 74.63,69.27 40.49,0 72.18,-26.33 72.18,-26.33l23.91 43.88c0,0 -38.04,34.65 -100.49,34.65 -82.43,0 -133.65,-59.5 -133.65,-130.26 0,-76.57 51.7,-130.23 126.33,-130.23z"/>
  <path class="fil1" d="M5677.95 2205.05l35.93 0 0 -144.72c0,-6.8 -3.88,-10.69 -10.69,-10.69l-27.66 0 0 -46.14 65.08 0c21.83,0 32.03,10.2 32.03,27.69l0 11.17c0,5.34 -0.95,10.67 -0.95,10.67l0.95 0c2.92,-7.75 29.16,-55.36 91.33,-55.36 52.91,0 83.03,28.66 83.03,94.22l0 113.16 35.93 0 0 46.15 -97.13 0 0 -146.67c0,-30.11 -8.24,-50.52 -39.35,-50.52 -44.65,0 -70.89,42.74 -70.89,85.97l0 65.07 35.45 0 0 46.15 -133.06 0 0 -46.15z"/>
  <path class="fil1" d="M3280.78 2039.05l0 49.9c0,43.31 54.61,68.74 117.7,68.74 67.8,0 115.82,-29.21 115.82,-82.86 0,-67.83 -76.26,-89.48 -153.49,-119.59 -89.45,-33.91 -177.02,-74.39 -177.02,-193.98 0,-134.66 109.24,-186.42 224.09,-186.42 105.47,0 211.88,40.47 211.88,117.67l0 87.57 -112.04 0 0 -45.19c0,-33.91 -49.91,-51.8 -99.84,-51.8 -54.61,0 -99.8,22.62 -99.8,73.44 0,61.21 62.15,82.89 131.83,109.25 99.8,35.79 199.62,75.34 199.62,200.58 0,136.53 -114.87,199.64 -241.05,199.64 -111.1,0 -229.74,-49.94 -229.74,-150.69l0 -76.26 112.04 0z"/>
  <path class="fil1" d="M3792 1586.12l120.54 0 0 106.4 -120.54 0 0 -106.4zm-68.75 579.09l69.7 0 0 -301.32 -74.42 0 0 -89.42 194.01 0 0 390.74 68.73 0 0 89.46 -258.02 0 0 -89.46z"/>
  <path class="fil1" d="M4392.71 2003.26c0,-109.23 -54.61,-138.41 -118.64,-138.41 -72.52,0 -112.99,52.74 -112.99,133.69 0,83.81 43.31,145.96 120.54,145.96 56.48,0 111.09,-32.93 111.09,-141.24zm-138.41 351.21c73.45,0 135.59,-32 135.59,-120.52l0 -30.12c0,-11.31 1.87,-25.42 1.87,-25.42l-1.87 0c-28.26,42.35 -69.69,66.84 -133.71,66.84 -138.44,0 -215.64,-111.1 -215.64,-242.93 0,-131.84 74.4,-239.18 212.79,-239.18 57.46,0 122.43,21.65 148.8,72.5l1.88 0c0,0 -1.88,-6.57 -1.88,-15.98 0,-25.46 16.95,-45.2 54.61,-45.2l119.59 0 0 89.42 -46.13 0c-12.25,0 -20.73,6.6 -20.73,18.84l0 342.76c0,164.8 -128.05,226.91 -253.29,226.91 -60.26,0 -124.29,-16.92 -171.4,-41.41l36.72 -88.51c0,0 59.35,32 132.8,32z"/>
  <path class="fil1" d="M4647.8 2165.21l69.67 0 0 -280.58c0,-13.18 -7.52,-20.74 -20.69,-20.74l-53.7 0 0 -89.43 126.2 0c42.36,0 62.13,19.74 62.13,53.64l0 21.65c0,10.39 -1.88,20.73 -1.88,20.73l1.88 0c5.68,-15.07 56.49,-107.34 177.05,-107.34 102.61,0 161.01,55.55 161.01,182.69l0 219.38 69.67 0 0 89.46 -188.33 0 0 -284.38c0,-58.36 -16,-97.93 -76.26,-97.93 -86.65,0 -137.46,82.88 -137.46,166.7l0 126.15 68.7 0 0 89.46 -257.99 0 0 -89.46z"/>
  <path class="fil1" d="M6402.69 1924.01c60.37,0 99.74,-35.89 99.74,-102.39 0,-40.22 -14.88,-71.72 -48.99,-85.73 -17.52,-7.87 -41.12,-11.38 -69.99,-11.38l-83.99 0 0 199.5 103.23 0zm-292.22 244.07l74.35 0 0 -448.81 -74.35 0 0 -86.64 273.85 0c45.48,0 83.1,2.66 118.11,13.14 69.12,22.75 114.61,78.74 114.61,166.26 0,86.59 -45.49,147.84 -117.23,172.35l0 1.73c0,0 18.36,9.63 30.62,32.38l71.72 129.49c8.76,15.74 21,20.1 42.02,20.1l20.11 0 0 85.77 -72.63 0c-51.6,0 -67.33,-10.54 -86.61,-46.36l-88.35 -160.13c-13.13,-23.64 -24.51,-31.5 -60.37,-31.5l-56.86 0 0 152.22 71.73 0 0 85.77 -260.72 0 0 -85.77z"/>
  <path class="fil1" d="M7027.26 1980.85c-1.74,-61.22 -39.35,-97.99 -86.61,-97.99 -56.86,0 -97.1,39.37 -107.6,97.99l194.21 0zm-83.97 -183.72c128.62,0 198.6,93.6 198.6,211.75 0,13.1 -2.65,37.58 -2.65,37.58l-308.8 0c6.98,82.26 66.46,124.24 133.84,124.24 72.62,0 129.5,-47.25 129.5,-47.25l42.86 78.78c0,0 -68.27,62.13 -180.24,62.13 -147.84,0 -239.72,-106.77 -239.72,-233.64 0,-137.33 92.76,-233.59 226.61,-233.59z"/>
  <path class="fil1" d="M7443.67 1797.13c74.35,0 182.84,28.02 182.84,106.74l0 61.25 -96.23 0 0 -29.75c0,-29.74 -45.5,-43.76 -83.14,-43.76 -81.34,0 -131.21,55.99 -131.21,137.37 0,91.88 63.88,141.72 140,141.72 62.98,0 114.57,-34.98 139.12,-54.23l39.35 78.74c-30.6,28.88 -99.73,69.13 -184.62,69.13 -130.34,0 -245.85,-88.37 -245.85,-232.73 0,-133 102.38,-234.48 239.74,-234.48z"/>
  <path class="fil1" d="M7727.93 1715.77l-69.12 0 0 -83.13 179.35 0 0 472.47c0,40.22 8.75,61.22 45.52,61.22 12.24,0 21,-0.84 21,-0.84l0 89.24c0,0 -18.4,2.61 -40.26,2.61 -70.88,0 -136.49,-23.62 -136.49,-145.24l0 -396.33z"/>
  <path class="fil1" d="M8132.99 2181.22c60.37,0 103.23,-64.73 103.23,-120.75l0 -14.86 -18.38 0c-43.74,0 -149.58,6.99 -149.58,74.36 0,33.23 23.6,61.25 64.73,61.25zm74.36 -202.98l28 0 0 -14.88c0,-56.84 -35.86,-76.99 -82.23,-76.99 -66.52,0 -126.03,42.87 -126.03,42.87l-41.1 -76.99c0,0 69.14,-55.13 176.75,-55.13 119.85,0 183.73,62.13 183.73,175.86l0 178.49c0,13.14 6.96,19.25 19.24,19.25l40.24 0 0 83.1 -104.97 0c-41.16,0 -56.9,-21.84 -56.9,-47.24l0 -5.23c0,-14.02 2.65,-22.76 2.65,-22.76l-1.76 0c0,0 -37.62,85.76 -140.89,85.76 -76.1,0 -147.82,-44.63 -147.82,-135.63 0,-136.47 179.33,-150.48 251.09,-150.48z"/>
  <path class="fil1" d="M8466.23 2170.71l64.75 0 0 -261.59c0,-12.23 -7.01,-18.38 -19.25,-18.38l-49.88 0 0 -83.1 116.36 0c39.41,0 58.62,18.37 58.62,49.88l0 20.09c0,9.63 -1.72,19.28 -1.72,19.28l1.72 0c22.77,-45.52 78.76,-99.75 152.26,-99.75 62.12,0 106.7,28.87 124.22,97.08l1.76 0c24.49,-52.44 83.99,-97.08 154.87,-97.08 90.11,0 143.45,52.5 143.45,169.75l0 203.82 64.76 0 0 83.14 -175.86 0 0 -265.99c0,-50.73 -9.63,-89.24 -61.26,-89.24 -76.12,0 -113.74,76.13 -113.74,158.36l0 113.73 64.77 0 0 83.14 -175.01 0 0 -265.99c0,-48.12 -7.88,-89.24 -60.35,-89.24 -78.75,0 -114.61,83.13 -114.61,163.6l0 108.49 63.86 0 0 83.14 -239.72 0 0 -83.14z"/>
  <path class="fil1" d="M9639.38 1980.85c-1.76,-61.22 -39.38,-97.99 -86.62,-97.99 -56.9,0 -97.16,39.37 -107.62,97.99l194.24 0zm-84.02 -183.72c128.61,0 198.62,93.6 198.62,211.75 0,13.1 -2.64,37.58 -2.64,37.58l-308.84 0c7.03,82.26 66.5,124.24 133.87,124.24 72.59,0 129.48,-47.25 129.48,-47.25l42.86 78.78c0,0 -68.25,62.13 -180.22,62.13 -147.86,0 -239.71,-106.77 -239.71,-233.64 0,-137.33 92.72,-233.59 226.58,-233.59z"/>
  <path class="fil1" d="M666.07 800.99l0 65.59c0,56.95 71.79,90.36 154.72,90.36 89.12,0 152.18,-38.37 152.18,-108.91 0,-89.13 -100.25,-117.61 -201.69,-157.22 -117.58,-44.56 -232.7,-97.79 -232.7,-254.98 0,-176.93 143.57,-245.02 294.51,-245.02 138.65,0 278.51,53.23 278.51,154.74l0 115.02 -147.22 0 0 -59.34c0,-44.62 -65.68,-68.07 -131.29,-68.07 -71.69,0 -131.12,29.64 -131.12,96.47 0,80.46 81.7,108.94 173.29,143.6 131.15,47.04 262.36,99.03 262.36,263.65 0,179.49 -151.03,262.42 -316.83,262.42 -146.07,0 -302.02,-65.6 -302.02,-198.04l0 -100.27 147.3 0z"/>
 </g>
</svg>
