<?xml version="1.0" standalone="no"?>
<!DOCTYPE svg PUBLIC "-//W3C//DTD SVG 20010904//EN"
 "http://www.w3.org/TR/2001/REC-SVG-20010904/DTD/svg10.dtd">
<svg version="1.0" xmlns="http://www.w3.org/2000/svg"
 width="500.000000pt" height="500.000000pt" viewBox="0 0 500.000000 500.000000"
 preserveAspectRatio="xMidYMid meet">
<metadata>
Created by potrace 1.14, written by Peter Selinger 2001-2017
</metadata>
<g transform="translate(0.000000,500.000000) scale(0.100000,-0.100000)"
fill="#000000" stroke="none">
<path d="M222 2498 l0 -2283 2247 2 c1235 1 2262 2 2282 2 l35 1 0 2280 0
2280 -2282 0 -2282 0 0 -2282z m4519 2228 c1 -15 1 -338 0 -353 -1 -12 -16
-17 -131 -42 -75 -17 -318 -89 -355 -105 -16 -8 -67 -27 -111 -45 -273 -103
-602 -277 -749 -396 -78 -62 -180 -158 -230 -216 -161 -185 -244 -342 -394
-746 -88 -239 -118 -299 -204 -405 -88 -109 -271 -204 -432 -224 -62 -8 -218
-7 -277 1 -483 67 -1017 260 -1483 537 l-110 66 1 963 c1 530 2 967 3 970 2
12 4471 7 4472 -5z m2 -459 c-5 -62 -7 -64 -58 -72 -26 -3 -102 -22 -169 -41
-66 -19 -131 -37 -144 -39 -94 -22 -453 -176 -681 -293 -394 -202 -678 -518
-836 -930 -16 -39 -30 -70 -32 -68 -4 3 45 140 91 255 108 271 322 541 563
713 202 145 615 338 948 443 116 36 136 42 187 51 15 3 47 11 70 18 58 17 66
13 61 -37z m1 -151 c-2 -57 -6 -62 -51 -71 -21 -5 -42 -10 -48 -11 -5 -2 -23
-6 -40 -9 -86 -17 -280 -76 -385 -117 -316 -123 -661 -296 -785 -395 -6 -4
-33 -26 -60 -47 -97 -76 -254 -247 -326 -354 -82 -123 -162 -280 -209 -411
-18 -51 -35 -90 -37 -88 -3 4 68 213 87 252 5 11 21 49 36 85 36 89 122 241
184 325 180 245 373 397 715 564 299 146 509 225 770 292 153 38 150 39 149
-15z m-1 -144 c-1 -17 -2 -40 -2 -51 -1 -14 -11 -21 -38 -25 -118 -21 -340
-85 -491 -142 -283 -106 -681 -309 -801 -410 -183 -153 -270 -246 -370 -394
-62 -93 -145 -251 -180 -345 -30 -78 -64 -155 -57 -130 6 25 53 155 96 265
158 405 432 699 845 909 352 178 665 295 935 347 13 3 27 7 29 10 15 15 35 -4
34 -34z m-2 -127 c0 -8 1 -28 1 -45 0 -16 -1 -34 -1 -39 -1 -7 -68 -26 -166
-45 -45 -9 -274 -80 -335 -104 -263 -103 -530 -227 -662 -309 -303 -187 -510
-412 -652 -708 -29 -60 -61 -126 -70 -145 -9 -19 -14 -26 -10 -15 3 11 7 25 8
30 6 27 73 189 108 260 112 225 242 391 426 543 146 121 290 204 561 326 281
126 437 182 656 237 133 33 135 33 136 14z m0 -165 c1 -16 2 -37 2 -45 0 -8
-1 -19 -2 -24 0 -5 -34 -17 -73 -26 -122 -27 -359 -96 -438 -127 -279 -110
-576 -253 -708 -341 -299 -198 -524 -471 -651 -790 -13 -32 -26 -56 -28 -53
-10 10 110 291 164 384 189 329 420 534 823 729 96 47 195 93 220 103 25 10
97 39 160 64 108 44 359 121 425 132 17 2 44 9 60 13 44 14 45 13 46 -19z m-1
-214 c-5 -15 -26 -23 -96 -38 -373 -76 -988 -348 -1248 -551 -22 -18 -95 -86
-161 -152 -190 -189 -295 -362 -415 -683 -7 -18 -15 -31 -17 -29 -2 3 1 15 6
28 5 13 24 62 41 109 59 159 82 215 126 301 106 206 229 356 447 544 37 33
159 111 244 157 154 84 229 119 508 238 88 37 322 113 390 126 11 2 54 12 95
22 l75 18 5 -36 c3 -19 3 -44 0 -54z m4 -111 c0 -25 -5 -50 -10 -54 -5 -5 -47
-17 -93 -26 -241 -49 -546 -163 -890 -334 -211 -105 -342 -195 -495 -341 -76
-73 -190 -214 -253 -315 -41 -65 -128 -243 -155 -317 -11 -32 -23 -57 -25 -54
-7 7 86 246 137 352 68 142 173 294 280 407 160 169 305 271 565 397 350 170
474 216 855 319 19 5 46 10 60 10 23 1 25 -2 24 -44z m-2 -129 c3 -13 3 -37 1
-53 -4 -27 -9 -30 -91 -48 -440 -95 -1022 -358 -1297 -585 -39 -33 -183 -176
-218 -218 -94 -112 -221 -331 -276 -477 -30 -80 -63 -155 -57 -130 7 29 68
197 105 288 58 143 179 349 260 442 107 121 227 230 345 310 137 94 373 213
616 310 52 21 109 43 125 50 88 37 297 98 409 121 10 2 20 5 22 6 1 2 14 4 27
6 19 1 26 -4 29 -22z m-1 -144 c1 -22 1 -2770 0 -2800 l-1 -22 -2237 2 -2238
3 0 633 c0 511 2 631 13 627 7 -2 61 -33 120 -68 416 -245 974 -452 1349 -503
26 -3 71 -10 98 -15 89 -14 311 -4 398 19 134 36 221 86 317 182 104 104 158
195 230 394 135 369 187 482 289 635 111 166 283 337 439 438 74 47 208 124
252 145 19 9 89 42 155 73 232 109 495 203 705 253 100 23 110 24 111 4z
m-1930 -303 c-5 -13 -10 -19 -10 -12 -1 15 10 45 15 40 3 -2 0 -15 -5 -28z
m-46 -130 c-43 -110 -44 -113 -85 -204 -17 -38 -42 -84 -56 -102 -13 -17 -24
-35 -24 -39 0 -4 -32 -38 -70 -76 -53 -51 -93 -79 -163 -112 -124 -60 -216
-79 -387 -80 -324 0 -914 178 -1364 413 -109 57 -332 184 -345 196 -7 8 -6 95
1 95 4 0 42 -21 85 -46 123 -73 367 -198 503 -257 119 -52 386 -152 433 -161
12 -3 47 -12 77 -21 274 -80 454 -110 643 -108 245 3 427 74 565 222 73 77
147 201 191 319 13 34 26 61 28 59 2 -3 -12 -47 -32 -98z m-20 -200 c-31 -79
-67 -166 -82 -193 -129 -250 -374 -380 -693 -370 -87 2 -193 12 -220 19 -8 2
-32 6 -52 9 -176 26 -536 137 -793 245 -103 44 -408 194 -435 215 -8 7 -26 18
-40 24 -14 7 -56 32 -95 55 l-69 42 -1 48 c0 26 3 47 7 47 4 0 37 -18 73 -40
36 -22 68 -40 71 -40 3 0 18 -8 32 -18 50 -35 286 -153 417 -209 267 -113 536
-199 775 -247 171 -34 207 -38 340 -41 393 -8 641 160 785 533 16 39 30 70 32
68 2 -2 -21 -68 -52 -147z m26 -85 c-58 -159 -101 -253 -145 -320 -57 -87 -59
-89 -131 -150 -132 -110 -278 -159 -480 -159 -148 0 -211 7 -420 49 -172 34
-465 131 -700 231 -219 93 -601 295 -623 329 -4 6 -7 30 -7 54 -1 51 -10 53
143 -36 234 -136 450 -237 707 -330 131 -47 393 -125 460 -137 29 -5 48 -8
105 -20 128 -25 223 -34 355 -31 107 3 146 8 220 30 89 27 185 70 228 104 67
52 151 147 195 219 43 72 63 114 104 226 6 15 12 26 14 24 2 -2 -10 -39 -25
-83z m53 -8 c-9 -26 -18 -45 -20 -43 -2 2 3 25 12 51 9 26 18 45 20 43 2 -2
-3 -25 -12 -51z m-39 -111 c-10 -25 -20 -44 -22 -42 -2 2 5 25 14 50 9 25 19
44 21 42 2 -2 -4 -24 -13 -50z m-2358 -46 c163 -94 290 -157 458 -228 147 -63
426 -163 485 -175 14 -3 68 -17 120 -31 175 -47 307 -67 470 -71 159 -3 263
11 367 49 168 62 309 199 395 384 17 35 32 62 35 60 4 -5 -40 -120 -81 -209
-24 -53 -101 -164 -143 -206 -86 -87 -234 -158 -378 -181 -60 -10 -318 -8
-365 3 -14 3 -41 8 -60 12 -110 18 -457 108 -515 133 -11 5 -63 24 -115 42
-52 18 -122 45 -155 59 -33 15 -76 33 -95 41 -172 70 -564 286 -578 318 -6 13
-8 53 -3 83 0 4 14 0 30 -10 16 -9 74 -42 128 -73z m2399 10 c-18 -41 -21 -29
-4 18 7 19 14 30 16 25 1 -4 -4 -24 -12 -43z m-65 -175 c-82 -217 -128 -305
-210 -397 -26 -30 -120 -98 -176 -128 -166 -89 -426 -101 -750 -35 -192 39
-498 136 -711 226 -109 46 -404 192 -446 221 -14 11 -28 19 -31 19 -2 0 -41
22 -87 50 l-84 49 0 50 c-1 57 -15 59 129 -24 119 -69 307 -166 409 -211 44
-20 101 -45 126 -56 74 -34 311 -115 442 -152 203 -57 320 -82 478 -101 52 -6
256 -7 285 -2 11 3 36 7 55 11 67 12 75 14 130 36 219 87 351 235 455 508 15
40 29 72 31 70 2 -2 -19 -62 -45 -134z m-2353 -128 c223 -130 482 -250 738
-340 72 -26 140 -48 150 -51 11 -2 66 -17 124 -33 106 -30 223 -57 294 -68 21
-3 48 -8 60 -10 85 -17 278 -23 361 -11 299 43 510 213 620 502 10 25 20 43
22 41 8 -8 -99 -265 -133 -322 -112 -186 -265 -286 -504 -330 -40 -7 -231 -7
-275 0 -17 3 -55 8 -85 11 -294 34 -773 196 -1155 390 -117 60 -339 186 -354
201 -3 2 -5 26 -5 53 -1 44 1 48 17 40 10 -6 66 -38 125 -73z m2383 57 c-12
-20 -14 -14 -5 12 4 9 9 14 11 11 3 -2 0 -13 -6 -23z m19 -100 c-11 -17 -11
-17 -6 0 3 10 6 24 7 30 0 9 2 9 5 0 3 -7 0 -20 -6 -30z m-2410 -105 c402
-233 855 -408 1250 -484 160 -31 213 -37 330 -38 395 -3 637 158 780 522 18
45 34 81 36 79 5 -5 -98 -272 -126 -327 -71 -139 -172 -241 -304 -305 -124
-60 -203 -77 -356 -78 -69 0 -143 3 -165 6 -22 3 -58 9 -80 12 -398 58 -989
281 -1395 527 -101 62 -104 65 -104 98 2 75 2 75 22 58 9 -8 60 -40 112 -70z
m2378 -134 c-41 -115 -106 -265 -140 -322 -43 -74 -169 -200 -236 -235 -126
-66 -228 -89 -397 -91 -139 -1 -192 5 -358 39 -187 38 -542 146 -671 205 -23
10 -70 30 -106 45 -106 43 -370 180 -491 253 l-113 68 -1 42 c-1 24 1 45 5 47
3 2 51 -23 107 -55 363 -208 670 -339 1058 -448 61 -18 124 -34 140 -37 17 -2
41 -7 55 -10 190 -41 434 -52 565 -26 248 50 422 194 541 447 19 40 34 78 34
83 0 13 22 62 26 58 2 -2 -6 -30 -18 -63z"/>
</g>
</svg>
